<svg xmlns="http://www.w3.org/2000/svg" xmlns:xlink="http://www.w3.org/1999/xlink" version="1.1" class="marks" width="656" height="322" viewBox="0 0 656 322"><rect width="656" height="322" fill="white"/><g fill="none" stroke-miterlimit="10" transform="translate(199,5)"><g class="mark-group role-frame root" role="graphics-object" aria-roledescription="group mark container"><g transform="translate(0,0)"><path class="background" aria-hidden="true" d="M0.5,0.5h300v280h-300Z" stroke="#ddd"/><g><g class="mark-group role-axis" aria-hidden="true"><g transform="translate(0.5,280.5)"><path class="background" aria-hidden="true" d="M0,0h0v0h0Z" pointer-events="none"/><g><g class="mark-rule role-axis-grid" pointer-events="none"><line transform="translate(0,0)" x2="0" y2="-280" stroke="#ddd" stroke-width="1" opacity="1"/><line transform="translate(33,0)" x2="0" y2="-280" stroke="#ddd" stroke-width="1" opacity="1"/><line transform="translate(67,0)" x2="0" y2="-280" stroke="#ddd" stroke-width="1" opacity="1"/><line transform="translate(100,0)" x2="0" y2="-280" stroke="#ddd" stroke-width="1" opacity="1"/><line transform="translate(133,0)" x2="0" y2="-280" stroke="#ddd" stroke-width="1" opacity="1"/><line transform="translate(167,0)" x2="0" y2="-280" stroke="#ddd" stroke-width="1" opacity="1"/><line transform="translate(200,0)" x2="0" y2="-280" stroke="#ddd" stroke-width="1" opacity="1"/><line transform="translate(233,0)" x2="0" y2="-280" stroke="#ddd" stroke-width="1" opacity="1"/><line transform="translate(267,0)" x2="0" y2="-280" stroke="#ddd" stroke-width="1" opacity="1"/><line transform="translate(300,0)" x2="0" y2="-280" stroke="#ddd" stroke-width="1" opacity="1"/></g></g><path class="foreground" aria-hidden="true" d="" pointer-events="none" display="none"/></g></g><g class="mark-group role-axis" role="graphics-symbol" aria-roledescription="axis" aria-label="X-axis titled 'Percent of Cases Assigned, Not Interviewed' for a linear scale with values from 0 to 45"><g transform="translate(0.5,280.5)"><path class="background" aria-hidden="true" d="M0,0h0v0h0Z" pointer-events="none"/><g><g class="mark-rule role-axis-tick" pointer-events="none"><line transform="translate(0,0)" x2="0" y2="5" stroke="#888" stroke-width="1" opacity="1"/><line transform="translate(33,0)" x2="0" y2="5" stroke="#888" stroke-width="1" opacity="1"/><line transform="translate(67,0)" x2="0" y2="5" stroke="#888" stroke-width="1" opacity="1"/><line transform="translate(100,0)" x2="0" y2="5" stroke="#888" stroke-width="1" opacity="1"/><line transform="translate(133,0)" x2="0" y2="5" stroke="#888" stroke-width="1" opacity="1"/><line transform="translate(167,0)" x2="0" y2="5" stroke="#888" stroke-width="1" opacity="1"/><line transform="translate(200,0)" x2="0" y2="5" stroke="#888" stroke-width="1" opacity="1"/><line transform="translate(233,0)" x2="0" y2="5" stroke="#888" stroke-width="1" opacity="1"/><line transform="translate(267,0)" x2="0" y2="5" stroke="#888" stroke-width="1" opacity="1"/><line transform="translate(300,0)" x2="0" y2="5" stroke="#888" stroke-width="1" opacity="1"/></g><g class="mark-text role-axis-label" pointer-events="none"><text text-anchor="start" transform="translate(0,15)" font-family="sans-serif" font-size="10px" fill="#000" opacity="1">0</text><text text-anchor="middle" transform="translate(33.33333333333333,15)" font-family="sans-serif" font-size="10px" fill="#000" opacity="1">5</text><text text-anchor="middle" transform="translate(66.66666666666666,15)" font-family="sans-serif" font-size="10px" fill="#000" opacity="1">10</text><text text-anchor="middle" transform="translate(100,15)" font-family="sans-serif" font-size="10px" fill="#000" opacity="1">15</text><text text-anchor="middle" transform="translate(133.33333333333331,15)" font-family="sans-serif" font-size="10px" fill="#000" opacity="1">20</text><text text-anchor="middle" transform="translate(166.66666666666669,15)" font-family="sans-serif" font-size="10px" fill="#000" opacity="1">25</text><text text-anchor="middle" transform="translate(200,15)" font-family="sans-serif" font-size="10px" fill="#000" opacity="1">30</text><text text-anchor="middle" transform="translate(233.33333333333334,15)" font-family="sans-serif" font-size="10px" fill="#000" opacity="1">35</text><text text-anchor="middle" transform="translate(266.66666666666663,15)" font-family="sans-serif" font-size="10px" fill="#000" opacity="1">40</text><text text-anchor="end" transform="translate(300,15)" font-family="sans-serif" font-size="10px" fill="#000" opacity="1">45</text></g><g class="mark-rule role-axis-domain" pointer-events="none"><line transform="translate(0,0)" x2="300" y2="0" stroke="#888" stroke-width="1" opacity="1"/></g><g class="mark-text role-axis-title" pointer-events="none"><text text-anchor="middle" transform="translate(150,30)" font-family="sans-serif" font-size="11px" font-weight="bold" fill="#000" opacity="1">Percent of Cases Assigned, Not Interviewed</text></g></g><path class="foreground" aria-hidden="true" d="" pointer-events="none" display="none"/></g></g><g class="mark-group role-axis" role="graphics-symbol" aria-roledescription="axis" aria-label="Y-axis titled 'Study Summary' for a discrete scale with 14 values: CA 2021-01-01-07/31/2021, Chicago 2020-12-27-04/24/2021, Maricopa 2020-06-30-07/30/2020, Maryland 2020-06-15-08/28/2021, New Haven 2020-04-04-05/19/2020, ending with  Connecticut 2021-03-23-05/31/2021"><g transform="translate(0.5,0.5)"><path class="background" aria-hidden="true" d="M0,0h0v0h0Z" pointer-events="none"/><g><g class="mark-rule role-axis-tick" pointer-events="none"><line transform="translate(0,10)" x2="-5" y2="0" stroke="#888" stroke-width="1" opacity="1"/><line transform="translate(0,30)" x2="-5" y2="0" stroke="#888" stroke-width="1" opacity="1"/><line transform="translate(0,50)" x2="-5" y2="0" stroke="#888" stroke-width="1" opacity="1"/><line transform="translate(0,70)" x2="-5" y2="0" stroke="#888" stroke-width="1" opacity="1"/><line transform="translate(0,90)" x2="-5" y2="0" stroke="#888" stroke-width="1" opacity="1"/><line transform="translate(0,110)" x2="-5" y2="0" stroke="#888" stroke-width="1" opacity="1"/><line transform="translate(0,130)" x2="-5" y2="0" stroke="#888" stroke-width="1" opacity="1"/><line transform="translate(0,150)" x2="-5" y2="0" stroke="#888" stroke-width="1" opacity="1"/><line transform="translate(0,170)" x2="-5" y2="0" stroke="#888" stroke-width="1" opacity="1"/><line transform="translate(0,190)" x2="-5" y2="0" stroke="#888" stroke-width="1" opacity="1"/><line transform="translate(0,210)" x2="-5" y2="0" stroke="#888" stroke-width="1" opacity="1"/><line transform="translate(0,230)" x2="-5" y2="0" stroke="#888" stroke-width="1" opacity="1"/><line transform="translate(0,250)" x2="-5" y2="0" stroke="#888" stroke-width="1" opacity="1"/><line transform="translate(0,270)" x2="-5" y2="0" stroke="#888" stroke-width="1" opacity="1"/></g><g class="mark-text role-axis-label" pointer-events="none"><text text-anchor="end" transform="translate(-7,13)" font-family="sans-serif" font-size="10px" fill="#000" opacity="1">CA 2021-01-01-07/31/2021</text><text text-anchor="end" transform="translate(-7,33)" font-family="sans-serif" font-size="10px" fill="#000" opacity="1">Chicago 2020-12-27-04/24/2021</text><text text-anchor="end" transform="translate(-7,53)" font-family="sans-serif" font-size="10px" fill="#000" opacity="1">Maricopa 2020-06-30-07/30/2020</text><text text-anchor="end" transform="translate(-7,73)" font-family="sans-serif" font-size="10px" fill="#000" opacity="1">Maryland 2020-06-15-08/28/2021</text><text text-anchor="end" transform="translate(-7,93)" font-family="sans-serif" font-size="10px" fill="#000" opacity="1">New Haven 2020-04-04-05/19/2020</text><text text-anchor="end" transform="translate(-7,113)" font-family="sans-serif" font-size="10px" fill="#000" opacity="1">New York City 2020-06-01-10/31/2021</text><text text-anchor="end" transform="translate(-7,133)" font-family="sans-serif" font-size="10px" fill="#000" opacity="1">New York City 2020-07-09-12/31/2020</text><text text-anchor="end" transform="translate(-7,153)" font-family="sans-serif" font-size="10px" fill="#000" opacity="1">North Carolina 2021-01-01-01/31/2021</text><text text-anchor="end" transform="translate(-7,173)" font-family="sans-serif" font-size="10px" fill="#000" opacity="1">Philadelphia 2021-06-23-08/17/2021</text><text text-anchor="end" transform="translate(-7,193)" font-family="sans-serif" font-size="10px" fill="#000" opacity="1">Philadelphia 2021-09-01-10/26/2021</text><text text-anchor="end" transform="translate(-7,213)" font-family="sans-serif" font-size="10px" fill="#000" opacity="1">WA 2020-08-01-08/31/2020</text><text text-anchor="end" transform="translate(-7,233)" font-family="sans-serif" font-size="10px" fill="#000" opacity="1">WA 2020-10-01-10/31/2020</text><text text-anchor="end" transform="translate(-7,253)" font-family="sans-serif" font-size="10px" fill="#000" opacity="1">central WA 2020-06-15-07/12/2020</text><text text-anchor="end" transform="translate(-7,273)" font-family="sans-serif" font-size="10px" fill="#000" opacity="1">Connecticut 2021-03-23-05/31/2021</text></g><g class="mark-rule role-axis-domain" pointer-events="none"><line transform="translate(0,0)" x2="0" y2="280" stroke="#888" stroke-width="1" opacity="1"/></g><g class="mark-text role-axis-title" pointer-events="none"><text text-anchor="middle" transform="translate(-182.7822265625,140) rotate(-90) translate(0,-2)" font-family="sans-serif" font-size="11px" font-weight="bold" fill="#000" opacity="1">Study Summary</text></g></g><path class="foreground" aria-hidden="true" d="" pointer-events="none" display="none"/></g></g><g class="mark-symbol role-mark marks" role="graphics-object" aria-roledescription="symbol mark container"><path aria-label="Percent of Cases Assigned, Not Interviewed: 20.99; Study Summary: Maryland 2020-06-15-08/28/2021; Count of Cases Assigned: 498739" role="graphics-symbol" aria-roledescription="point" transform="translate(139.9333333333333,70)" d="M6.95,0A6.95,6.95,0,1,1,-6.95,0A6.95,6.95,0,1,1,6.95,0" stroke="#4c78a8" stroke-width="2" opacity="0.7"/><path aria-label="Percent of Cases Assigned, Not Interviewed: 24.64; Study Summary: Philadelphia 2021-06-23-08/17/2021; Count of Cases Assigned: 7544" role="graphics-symbol" aria-roledescription="point" transform="translate(164.26666666666668,170)" d="M1.31,0A1.31,1.31,0,1,1,-1.31,0A1.31,1.31,0,1,1,1.31,0" stroke="#4c78a8" stroke-width="2" opacity="0.7"/><path aria-label="Percent of Cases Assigned, Not Interviewed: 40.37; Study Summary: Philadelphia 2021-09-01-10/26/2021; Count of Cases Assigned: 15681" role="graphics-symbol" aria-roledescription="point" transform="translate(269.1333333333333,190)" d="M1.577,0A1.577,1.577,0,1,1,-1.577,0A1.577,1.577,0,1,1,1.577,0" stroke="#4c78a8" stroke-width="2" opacity="0.7"/><path aria-label="Percent of Cases Assigned, Not Interviewed: 39.14; Study Summary: North Carolina 2021-01-01-01/31/2021; Count of Cases Assigned: 200258" role="graphics-symbol" aria-roledescription="point" transform="translate(260.93333333333334,150)" d="M4.471,0A4.471,4.471,0,1,1,-4.471,0A4.471,4.471,0,1,1,4.471,0" stroke="#4c78a8" stroke-width="2" opacity="0.7"/><path aria-label="Percent of Cases Assigned, Not Interviewed: 19.91; Study Summary: central WA 2020-06-15-07/12/2020; Count of Cases Assigned: 4987" role="graphics-symbol" aria-roledescription="point" transform="translate(132.73333333333335,250)" d="M1.214,0A1.214,1.214,0,1,1,-1.214,0A1.214,1.214,0,1,1,1.214,0" stroke="#4c78a8" stroke-width="2" opacity="0.7"/><path aria-label="Percent of Cases Assigned, Not Interviewed: 10.64; Study Summary: New York City 2020-06-01-10/31/2021; Count of Cases Assigned: 941035" role="graphics-symbol" aria-roledescription="point" transform="translate(70.93333333333334,110)" d="M9.5,0A9.5,9.5,0,1,1,-9.5,0A9.5,9.5,0,1,1,9.5,0" stroke="#4c78a8" stroke-width="2" opacity="0.7"/><path aria-label="Percent of Cases Assigned, Not Interviewed: 22.46; Study Summary: WA 2020-08-01-08/31/2020; Count of Cases Assigned: 4600" role="graphics-symbol" aria-roledescription="point" transform="translate(149.73333333333335,210)" d="M1.198,0A1.198,1.198,0,1,1,-1.198,0A1.198,1.198,0,1,1,1.198,0" stroke="#4c78a8" stroke-width="2" opacity="0.7"/><path aria-label="Percent of Cases Assigned, Not Interviewed: 17.27; Study Summary: WA 2020-10-01-10/31/2020; Count of Cases Assigned: 2166" role="graphics-symbol" aria-roledescription="point" transform="translate(115.13333333333333,230)" d="M1.098,0A1.098,1.098,0,1,1,-1.098,0A1.098,1.098,0,1,1,1.098,0" stroke="#4c78a8" stroke-width="2" opacity="0.7"/><path aria-label="Percent of Cases Assigned, Not Interviewed: 42.08; Study Summary:  Connecticut 2021-03-23-05/31/2021; Count of Cases Assigned: 43116" role="graphics-symbol" aria-roledescription="point" transform="translate(280.53333333333336,270)" d="M2.256,0A2.256,2.256,0,1,1,-2.256,0A2.256,2.256,0,1,1,2.256,0" stroke="#4c78a8" stroke-width="2" opacity="0.7"/><path aria-label="Percent of Cases Assigned, Not Interviewed: 11.06; Study Summary: New York City 2020-07-09-12/31/2020; Count of Cases Assigned: 94704" role="graphics-symbol" aria-roledescription="point" transform="translate(73.73333333333333,130)" d="M3.159,0A3.159,3.159,0,1,1,-3.159,0A3.159,3.159,0,1,1,3.159,0" stroke="#4c78a8" stroke-width="2" opacity="0.7"/><path aria-label="Percent of Cases Assigned, Not Interviewed: 28.41; Study Summary: CA 2021-01-01-07/31/2021; Count of Cases Assigned: 9391" role="graphics-symbol" aria-roledescription="point" transform="translate(189.39999999999998,10)" d="M1.375,0A1.375,1.375,0,1,1,-1.375,0A1.375,1.375,0,1,1,1.375,0" stroke="#4c78a8" stroke-width="2" opacity="0.7"/><path aria-label="Percent of Cases Assigned, Not Interviewed: 43.12; Study Summary: New Haven 2020-04-04-05/19/2020; Count of Cases Assigned: 1686" role="graphics-symbol" aria-roledescription="point" transform="translate(287.46666666666664,90)" d="M1.077,0A1.077,1.077,0,1,1,-1.077,0A1.077,1.077,0,1,1,1.077,0" stroke="#4c78a8" stroke-width="2" opacity="0.7"/><path aria-label="Percent of Cases Assigned, Not Interviewed: 42.84; Study Summary: Chicago 2020-12-27-04/24/2021; Count of Cases Assigned: 65470" role="graphics-symbol" aria-roledescription="point" transform="translate(285.6,30)" d="M2.685,0A2.685,2.685,0,1,1,-2.685,0A2.685,2.685,0,1,1,2.685,0" stroke="#4c78a8" stroke-width="2" opacity="0.7"/><path aria-label="Percent of Cases Assigned, Not Interviewed: 12.03; Study Summary: Maricopa 2020-06-30-07/30/2020; Count of Cases Assigned: 58570" role="graphics-symbol" aria-roledescription="point" transform="translate(80.19999999999999,50)" d="M2.56,0A2.56,2.56,0,1,1,-2.56,0A2.56,2.56,0,1,1,2.56,0" stroke="#4c78a8" stroke-width="2" opacity="0.7"/></g><g class="mark-group role-legend" role="graphics-symbol" aria-roledescription="legend" aria-label="Symbol legend titled 'Count of Cases Assigned' for size with values from 0 to 941,035"><g transform="translate(318,0)"><path class="background" aria-hidden="true" d="M0,0h134v104h-134Z" pointer-events="none"/><g><g class="mark-group role-legend-entry"><g transform="translate(0,16)"><path class="background" aria-hidden="true" d="M0,0h0v0h0Z" pointer-events="none"/><g><g class="mark-group role-scope" role="graphics-object" aria-roledescription="group mark container"><g transform="translate(0,0)"><path class="background" aria-hidden="true" d="M0,0h60.1474609375v10h-60.1474609375Z" pointer-events="none" opacity="1"/><g><g class="mark-symbol role-legend-symbol" pointer-events="none"><path transform="translate(10,5)" d="M1,0A1,1,0,1,1,-1,0A1,1,0,1,1,1,0" stroke="#4c78a8" stroke-width="1.5" opacity="0.7"/></g><g class="mark-text role-legend-label" pointer-events="none"><text text-anchor="start" transform="translate(24,8)" font-family="sans-serif" font-size="10px" fill="#000" opacity="1">0</text></g></g><path class="foreground" aria-hidden="true" d="" pointer-events="none" display="none"/></g><g transform="translate(0,13)"><path class="background" aria-hidden="true" d="M0,0h60.1474609375v11.468610097007645h-60.1474609375Z" pointer-events="none" opacity="1"/><g><g class="mark-symbol role-legend-symbol" pointer-events="none"><path transform="translate(10,5.5)" d="M4.469,0A4.469,4.469,0,1,1,-4.469,0A4.469,4.469,0,1,1,4.469,0" stroke="#4c78a8" stroke-width="1.5" opacity="0.7"/></g><g class="mark-text role-legend-label" pointer-events="none"><text text-anchor="start" transform="translate(24,8.5)" font-family="sans-serif" font-size="10px" fill="#000" opacity="1">200,000</text></g></g><path class="foreground" aria-hidden="true" d="" pointer-events="none" display="none"/></g><g transform="translate(0,28)"><path class="background" aria-hidden="true" d="M0,0h60.1474609375v14.739948108610946h-60.1474609375Z" pointer-events="none" opacity="1"/><g><g class="mark-symbol role-legend-symbol" pointer-events="none"><path transform="translate(10,7)" d="M6.24,0A6.24,6.24,0,1,1,-6.24,0A6.24,6.24,0,1,1,6.24,0" stroke="#4c78a8" stroke-width="1.5" opacity="0.7"/></g><g class="mark-text role-legend-label" pointer-events="none"><text text-anchor="start" transform="translate(24,10)" font-family="sans-serif" font-size="10px" fill="#000" opacity="1">400,000</text></g></g><path class="foreground" aria-hidden="true" d="" pointer-events="none" display="none"/></g><g transform="translate(0,46)"><path class="background" aria-hidden="true" d="M0,0h60.1474609375v17.60956165605063h-60.1474609375Z" pointer-events="none" opacity="1"/><g><g class="mark-symbol role-legend-symbol" pointer-events="none"><path transform="translate(10,8.5)" d="M7.61,0A7.61,7.61,0,1,1,-7.61,0A7.61,7.61,0,1,1,7.61,0" stroke="#4c78a8" stroke-width="1.5" opacity="0.7"/></g><g class="mark-text role-legend-label" pointer-events="none"><text text-anchor="start" transform="translate(24,11.5)" font-family="sans-serif" font-size="10px" fill="#000" opacity="1">600,000</text></g></g><path class="foreground" aria-hidden="true" d="" pointer-events="none" display="none"/></g><g transform="translate(0,67)"><path class="background" aria-hidden="true" d="M0,0h60.1474609375v20.267776502415813h-60.1474609375Z" pointer-events="none" opacity="1"/><g><g class="mark-symbol role-legend-symbol" pointer-events="none"><path transform="translate(10,10)" d="M8.768,0A8.768,8.768,0,1,1,-8.768,0A8.768,8.768,0,1,1,8.768,0" stroke="#4c78a8" stroke-width="1.5" opacity="0.7"/></g><g class="mark-text role-legend-label" pointer-events="none"><text text-anchor="start" transform="translate(24,13)" font-family="sans-serif" font-size="10px" fill="#000" opacity="1">800,000</text></g></g><path class="foreground" aria-hidden="true" d="" pointer-events="none" display="none"/></g></g></g><path class="foreground" aria-hidden="true" d="" pointer-events="none" display="none"/></g></g><g class="mark-text role-legend-title" pointer-events="none"><text text-anchor="start" transform="translate(0,9)" font-family="sans-serif" font-size="11px" font-weight="bold" fill="#000" opacity="1">Count of Cases Assigned</text></g></g><path class="foreground" aria-hidden="true" d="" pointer-events="none" display="none"/></g></g></g><path class="foreground" aria-hidden="true" d="" display="none"/></g></g></g></svg>