<svg xmlns="http://www.w3.org/2000/svg" xmlns:xlink="http://www.w3.org/1999/xlink" version="1.1" class="marks" width="677" height="542" viewBox="0 0 677 542"><rect width="677" height="542" fill="white"/><g fill="none" stroke-miterlimit="10" transform="translate(207,5)"><g class="mark-group role-frame root" role="graphics-object" aria-roledescription="group mark container"><g transform="translate(0,0)"><path class="background" aria-hidden="true" d="M0.5,0.5h300v500h-300Z" stroke="#ddd"/><g><g class="mark-group role-axis" aria-hidden="true"><g transform="translate(0.5,500.5)"><path class="background" aria-hidden="true" d="M0,0h0v0h0Z" pointer-events="none"/><g><g class="mark-rule role-axis-grid" pointer-events="none"><line transform="translate(0,0)" x2="0" y2="-500" stroke="#ddd" stroke-width="1" opacity="1"/><line transform="translate(30,0)" x2="0" y2="-500" stroke="#ddd" stroke-width="1" opacity="1"/><line transform="translate(60,0)" x2="0" y2="-500" stroke="#ddd" stroke-width="1" opacity="1"/><line transform="translate(90,0)" x2="0" y2="-500" stroke="#ddd" stroke-width="1" opacity="1"/><line transform="translate(120,0)" x2="0" y2="-500" stroke="#ddd" stroke-width="1" opacity="1"/><line transform="translate(150,0)" x2="0" y2="-500" stroke="#ddd" stroke-width="1" opacity="1"/><line transform="translate(180,0)" x2="0" y2="-500" stroke="#ddd" stroke-width="1" opacity="1"/><line transform="translate(210,0)" x2="0" y2="-500" stroke="#ddd" stroke-width="1" opacity="1"/><line transform="translate(240,0)" x2="0" y2="-500" stroke="#ddd" stroke-width="1" opacity="1"/><line transform="translate(270,0)" x2="0" y2="-500" stroke="#ddd" stroke-width="1" opacity="1"/><line transform="translate(300,0)" x2="0" y2="-500" stroke="#ddd" stroke-width="1" opacity="1"/></g></g><path class="foreground" aria-hidden="true" d="" pointer-events="none" display="none"/></g></g><g class="mark-group role-axis" role="graphics-symbol" aria-roledescription="axis" aria-label="X-axis titled 'Percent' for a linear scale with values from 0 to 100"><g transform="translate(0.5,500.5)"><path class="background" aria-hidden="true" d="M0,0h0v0h0Z" pointer-events="none"/><g><g class="mark-rule role-axis-tick" pointer-events="none"><line transform="translate(0,0)" x2="0" y2="5" stroke="#888" stroke-width="1" opacity="1"/><line transform="translate(30,0)" x2="0" y2="5" stroke="#888" stroke-width="1" opacity="1"/><line transform="translate(60,0)" x2="0" y2="5" stroke="#888" stroke-width="1" opacity="1"/><line transform="translate(90,0)" x2="0" y2="5" stroke="#888" stroke-width="1" opacity="1"/><line transform="translate(120,0)" x2="0" y2="5" stroke="#888" stroke-width="1" opacity="1"/><line transform="translate(150,0)" x2="0" y2="5" stroke="#888" stroke-width="1" opacity="1"/><line transform="translate(180,0)" x2="0" y2="5" stroke="#888" stroke-width="1" opacity="1"/><line transform="translate(210,0)" x2="0" y2="5" stroke="#888" stroke-width="1" opacity="1"/><line transform="translate(240,0)" x2="0" y2="5" stroke="#888" stroke-width="1" opacity="1"/><line transform="translate(270,0)" x2="0" y2="5" stroke="#888" stroke-width="1" opacity="1"/><line transform="translate(300,0)" x2="0" y2="5" stroke="#888" stroke-width="1" opacity="1"/></g><g class="mark-text role-axis-label" pointer-events="none"><text text-anchor="start" transform="translate(0,15)" font-family="sans-serif" font-size="10px" fill="#000" opacity="1">0</text><text text-anchor="middle" transform="translate(30,15)" font-family="sans-serif" font-size="10px" fill="#000" opacity="1">10</text><text text-anchor="middle" transform="translate(60,15)" font-family="sans-serif" font-size="10px" fill="#000" opacity="1">20</text><text text-anchor="middle" transform="translate(90,15)" font-family="sans-serif" font-size="10px" fill="#000" opacity="1">30</text><text text-anchor="middle" transform="translate(120,15)" font-family="sans-serif" font-size="10px" fill="#000" opacity="1">40</text><text text-anchor="middle" transform="translate(150,15)" font-family="sans-serif" font-size="10px" fill="#000" opacity="1">50</text><text text-anchor="middle" transform="translate(180,15)" font-family="sans-serif" font-size="10px" fill="#000" opacity="1">60</text><text text-anchor="middle" transform="translate(210,15)" font-family="sans-serif" font-size="10px" fill="#000" opacity="1">70</text><text text-anchor="middle" transform="translate(240,15)" font-family="sans-serif" font-size="10px" fill="#000" opacity="1">80</text><text text-anchor="middle" transform="translate(270,15)" font-family="sans-serif" font-size="10px" fill="#000" opacity="1">90</text><text text-anchor="end" transform="translate(300,15)" font-family="sans-serif" font-size="10px" fill="#000" opacity="1">100</text></g><g class="mark-rule role-axis-domain" pointer-events="none"><line transform="translate(0,0)" x2="300" y2="0" stroke="#888" stroke-width="1" opacity="1"/></g><g class="mark-text role-axis-title" pointer-events="none"><text text-anchor="middle" transform="translate(150,30)" font-family="sans-serif" font-size="11px" font-weight="bold" fill="#000" opacity="1">Percent</text></g></g><path class="foreground" aria-hidden="true" d="" pointer-events="none" display="none"/></g></g><g class="mark-group role-axis" role="graphics-symbol" aria-roledescription="axis" aria-label="Y-axis titled 'Data Source' for a discrete scale with 25 values: A Multifaceted Evaluation of a COVID-19 Contact Tracing Program in King County, Washington., A State Health Department and Health Information Exchange Partnership: An Effective Collaboration for a Data-Driven Response for COVID-19 Contact Tracing  in Maryland., A Web-Based Digital Contact Tracing Strategy Addresses Stigma Concerns Among Individuals Evaluated for COVID-19., Adapting COVID-19 Contact Tracing Protocols to Accommodate Resource Constraints, Philadelphia, Pennsylvania, USA, 2021., An Academic-Health Department Community Partnership to Expand Disease Investigation and Contact Tracing Capacity and Efficiency During the COVID-19  Pandemic., ending with Using Automation, Prioritization, and Collaboration to Manage a COVID-19 Case Surge in Maricopa County, Arizona, 2020."><g transform="translate(0.5,0.5)"><path class="background" aria-hidden="true" d="M0,0h0v0h0Z" pointer-events="none"/><g><g class="mark-rule role-axis-tick" pointer-events="none"><line transform="translate(0,10)" x2="-5" y2="0" stroke="#888" stroke-width="1" opacity="1"/><line transform="translate(0,30)" x2="-5" y2="0" stroke="#888" stroke-width="1" opacity="1"/><line transform="translate(0,50)" x2="-5" y2="0" stroke="#888" stroke-width="1" opacity="1"/><line transform="translate(0,70)" x2="-5" y2="0" stroke="#888" stroke-width="1" opacity="1"/><line transform="translate(0,90)" x2="-5" y2="0" stroke="#888" stroke-width="1" opacity="1"/><line transform="translate(0,110)" x2="-5" y2="0" stroke="#888" stroke-width="1" opacity="1"/><line transform="translate(0,130)" x2="-5" y2="0" stroke="#888" stroke-width="1" opacity="1"/><line transform="translate(0,150)" x2="-5" y2="0" stroke="#888" stroke-width="1" opacity="1"/><line transform="translate(0,170)" x2="-5" y2="0" stroke="#888" stroke-width="1" opacity="1"/><line transform="translate(0,190)" x2="-5" y2="0" stroke="#888" stroke-width="1" opacity="1"/><line transform="translate(0,210)" x2="-5" y2="0" stroke="#888" stroke-width="1" opacity="1"/><line transform="translate(0,230)" x2="-5" y2="0" stroke="#888" stroke-width="1" opacity="1"/><line transform="translate(0,250)" x2="-5" y2="0" stroke="#888" stroke-width="1" opacity="1"/><line transform="translate(0,270)" x2="-5" y2="0" stroke="#888" stroke-width="1" opacity="1"/><line transform="translate(0,290)" x2="-5" y2="0" stroke="#888" stroke-width="1" opacity="1"/><line transform="translate(0,310)" x2="-5" y2="0" stroke="#888" stroke-width="1" opacity="1"/><line transform="translate(0,330)" x2="-5" y2="0" stroke="#888" stroke-width="1" opacity="1"/><line transform="translate(0,350)" x2="-5" y2="0" stroke="#888" stroke-width="1" opacity="1"/><line transform="translate(0,370)" x2="-5" y2="0" stroke="#888" stroke-width="1" opacity="1"/><line transform="translate(0,390)" x2="-5" y2="0" stroke="#888" stroke-width="1" opacity="1"/><line transform="translate(0,410)" x2="-5" y2="0" stroke="#888" stroke-width="1" opacity="1"/><line transform="translate(0,430)" x2="-5" y2="0" stroke="#888" stroke-width="1" opacity="1"/><line transform="translate(0,450)" x2="-5" y2="0" stroke="#888" stroke-width="1" opacity="1"/><line transform="translate(0,470)" x2="-5" y2="0" stroke="#888" stroke-width="1" opacity="1"/><line transform="translate(0,490)" x2="-5" y2="0" stroke="#888" stroke-width="1" opacity="1"/></g><g class="mark-text role-axis-label" pointer-events="none"><text text-anchor="end" transform="translate(-7,13)" font-family="sans-serif" font-size="10px" fill="#000" opacity="1">A Multifaceted Evaluation of a COVID…</text><text text-anchor="end" transform="translate(-7,33)" font-family="sans-serif" font-size="10px" fill="#000" opacity="1">A State Health Department and Healt…</text><text text-anchor="end" transform="translate(-7,53)" font-family="sans-serif" font-size="10px" fill="#000" opacity="1">A Web-Based Digital Contact Tracing …</text><text text-anchor="end" transform="translate(-7,73)" font-family="sans-serif" font-size="10px" fill="#000" opacity="1">Adapting COVID-19 Contact Tracing …</text><text text-anchor="end" transform="translate(-7,93)" font-family="sans-serif" font-size="10px" fill="#000" opacity="1">An Academic-Health Department Co…</text><text text-anchor="end" transform="translate(-7,113)" font-family="sans-serif" font-size="10px" fill="#000" opacity="1">Automated Digital Notification of COVI…</text><text text-anchor="end" transform="translate(-7,133)" font-family="sans-serif" font-size="10px" fill="#000" opacity="1">COVID-19 Case Investigation and Co…</text><text text-anchor="end" transform="translate(-7,153)" font-family="sans-serif" font-size="10px" fill="#000" opacity="1">COVID-19 Case Investigation and Co…</text><text text-anchor="end" transform="translate(-7,173)" font-family="sans-serif" font-size="10px" fill="#000" opacity="1">COVID-19 Case Investigation and Co…</text><text text-anchor="end" transform="translate(-7,193)" font-family="sans-serif" font-size="10px" fill="#000" opacity="1">COVID-19 Contact Tracing Outcomes…</text><text text-anchor="end" transform="translate(-7,213)" font-family="sans-serif" font-size="10px" fill="#000" opacity="1">COVID-19 Contact Tracing in Two Co…</text><text text-anchor="end" transform="translate(-7,233)" font-family="sans-serif" font-size="10px" fill="#000" opacity="1">Case Investigation and Contact Tracin…</text><text text-anchor="end" transform="translate(-7,253)" font-family="sans-serif" font-size="10px" fill="#000" opacity="1">Centering Health Equity Within COVI…</text><text text-anchor="end" transform="translate(-7,273)" font-family="sans-serif" font-size="10px" fill="#000" opacity="1">Community-Based Workforce for COV…</text><text text-anchor="end" transform="translate(-7,293)" font-family="sans-serif" font-size="10px" fill="#000" opacity="1">Coronavirus Disease Contact Tracing …</text><text text-anchor="end" transform="translate(-7,313)" font-family="sans-serif" font-size="10px" fill="#000" opacity="1">Declines in SARS-CoV-2 Transmissio…</text><text text-anchor="end" transform="translate(-7,333)" font-family="sans-serif" font-size="10px" fill="#000" opacity="1">Factors Influencing the Results of CO…</text><text text-anchor="end" transform="translate(-7,353)" font-family="sans-serif" font-size="10px" fill="#000" opacity="1">Implementation of close contact elicita…</text><text text-anchor="end" transform="translate(-7,373)" font-family="sans-serif" font-size="10px" fill="#000" opacity="1">Integrating Contact Tracers Into Point-…</text><text text-anchor="end" transform="translate(-7,393)" font-family="sans-serif" font-size="10px" fill="#000" opacity="1">Lessons Learned From COVID-19 Co…</text><text text-anchor="end" transform="translate(-7,413)" font-family="sans-serif" font-size="10px" fill="#000" opacity="1">Lessons Learned from the Launch an…</text><text text-anchor="end" transform="translate(-7,433)" font-family="sans-serif" font-size="10px" fill="#000" opacity="1">Outcomes of Contact Tracing in San F…</text><text text-anchor="end" transform="translate(-7,453)" font-family="sans-serif" font-size="10px" fill="#000" opacity="1">The public health impact of COVID-19…</text><text text-anchor="end" transform="translate(-7,473)" font-family="sans-serif" font-size="10px" fill="#000" opacity="1">Unified Response to COVID-19 Case …</text><text text-anchor="end" transform="translate(-7,493)" font-family="sans-serif" font-size="10px" fill="#000" opacity="1">Using Automation, Prioritization, and …</text></g><g class="mark-rule role-axis-domain" pointer-events="none"><line transform="translate(0,0)" x2="0" y2="500" stroke="#888" stroke-width="1" opacity="1"/></g><g class="mark-text role-axis-title" pointer-events="none"><text text-anchor="middle" transform="translate(-190.70703125,250) rotate(-90) translate(0,-2)" font-family="sans-serif" font-size="11px" font-weight="bold" fill="#000" opacity="1">Data Source</text></g></g><path class="foreground" aria-hidden="true" d="" pointer-events="none" display="none"/></g></g><g class="mark-symbol role-mark marks" role="graphics-object" aria-roledescription="symbol mark container"><path aria-label="Percent: 76; Data Source: A Multifaceted Evaluation of a COVID-19 Contact Tracing Program in King County, Washington.; Reached: Percent of Cases Interviewed" role="graphics-symbol" aria-roledescription="point" transform="translate(228,10)" d="M2.739,0A2.739,2.739,0,1,1,-2.739,0A2.739,2.739,0,1,1,2.739,0" stroke="#4c78a8" stroke-width="2" opacity="0.7"/><path aria-label="Percent: 82; Data Source: A Multifaceted Evaluation of a COVID-19 Contact Tracing Program in King County, Washington.; Reached: Percent of Cases Interviewed" role="graphics-symbol" aria-roledescription="point" transform="translate(245.99999999999997,10)" d="M2.739,0A2.739,2.739,0,1,1,-2.739,0A2.739,2.739,0,1,1,2.739,0" stroke="#4c78a8" stroke-width="2" opacity="0.7"/><path aria-label="Percent: 87; Data Source: A Multifaceted Evaluation of a COVID-19 Contact Tracing Program in King County, Washington.; Reached: Percent of Cases Interviewed" role="graphics-symbol" aria-roledescription="point" transform="translate(261,10)" d="M2.739,0A2.739,2.739,0,1,1,-2.739,0A2.739,2.739,0,1,1,2.739,0" stroke="#4c78a8" stroke-width="2" opacity="0.7"/><path aria-label="Percent: 70.65; Data Source: A State Health Department and Health Information Exchange Partnership: An Effective Collaboration for a Data-Driven Response for COVID-19 Contact Tracing  in Maryland.; Reached: Percent of Cases Interviewed" role="graphics-symbol" aria-roledescription="point" transform="translate(211.95000000000002,30)" d="M2.739,0A2.739,2.739,0,1,1,-2.739,0A2.739,2.739,0,1,1,2.739,0" stroke="#4c78a8" stroke-width="2" opacity="0.7"/><path aria-label="Percent: 42.05; Data Source: Adapting COVID-19 Contact Tracing Protocols to Accommodate Resource Constraints, Philadelphia, Pennsylvania, USA, 2021.; Reached: Percent of Cases Interviewed" role="graphics-symbol" aria-roledescription="point" transform="translate(126.14999999999999,70)" d="M2.739,0A2.739,2.739,0,1,1,-2.739,0A2.739,2.739,0,1,1,2.739,0" stroke="#4c78a8" stroke-width="2" opacity="0.7"/><path aria-label="Percent: 28.93; Data Source: Adapting COVID-19 Contact Tracing Protocols to Accommodate Resource Constraints, Philadelphia, Pennsylvania, USA, 2021.; Reached: Percent of Cases Interviewed" role="graphics-symbol" aria-roledescription="point" transform="translate(86.79,70)" d="M2.739,0A2.739,2.739,0,1,1,-2.739,0A2.739,2.739,0,1,1,2.739,0" stroke="#4c78a8" stroke-width="2" opacity="0.7"/><path aria-label="Percent: 71; Data Source: COVID-19 Case Investigation and Contact Tracing in Central Washington State, June-July 2020.; Reached: Percent of Cases Interviewed" role="graphics-symbol" aria-roledescription="point" transform="translate(213,130)" d="M2.739,0A2.739,2.739,0,1,1,-2.739,0A2.739,2.739,0,1,1,2.739,0" stroke="#4c78a8" stroke-width="2" opacity="0.7"/><path aria-label="Percent: 75.6; Data Source: COVID-19 Case Investigation and Contact Tracing in New York City, June 1, 2020, to October 31, 2021.; Reached: Percent of Cases Interviewed" role="graphics-symbol" aria-roledescription="point" transform="translate(226.79999999999995,150)" d="M2.739,0A2.739,2.739,0,1,1,-2.739,0A2.739,2.739,0,1,1,2.739,0" stroke="#4c78a8" stroke-width="2" opacity="0.7"/><path aria-label="Percent: 59.22; Data Source: COVID-19 Case Investigation and Contact Tracing in the US, 2020.; Reached: Percent of Cases Interviewed" role="graphics-symbol" aria-roledescription="point" transform="translate(177.66,170)" d="M2.739,0A2.739,2.739,0,1,1,-2.739,0A2.739,2.739,0,1,1,2.739,0" stroke="#4c78a8" stroke-width="2" opacity="0.7"/><path aria-label="Percent: 100; Data Source: COVID-19 Case Investigation and Contact Tracing in the US, 2020.; Reached: Percent of Cases Interviewed" role="graphics-symbol" aria-roledescription="point" transform="translate(300,170)" d="M2.739,0A2.739,2.739,0,1,1,-2.739,0A2.739,2.739,0,1,1,2.739,0" stroke="#4c78a8" stroke-width="2" opacity="0.7"/><path aria-label="Percent: 99.15; Data Source: COVID-19 Case Investigation and Contact Tracing in the US, 2020.; Reached: Percent of Cases Interviewed" role="graphics-symbol" aria-roledescription="point" transform="translate(297.45,170)" d="M2.739,0A2.739,2.739,0,1,1,-2.739,0A2.739,2.739,0,1,1,2.739,0" stroke="#4c78a8" stroke-width="2" opacity="0.7"/><path aria-label="Percent: 98.63; Data Source: COVID-19 Case Investigation and Contact Tracing in the US, 2020.; Reached: Percent of Cases Interviewed" role="graphics-symbol" aria-roledescription="point" transform="translate(295.89,170)" d="M2.739,0A2.739,2.739,0,1,1,-2.739,0A2.739,2.739,0,1,1,2.739,0" stroke="#4c78a8" stroke-width="2" opacity="0.7"/><path aria-label="Percent: 99.27; Data Source: COVID-19 Case Investigation and Contact Tracing in the US, 2020.; Reached: Percent of Cases Interviewed" role="graphics-symbol" aria-roledescription="point" transform="translate(297.81,170)" d="M2.739,0A2.739,2.739,0,1,1,-2.739,0A2.739,2.739,0,1,1,2.739,0" stroke="#4c78a8" stroke-width="2" opacity="0.7"/><path aria-label="Percent: 91.23; Data Source: COVID-19 Case Investigation and Contact Tracing in the US, 2020.; Reached: Percent of Cases Interviewed" role="graphics-symbol" aria-roledescription="point" transform="translate(273.69,170)" d="M2.739,0A2.739,2.739,0,1,1,-2.739,0A2.739,2.739,0,1,1,2.739,0" stroke="#4c78a8" stroke-width="2" opacity="0.7"/><path aria-label="Percent: 84.55; Data Source: COVID-19 Case Investigation and Contact Tracing in the US, 2020.; Reached: Percent of Cases Interviewed" role="graphics-symbol" aria-roledescription="point" transform="translate(253.64999999999998,170)" d="M2.739,0A2.739,2.739,0,1,1,-2.739,0A2.739,2.739,0,1,1,2.739,0" stroke="#4c78a8" stroke-width="2" opacity="0.7"/><path aria-label="Percent: 82.7; Data Source: COVID-19 Case Investigation and Contact Tracing in the US, 2020.; Reached: Percent of Cases Interviewed" role="graphics-symbol" aria-roledescription="point" transform="translate(248.10000000000002,170)" d="M2.739,0A2.739,2.739,0,1,1,-2.739,0A2.739,2.739,0,1,1,2.739,0" stroke="#4c78a8" stroke-width="2" opacity="0.7"/><path aria-label="Percent: 77.87; Data Source: COVID-19 Case Investigation and Contact Tracing in the US, 2020.; Reached: Percent of Cases Interviewed" role="graphics-symbol" aria-roledescription="point" transform="translate(233.61,170)" d="M2.739,0A2.739,2.739,0,1,1,-2.739,0A2.739,2.739,0,1,1,2.739,0" stroke="#4c78a8" stroke-width="2" opacity="0.7"/><path aria-label="Percent: 77.49; Data Source: COVID-19 Case Investigation and Contact Tracing in the US, 2020.; Reached: Percent of Cases Interviewed" role="graphics-symbol" aria-roledescription="point" transform="translate(232.46999999999997,170)" d="M2.739,0A2.739,2.739,0,1,1,-2.739,0A2.739,2.739,0,1,1,2.739,0" stroke="#4c78a8" stroke-width="2" opacity="0.7"/><path aria-label="Percent: 74.85; Data Source: COVID-19 Case Investigation and Contact Tracing in the US, 2020.; Reached: Percent of Cases Interviewed" role="graphics-symbol" aria-roledescription="point" transform="translate(224.54999999999998,170)" d="M2.739,0A2.739,2.739,0,1,1,-2.739,0A2.739,2.739,0,1,1,2.739,0" stroke="#4c78a8" stroke-width="2" opacity="0.7"/><path aria-label="Percent: 74.03; Data Source: COVID-19 Case Investigation and Contact Tracing in the US, 2020.; Reached: Percent of Cases Interviewed" role="graphics-symbol" aria-roledescription="point" transform="translate(222.08999999999997,170)" d="M2.739,0A2.739,2.739,0,1,1,-2.739,0A2.739,2.739,0,1,1,2.739,0" stroke="#4c78a8" stroke-width="2" opacity="0.7"/><path aria-label="Percent: 48.6; Data Source: COVID-19 Case Investigation and Contact Tracing in the US, 2020.; Reached: Percent of Cases Interviewed" role="graphics-symbol" aria-roledescription="point" transform="translate(145.79999999999998,170)" d="M2.739,0A2.739,2.739,0,1,1,-2.739,0A2.739,2.739,0,1,1,2.739,0" stroke="#4c78a8" stroke-width="2" opacity="0.7"/><path aria-label="Percent: 46.7; Data Source: COVID-19 Case Investigation and Contact Tracing in the US, 2020.; Reached: Percent of Cases Interviewed" role="graphics-symbol" aria-roledescription="point" transform="translate(140.1,170)" d="M2.739,0A2.739,2.739,0,1,1,-2.739,0A2.739,2.739,0,1,1,2.739,0" stroke="#4c78a8" stroke-width="2" opacity="0.7"/><path aria-label="Percent: 32.96; Data Source: COVID-19 Case Investigation and Contact Tracing in the US, 2020.; Reached: Percent of Cases Interviewed" role="graphics-symbol" aria-roledescription="point" transform="translate(98.88,170)" d="M2.739,0A2.739,2.739,0,1,1,-2.739,0A2.739,2.739,0,1,1,2.739,0" stroke="#4c78a8" stroke-width="2" opacity="0.7"/><path aria-label="Percent: 65; Data Source: COVID-19 Contact Tracing Outcomes in Washington State, August and October 2020.; Reached: Percent of Cases Interviewed" role="graphics-symbol" aria-roledescription="point" transform="translate(195,190)" d="M2.739,0A2.739,2.739,0,1,1,-2.739,0A2.739,2.739,0,1,1,2.739,0" stroke="#4c78a8" stroke-width="2" opacity="0.7"/><path aria-label="Percent: 76; Data Source: COVID-19 Contact Tracing Outcomes in Washington State, August and October 2020.; Reached: Percent of Cases Interviewed" role="graphics-symbol" aria-roledescription="point" transform="translate(228,190)" d="M2.739,0A2.739,2.739,0,1,1,-2.739,0A2.739,2.739,0,1,1,2.739,0" stroke="#4c78a8" stroke-width="2" opacity="0.7"/><path aria-label="Percent: 77.49; Data Source: COVID-19 Contact Tracing in Two Counties - North Carolina, June-July 2020.; Reached: Percent of Cases Interviewed" role="graphics-symbol" aria-roledescription="point" transform="translate(232.46999999999997,210)" d="M2.739,0A2.739,2.739,0,1,1,-2.739,0A2.739,2.739,0,1,1,2.739,0" stroke="#4c78a8" stroke-width="2" opacity="0.7"/><path aria-label="Percent: 99.15; Data Source: COVID-19 Contact Tracing in Two Counties - North Carolina, June-July 2020.; Reached: Percent of Cases Interviewed" role="graphics-symbol" aria-roledescription="point" transform="translate(297.45,210)" d="M2.739,0A2.739,2.739,0,1,1,-2.739,0A2.739,2.739,0,1,1,2.739,0" stroke="#4c78a8" stroke-width="2" opacity="0.7"/><path aria-label="Percent: 44.31; Data Source: Case Investigation and Contact Tracing Efforts From Health Departments in the United States, November 2020 to December 2021.; Reached: Percent of Cases Interviewed" role="graphics-symbol" aria-roledescription="point" transform="translate(132.93,230)" d="M2.739,0A2.739,2.739,0,1,1,-2.739,0A2.739,2.739,0,1,1,2.739,0" stroke="#4c78a8" stroke-width="2" opacity="0.7"/><path aria-label="Percent: 50.45; Data Source: Case Investigation and Contact Tracing Efforts From Health Departments in the United States, November 2020 to December 2021.; Reached: Percent of Cases Interviewed" role="graphics-symbol" aria-roledescription="point" transform="translate(151.35000000000002,230)" d="M2.739,0A2.739,2.739,0,1,1,-2.739,0A2.739,2.739,0,1,1,2.739,0" stroke="#4c78a8" stroke-width="2" opacity="0.7"/><path aria-label="Percent: 57.05; Data Source: Case Investigation and Contact Tracing Efforts From Health Departments in the United States, November 2020 to December 2021.; Reached: Percent of Cases Interviewed" role="graphics-symbol" aria-roledescription="point" transform="translate(171.15,230)" d="M2.739,0A2.739,2.739,0,1,1,-2.739,0A2.739,2.739,0,1,1,2.739,0" stroke="#4c78a8" stroke-width="2" opacity="0.7"/><path aria-label="Percent: 55.61; Data Source: Case Investigation and Contact Tracing Efforts From Health Departments in the United States, November 2020 to December 2021.; Reached: Percent of Cases Interviewed" role="graphics-symbol" aria-roledescription="point" transform="translate(166.83,230)" d="M2.739,0A2.739,2.739,0,1,1,-2.739,0A2.739,2.739,0,1,1,2.739,0" stroke="#4c78a8" stroke-width="2" opacity="0.7"/><path aria-label="Percent: 55.59; Data Source: Case Investigation and Contact Tracing Efforts From Health Departments in the United States, November 2020 to December 2021.; Reached: Percent of Cases Interviewed" role="graphics-symbol" aria-roledescription="point" transform="translate(166.77,230)" d="M2.739,0A2.739,2.739,0,1,1,-2.739,0A2.739,2.739,0,1,1,2.739,0" stroke="#4c78a8" stroke-width="2" opacity="0.7"/><path aria-label="Percent: 48.96; Data Source: Case Investigation and Contact Tracing Efforts From Health Departments in the United States, November 2020 to December 2021.; Reached: Percent of Cases Interviewed" role="graphics-symbol" aria-roledescription="point" transform="translate(146.88000000000002,230)" d="M2.739,0A2.739,2.739,0,1,1,-2.739,0A2.739,2.739,0,1,1,2.739,0" stroke="#4c78a8" stroke-width="2" opacity="0.7"/><path aria-label="Percent: 42.39; Data Source: Case Investigation and Contact Tracing Efforts From Health Departments in the United States, November 2020 to December 2021.; Reached: Percent of Cases Interviewed" role="graphics-symbol" aria-roledescription="point" transform="translate(127.17,230)" d="M2.739,0A2.739,2.739,0,1,1,-2.739,0A2.739,2.739,0,1,1,2.739,0" stroke="#4c78a8" stroke-width="2" opacity="0.7"/><path aria-label="Percent: 31.27; Data Source: Case Investigation and Contact Tracing Efforts From Health Departments in the United States, November 2020 to December 2021.; Reached: Percent of Cases Interviewed" role="graphics-symbol" aria-roledescription="point" transform="translate(93.80999999999999,230)" d="M2.739,0A2.739,2.739,0,1,1,-2.739,0A2.739,2.739,0,1,1,2.739,0" stroke="#4c78a8" stroke-width="2" opacity="0.7"/><path aria-label="Percent: 30.21; Data Source: Case Investigation and Contact Tracing Efforts From Health Departments in the United States, November 2020 to December 2021.; Reached: Percent of Cases Interviewed" role="graphics-symbol" aria-roledescription="point" transform="translate(90.63000000000001,230)" d="M2.739,0A2.739,2.739,0,1,1,-2.739,0A2.739,2.739,0,1,1,2.739,0" stroke="#4c78a8" stroke-width="2" opacity="0.7"/><path aria-label="Percent: 42.57; Data Source: Case Investigation and Contact Tracing Efforts From Health Departments in the United States, November 2020 to December 2021.; Reached: Percent of Cases Interviewed" role="graphics-symbol" aria-roledescription="point" transform="translate(127.71000000000001,230)" d="M2.739,0A2.739,2.739,0,1,1,-2.739,0A2.739,2.739,0,1,1,2.739,0" stroke="#4c78a8" stroke-width="2" opacity="0.7"/><path aria-label="Percent: 48.15; Data Source: Case Investigation and Contact Tracing Efforts From Health Departments in the United States, November 2020 to December 2021.; Reached: Percent of Cases Interviewed" role="graphics-symbol" aria-roledescription="point" transform="translate(144.45,230)" d="M2.739,0A2.739,2.739,0,1,1,-2.739,0A2.739,2.739,0,1,1,2.739,0" stroke="#4c78a8" stroke-width="2" opacity="0.7"/><path aria-label="Percent: 42.64; Data Source: Case Investigation and Contact Tracing Efforts From Health Departments in the United States, November 2020 to December 2021.; Reached: Percent of Cases Interviewed" role="graphics-symbol" aria-roledescription="point" transform="translate(127.92,230)" d="M2.739,0A2.739,2.739,0,1,1,-2.739,0A2.739,2.739,0,1,1,2.739,0" stroke="#4c78a8" stroke-width="2" opacity="0.7"/><path aria-label="Percent: 42.34; Data Source: Case Investigation and Contact Tracing Efforts From Health Departments in the United States, November 2020 to December 2021.; Reached: Percent of Cases Interviewed" role="graphics-symbol" aria-roledescription="point" transform="translate(127.02000000000001,230)" d="M2.739,0A2.739,2.739,0,1,1,-2.739,0A2.739,2.739,0,1,1,2.739,0" stroke="#4c78a8" stroke-width="2" opacity="0.7"/><path aria-label="Percent: 26.61; Data Source: Case Investigation and Contact Tracing Efforts From Health Departments in the United States, November 2020 to December 2021.; Reached: Percent of Cases Interviewed" role="graphics-symbol" aria-roledescription="point" transform="translate(79.83,230)" d="M2.739,0A2.739,2.739,0,1,1,-2.739,0A2.739,2.739,0,1,1,2.739,0" stroke="#4c78a8" stroke-width="2" opacity="0.7"/><path aria-label="Percent: 58.7; Data Source: Community-Based Workforce for COVID-19 Contact Tracing and Prevention Activities in New York City, July-December 2020.; Reached: Percent of Cases Interviewed" role="graphics-symbol" aria-roledescription="point" transform="translate(176.10000000000002,270)" d="M2.739,0A2.739,2.739,0,1,1,-2.739,0A2.739,2.739,0,1,1,2.739,0" stroke="#4c78a8" stroke-width="2" opacity="0.7"/><path aria-label="Percent: 100; Data Source: Coronavirus Disease Contact Tracing Outcomes and Cost, Salt Lake County, Utah, USA, March-May 2020.; Reached: Percent of Cases Interviewed" role="graphics-symbol" aria-roledescription="point" transform="translate(300,290)" d="M2.739,0A2.739,2.739,0,1,1,-2.739,0A2.739,2.739,0,1,1,2.739,0" stroke="#4c78a8" stroke-width="2" opacity="0.7"/><path aria-label="Percent: 66.86; Data Source: Declines in SARS-CoV-2 Transmission, Hospitalizations, and Mortality After Implementation of Mitigation Measures- Delaware, March-June 2020.; Reached: Percent of Cases Interviewed" role="graphics-symbol" aria-roledescription="point" transform="translate(200.57999999999998,310)" d="M2.739,0A2.739,2.739,0,1,1,-2.739,0A2.739,2.739,0,1,1,2.739,0" stroke="#4c78a8" stroke-width="2" opacity="0.7"/><path aria-label="Percent: 65.61; Data Source: Factors Influencing the Results of COVID-19 Case Outreach-Results From a California Case Investigation/Contact Tracing Program.; Reached: Percent of Cases Interviewed" role="graphics-symbol" aria-roledescription="point" transform="translate(196.83,330)" d="M2.739,0A2.739,2.739,0,1,1,-2.739,0A2.739,2.739,0,1,1,2.739,0" stroke="#4c78a8" stroke-width="2" opacity="0.7"/><path aria-label="Percent: 45; Data Source: Implementation of close contact elicitation at the time of COVID-19 testing-Atlanta, GA, October-November 2020.; Reached: Percent of Cases Interviewed" role="graphics-symbol" aria-roledescription="point" transform="translate(135,350)" d="M2.739,0A2.739,2.739,0,1,1,-2.739,0A2.739,2.739,0,1,1,2.739,0" stroke="#4c78a8" stroke-width="2" opacity="0.7"/><path aria-label="Percent: 76; Data Source: Integrating Contact Tracers Into Point-of-Care Testing Workflow to Accelerate the Tracing of People With Exposure to COVID-19, August-December 2020, New York City.; Reached: Percent of Cases Interviewed" role="graphics-symbol" aria-roledescription="point" transform="translate(228,370)" d="M2.739,0A2.739,2.739,0,1,1,-2.739,0A2.739,2.739,0,1,1,2.739,0" stroke="#4c78a8" stroke-width="2" opacity="0.7"/><path aria-label="Percent: 48.99; Data Source: Lessons Learned From COVID-19 Contact Tracing During a Public Health Emergency: A Prospective Implementation Study.; Reached: Percent of Cases Interviewed" role="graphics-symbol" aria-roledescription="point" transform="translate(146.97,390)" d="M2.739,0A2.739,2.739,0,1,1,-2.739,0A2.739,2.739,0,1,1,2.739,0" stroke="#4c78a8" stroke-width="2" opacity="0.7"/><path aria-label="Percent: 98; Data Source: Lessons Learned from the Launch and Implementation of the COVID-19 Contact Tracing Program in New York City: a Qualitative Study.; Reached: Percent of Cases Interviewed" role="graphics-symbol" aria-roledescription="point" transform="translate(294,410)" d="M2.739,0A2.739,2.739,0,1,1,-2.739,0A2.739,2.739,0,1,1,2.739,0" stroke="#4c78a8" stroke-width="2" opacity="0.7"/><path aria-label="Percent: 85.36; Data Source: Outcomes of Contact Tracing in San Francisco, California-Test and Trace During Shelter-in-Place.; Reached: Percent of Cases Interviewed" role="graphics-symbol" aria-roledescription="point" transform="translate(256.08,430)" d="M2.739,0A2.739,2.739,0,1,1,-2.739,0A2.739,2.739,0,1,1,2.739,0" stroke="#4c78a8" stroke-width="2" opacity="0.7"/><path aria-label="Percent: 83; Data Source: The public health impact of COVID-19 variants of concern on the effectiveness of contact tracing in Vermont, United States.; Reached: Percent of Cases Interviewed" role="graphics-symbol" aria-roledescription="point" transform="translate(249,450)" d="M2.739,0A2.739,2.739,0,1,1,-2.739,0A2.739,2.739,0,1,1,2.739,0" stroke="#4c78a8" stroke-width="2" opacity="0.7"/><path aria-label="Percent: 78; Data Source: The public health impact of COVID-19 variants of concern on the effectiveness of contact tracing in Vermont, United States.; Reached: Percent of Cases Interviewed" role="graphics-symbol" aria-roledescription="point" transform="translate(234,450)" d="M2.739,0A2.739,2.739,0,1,1,-2.739,0A2.739,2.739,0,1,1,2.739,0" stroke="#4c78a8" stroke-width="2" opacity="0.7"/><path aria-label="Percent: 84; Data Source: The public health impact of COVID-19 variants of concern on the effectiveness of contact tracing in Vermont, United States.; Reached: Percent of Cases Interviewed" role="graphics-symbol" aria-roledescription="point" transform="translate(252,450)" d="M2.739,0A2.739,2.739,0,1,1,-2.739,0A2.739,2.739,0,1,1,2.739,0" stroke="#4c78a8" stroke-width="2" opacity="0.7"/><path aria-label="Percent: 37.3; Data Source: Unified Response to COVID-19 Case Investigation and Contact Tracing, Chicago, December 2020-April 2021.; Reached: Percent of Cases Interviewed" role="graphics-symbol" aria-roledescription="point" transform="translate(111.9,470)" d="M2.739,0A2.739,2.739,0,1,1,-2.739,0A2.739,2.739,0,1,1,2.739,0" stroke="#4c78a8" stroke-width="2" opacity="0.7"/><path aria-label="Percent: 79.01; Data Source: A State Health Department and Health Information Exchange Partnership: An Effective Collaboration for a Data-Driven Response for COVID-19 Contact Tracing  in Maryland.; Reached: Percent of Cases Reached" role="graphics-symbol" aria-roledescription="point" transform="translate(237.03,30)" d="M2.739,0A2.739,2.739,0,1,1,-2.739,0A2.739,2.739,0,1,1,2.739,0" stroke="#f58518" stroke-width="2" opacity="0.7"/><path aria-label="Percent: 63.2; Data Source: A Web-Based Digital Contact Tracing Strategy Addresses Stigma Concerns Among Individuals Evaluated for COVID-19.; Reached: Percent of Cases Reached" role="graphics-symbol" aria-roledescription="point" transform="translate(189.6,50)" d="M2.739,0A2.739,2.739,0,1,1,-2.739,0A2.739,2.739,0,1,1,2.739,0" stroke="#f58518" stroke-width="2" opacity="0.7"/><path aria-label="Percent: 75.36; Data Source: Adapting COVID-19 Contact Tracing Protocols to Accommodate Resource Constraints, Philadelphia, Pennsylvania, USA, 2021.; Reached: Percent of Cases Reached" role="graphics-symbol" aria-roledescription="point" transform="translate(226.08,70)" d="M2.739,0A2.739,2.739,0,1,1,-2.739,0A2.739,2.739,0,1,1,2.739,0" stroke="#f58518" stroke-width="2" opacity="0.7"/><path aria-label="Percent: 59.63; Data Source: Adapting COVID-19 Contact Tracing Protocols to Accommodate Resource Constraints, Philadelphia, Pennsylvania, USA, 2021.; Reached: Percent of Cases Reached" role="graphics-symbol" aria-roledescription="point" transform="translate(178.89000000000001,70)" d="M2.739,0A2.739,2.739,0,1,1,-2.739,0A2.739,2.739,0,1,1,2.739,0" stroke="#f58518" stroke-width="2" opacity="0.7"/><path aria-label="Percent: 69.2; Data Source: An Academic-Health Department Community Partnership to Expand Disease Investigation and Contact Tracing Capacity and Efficiency During the COVID-19  Pandemic.; Reached: Percent of Cases Reached" role="graphics-symbol" aria-roledescription="point" transform="translate(207.60000000000002,90)" d="M2.739,0A2.739,2.739,0,1,1,-2.739,0A2.739,2.739,0,1,1,2.739,0" stroke="#f58518" stroke-width="2" opacity="0.7"/><path aria-label="Percent: 60.86; Data Source: Automated Digital Notification of COVID-19 Diagnoses Through Text and Email Messaging - North Carolina, December 2020-January 2021.; Reached: Percent of Cases Reached" role="graphics-symbol" aria-roledescription="point" transform="translate(182.58,110)" d="M2.739,0A2.739,2.739,0,1,1,-2.739,0A2.739,2.739,0,1,1,2.739,0" stroke="#f58518" stroke-width="2" opacity="0.7"/><path aria-label="Percent: 80.09; Data Source: COVID-19 Case Investigation and Contact Tracing in Central Washington State, June-July 2020.; Reached: Percent of Cases Reached" role="graphics-symbol" aria-roledescription="point" transform="translate(240.27,130)" d="M2.739,0A2.739,2.739,0,1,1,-2.739,0A2.739,2.739,0,1,1,2.739,0" stroke="#f58518" stroke-width="2" opacity="0.7"/><path aria-label="Percent: 89.36; Data Source: COVID-19 Case Investigation and Contact Tracing in New York City, June 1, 2020, to October 31, 2021.; Reached: Percent of Cases Reached" role="graphics-symbol" aria-roledescription="point" transform="translate(268.08,150)" d="M2.739,0A2.739,2.739,0,1,1,-2.739,0A2.739,2.739,0,1,1,2.739,0" stroke="#f58518" stroke-width="2" opacity="0.7"/><path aria-label="Percent: 77.54; Data Source: COVID-19 Contact Tracing Outcomes in Washington State, August and October 2020.; Reached: Percent of Cases Reached" role="graphics-symbol" aria-roledescription="point" transform="translate(232.62000000000003,190)" d="M2.739,0A2.739,2.739,0,1,1,-2.739,0A2.739,2.739,0,1,1,2.739,0" stroke="#f58518" stroke-width="2" opacity="0.7"/><path aria-label="Percent: 82.73; Data Source: COVID-19 Contact Tracing Outcomes in Washington State, August and October 2020.; Reached: Percent of Cases Reached" role="graphics-symbol" aria-roledescription="point" transform="translate(248.19,190)" d="M2.739,0A2.739,2.739,0,1,1,-2.739,0A2.739,2.739,0,1,1,2.739,0" stroke="#f58518" stroke-width="2" opacity="0.7"/><path aria-label="Percent: 57.92; Data Source: Centering Health Equity Within COVID-19 Contact Tracing: Connecticut's Community Outreach Specialist Program.; Reached: Percent of Cases Reached" role="graphics-symbol" aria-roledescription="point" transform="translate(173.76000000000002,250)" d="M2.739,0A2.739,2.739,0,1,1,-2.739,0A2.739,2.739,0,1,1,2.739,0" stroke="#f58518" stroke-width="2" opacity="0.7"/><path aria-label="Percent: 88.94; Data Source: Community-Based Workforce for COVID-19 Contact Tracing and Prevention Activities in New York City, July-December 2020.; Reached: Percent of Cases Reached" role="graphics-symbol" aria-roledescription="point" transform="translate(266.82,270)" d="M2.739,0A2.739,2.739,0,1,1,-2.739,0A2.739,2.739,0,1,1,2.739,0" stroke="#f58518" stroke-width="2" opacity="0.7"/><path aria-label="Percent: 71.59; Data Source: Factors Influencing the Results of COVID-19 Case Outreach-Results From a California Case Investigation/Contact Tracing Program.; Reached: Percent of Cases Reached" role="graphics-symbol" aria-roledescription="point" transform="translate(214.76999999999998,330)" d="M2.739,0A2.739,2.739,0,1,1,-2.739,0A2.739,2.739,0,1,1,2.739,0" stroke="#f58518" stroke-width="2" opacity="0.7"/><path aria-label="Percent: 56.88; Data Source: Lessons Learned From COVID-19 Contact Tracing During a Public Health Emergency: A Prospective Implementation Study.; Reached: Percent of Cases Reached" role="graphics-symbol" aria-roledescription="point" transform="translate(170.64,390)" d="M2.739,0A2.739,2.739,0,1,1,-2.739,0A2.739,2.739,0,1,1,2.739,0" stroke="#f58518" stroke-width="2" opacity="0.7"/><path aria-label="Percent: 89; Data Source: Lessons Learned from the Launch and Implementation of the COVID-19 Contact Tracing Program in New York City: a Qualitative Study.; Reached: Percent of Cases Reached" role="graphics-symbol" aria-roledescription="point" transform="translate(267,410)" d="M2.739,0A2.739,2.739,0,1,1,-2.739,0A2.739,2.739,0,1,1,2.739,0" stroke="#f58518" stroke-width="2" opacity="0.7"/><path aria-label="Percent: 57.16; Data Source: Unified Response to COVID-19 Case Investigation and Contact Tracing, Chicago, December 2020-April 2021.; Reached: Percent of Cases Reached" role="graphics-symbol" aria-roledescription="point" transform="translate(171.48,470)" d="M2.739,0A2.739,2.739,0,1,1,-2.739,0A2.739,2.739,0,1,1,2.739,0" stroke="#f58518" stroke-width="2" opacity="0.7"/><path aria-label="Percent: 87.97; Data Source: Using Automation, Prioritization, and Collaboration to Manage a COVID-19 Case Surge in Maricopa County, Arizona, 2020.; Reached: Percent of Cases Reached" role="graphics-symbol" aria-roledescription="point" transform="translate(263.91,490)" d="M2.739,0A2.739,2.739,0,1,1,-2.739,0A2.739,2.739,0,1,1,2.739,0" stroke="#f58518" stroke-width="2" opacity="0.7"/></g><g class="mark-group role-legend" role="graphics-symbol" aria-roledescription="legend" aria-label="Symbol legend titled 'Reached' for stroke color with 2 values: Percent of Cases Interviewed, Percent of Cases Reached"><g transform="translate(318,0)"><path class="background" aria-hidden="true" d="M0,0h147v45h-147Z" pointer-events="none"/><g><g class="mark-group role-legend-entry"><g transform="translate(0,16)"><path class="background" aria-hidden="true" d="M0,0h0v0h0Z" pointer-events="none"/><g><g class="mark-group role-scope" role="graphics-object" aria-roledescription="group mark container"><g transform="translate(0,0)"><path class="background" aria-hidden="true" d="M0,0h146.6201171875v12.5h-146.6201171875Z" pointer-events="none" opacity="1"/><g><g class="mark-symbol role-legend-symbol" pointer-events="none"><path transform="translate(6,6)" d="M5,0A5,5,0,1,1,-5,0A5,5,0,1,1,5,0" stroke="#4c78a8" stroke-width="1.5" opacity="0.7"/></g><g class="mark-text role-legend-label" pointer-events="none"><text text-anchor="start" transform="translate(16,9)" font-family="sans-serif" font-size="10px" fill="#000" opacity="1">Percent of Cases Interviewed</text></g></g><path class="foreground" aria-hidden="true" d="" pointer-events="none" display="none"/></g><g transform="translate(0,16)"><path class="background" aria-hidden="true" d="M0,0h146.6201171875v12.5h-146.6201171875Z" pointer-events="none" opacity="1"/><g><g class="mark-symbol role-legend-symbol" pointer-events="none"><path transform="translate(6,6)" d="M5,0A5,5,0,1,1,-5,0A5,5,0,1,1,5,0" stroke="#f58518" stroke-width="1.5" opacity="0.7"/></g><g class="mark-text role-legend-label" pointer-events="none"><text text-anchor="start" transform="translate(16,9)" font-family="sans-serif" font-size="10px" fill="#000" opacity="1">Percent of Cases Reached</text></g></g><path class="foreground" aria-hidden="true" d="" pointer-events="none" display="none"/></g></g></g><path class="foreground" aria-hidden="true" d="" pointer-events="none" display="none"/></g></g><g class="mark-text role-legend-title" pointer-events="none"><text text-anchor="start" transform="translate(0,9)" font-family="sans-serif" font-size="11px" font-weight="bold" fill="#000" opacity="1">Reached</text></g></g><path class="foreground" aria-hidden="true" d="" pointer-events="none" display="none"/></g></g></g><path class="foreground" aria-hidden="true" d="" display="none"/></g></g></g></svg>