<svg xmlns="http://www.w3.org/2000/svg" xmlns:xlink="http://www.w3.org/1999/xlink" version="1.1" class="marks" width="908" height="328" viewBox="0 0 908 328"><rect width="908" height="328" fill="white"/><g fill="none" stroke-miterlimit="10" transform="translate(58,14)"><g class="mark-group role-frame root" role="graphics-object" aria-roledescription="group mark container"><g transform="translate(0,0)"><path class="background" aria-hidden="true" d="M0.5,0.5h650v200h-650Z" stroke="#ddd"/><g><g class="mark-group role-axis" aria-hidden="true"><g transform="translate(0.5,200.5)"><path class="background" aria-hidden="true" d="M0,0h0v0h0Z" pointer-events="none"/><g><g class="mark-rule role-axis-grid" pointer-events="none"><line transform="translate(0,-200)" x2="0" y2="200" stroke="#ddd" stroke-width="1" opacity="1"/><line transform="translate(50,-200)" x2="0" y2="200" stroke="#ddd" stroke-width="1" opacity="1"/><line transform="translate(100,-200)" x2="0" y2="200" stroke="#ddd" stroke-width="1" opacity="1"/><line transform="translate(150,-200)" x2="0" y2="200" stroke="#ddd" stroke-width="1" opacity="1"/><line transform="translate(200,-200)" x2="0" y2="200" stroke="#ddd" stroke-width="1" opacity="1"/><line transform="translate(250,-200)" x2="0" y2="200" stroke="#ddd" stroke-width="1" opacity="1"/><line transform="translate(300,-200)" x2="0" y2="200" stroke="#ddd" stroke-width="1" opacity="1"/><line transform="translate(350,-200)" x2="0" y2="200" stroke="#ddd" stroke-width="1" opacity="1"/><line transform="translate(400,-200)" x2="0" y2="200" stroke="#ddd" stroke-width="1" opacity="1"/><line transform="translate(450,-200)" x2="0" y2="200" stroke="#ddd" stroke-width="1" opacity="1"/><line transform="translate(500,-200)" x2="0" y2="200" stroke="#ddd" stroke-width="1" opacity="1"/><line transform="translate(550,-200)" x2="0" y2="200" stroke="#ddd" stroke-width="1" opacity="1"/><line transform="translate(600,-200)" x2="0" y2="200" stroke="#ddd" stroke-width="1" opacity="1"/><line transform="translate(650,-200)" x2="0" y2="200" stroke="#ddd" stroke-width="1" opacity="1"/></g></g><path class="foreground" aria-hidden="true" d="" pointer-events="none" display="none"/></g></g><g class="mark-group role-axis" aria-hidden="true"><g transform="translate(0.5,0.5)"><path class="background" aria-hidden="true" d="M0,0h0v0h0Z" pointer-events="none"/><g><g class="mark-rule role-axis-grid" pointer-events="none"><line transform="translate(0,200)" x2="650" y2="0" stroke="#ddd" stroke-width="1" opacity="1"/><line transform="translate(0,164)" x2="650" y2="0" stroke="#ddd" stroke-width="1" opacity="1"/><line transform="translate(0,127)" x2="650" y2="0" stroke="#ddd" stroke-width="1" opacity="1"/><line transform="translate(0,91)" x2="650" y2="0" stroke="#ddd" stroke-width="1" opacity="1"/><line transform="translate(0,55)" x2="650" y2="0" stroke="#ddd" stroke-width="1" opacity="1"/><line transform="translate(0,18)" x2="650" y2="0" stroke="#ddd" stroke-width="1" opacity="1"/></g></g><path class="foreground" aria-hidden="true" d="" pointer-events="none" display="none"/></g></g><g class="mark-group role-axis" role="graphics-symbol" aria-roledescription="axis" aria-label="X-axis titled 'Count of Cases Assigned' for a linear scale with values from 0 to 6,500,000"><g transform="translate(0.5,200.5)"><path class="background" aria-hidden="true" d="M0,0h0v0h0Z" pointer-events="none"/><g><g class="mark-rule role-axis-tick" pointer-events="none"><line transform="translate(0,0)" x2="0" y2="5" stroke="#888" stroke-width="1" opacity="1"/><line transform="translate(50,0)" x2="0" y2="5" stroke="#888" stroke-width="1" opacity="1"/><line transform="translate(100,0)" x2="0" y2="5" stroke="#888" stroke-width="1" opacity="1"/><line transform="translate(150,0)" x2="0" y2="5" stroke="#888" stroke-width="1" opacity="1"/><line transform="translate(200,0)" x2="0" y2="5" stroke="#888" stroke-width="1" opacity="1"/><line transform="translate(250,0)" x2="0" y2="5" stroke="#888" stroke-width="1" opacity="1"/><line transform="translate(300,0)" x2="0" y2="5" stroke="#888" stroke-width="1" opacity="1"/><line transform="translate(350,0)" x2="0" y2="5" stroke="#888" stroke-width="1" opacity="1"/><line transform="translate(400,0)" x2="0" y2="5" stroke="#888" stroke-width="1" opacity="1"/><line transform="translate(450,0)" x2="0" y2="5" stroke="#888" stroke-width="1" opacity="1"/><line transform="translate(500,0)" x2="0" y2="5" stroke="#888" stroke-width="1" opacity="1"/><line transform="translate(550,0)" x2="0" y2="5" stroke="#888" stroke-width="1" opacity="1"/><line transform="translate(600,0)" x2="0" y2="5" stroke="#888" stroke-width="1" opacity="1"/><line transform="translate(650,0)" x2="0" y2="5" stroke="#888" stroke-width="1" opacity="1"/></g><g class="mark-text role-axis-label" pointer-events="none"><text text-anchor="start" transform="translate(0,15)" font-family="sans-serif" font-size="10px" fill="#000" opacity="1">0</text><text text-anchor="middle" transform="translate(50,15)" font-family="sans-serif" font-size="10px" fill="#000" opacity="0">500,000</text><text text-anchor="middle" transform="translate(100,15)" font-family="sans-serif" font-size="10px" fill="#000" opacity="1">1,000,000</text><text text-anchor="middle" transform="translate(150,15)" font-family="sans-serif" font-size="10px" fill="#000" opacity="0">1,500,000</text><text text-anchor="middle" transform="translate(200,15)" font-family="sans-serif" font-size="10px" fill="#000" opacity="1">2,000,000</text><text text-anchor="middle" transform="translate(250,15)" font-family="sans-serif" font-size="10px" fill="#000" opacity="0">2,500,000</text><text text-anchor="middle" transform="translate(300,15)" font-family="sans-serif" font-size="10px" fill="#000" opacity="1">3,000,000</text><text text-anchor="middle" transform="translate(350,15)" font-family="sans-serif" font-size="10px" fill="#000" opacity="0">3,500,000</text><text text-anchor="middle" transform="translate(400,15)" font-family="sans-serif" font-size="10px" fill="#000" opacity="1">4,000,000</text><text text-anchor="middle" transform="translate(450,15)" font-family="sans-serif" font-size="10px" fill="#000" opacity="0">4,500,000</text><text text-anchor="middle" transform="translate(500,15)" font-family="sans-serif" font-size="10px" fill="#000" opacity="1">5,000,000</text><text text-anchor="middle" transform="translate(550,15)" font-family="sans-serif" font-size="10px" fill="#000" opacity="0">5,500,000</text><text text-anchor="middle" transform="translate(600,15)" font-family="sans-serif" font-size="10px" fill="#000" opacity="1">6,000,000</text><text text-anchor="end" transform="translate(650,15)" font-family="sans-serif" font-size="10px" fill="#000" opacity="0">6,500,000</text></g><g class="mark-rule role-axis-domain" pointer-events="none"><line transform="translate(0,0)" x2="650" y2="0" stroke="#888" stroke-width="1" opacity="1"/></g><g class="mark-text role-axis-title" pointer-events="none"><text text-anchor="middle" transform="translate(325,30)" font-family="sans-serif" font-size="11px" font-weight="bold" fill="#000" opacity="1">Count of Cases Assigned</text></g></g><path class="foreground" aria-hidden="true" d="" pointer-events="none" display="none"/></g></g><g class="mark-group role-axis" role="graphics-symbol" aria-roledescription="axis" aria-label="Y-axis titled 'Count of Case Investigators Hired' for a linear scale with values from 0 to 55,000"><g transform="translate(0.5,0.5)"><path class="background" aria-hidden="true" d="M0,0h0v0h0Z" pointer-events="none"/><g><g class="mark-rule role-axis-tick" pointer-events="none"><line transform="translate(0,200)" x2="-5" y2="0" stroke="#888" stroke-width="1" opacity="1"/><line transform="translate(0,164)" x2="-5" y2="0" stroke="#888" stroke-width="1" opacity="1"/><line transform="translate(0,127)" x2="-5" y2="0" stroke="#888" stroke-width="1" opacity="1"/><line transform="translate(0,91)" x2="-5" y2="0" stroke="#888" stroke-width="1" opacity="1"/><line transform="translate(0,55)" x2="-5" y2="0" stroke="#888" stroke-width="1" opacity="1"/><line transform="translate(0,18)" x2="-5" y2="0" stroke="#888" stroke-width="1" opacity="1"/></g><g class="mark-text role-axis-label" pointer-events="none"><text text-anchor="end" transform="translate(-7,203)" font-family="sans-serif" font-size="10px" fill="#000" opacity="1">0</text><text text-anchor="end" transform="translate(-7,166.63636363636363)" font-family="sans-serif" font-size="10px" fill="#000" opacity="1">10,000</text><text text-anchor="end" transform="translate(-7,130.27272727272725)" font-family="sans-serif" font-size="10px" fill="#000" opacity="1">20,000</text><text text-anchor="end" transform="translate(-7,93.90909090909092)" font-family="sans-serif" font-size="10px" fill="#000" opacity="1">30,000</text><text text-anchor="end" transform="translate(-7,57.54545454545454)" font-family="sans-serif" font-size="10px" fill="#000" opacity="1">40,000</text><text text-anchor="end" transform="translate(-7,21.181818181818187)" font-family="sans-serif" font-size="10px" fill="#000" opacity="1">50,000</text></g><g class="mark-rule role-axis-domain" pointer-events="none"><line transform="translate(0,200)" x2="0" y2="-200" stroke="#888" stroke-width="1" opacity="1"/></g><g class="mark-text role-axis-title" pointer-events="none"><text text-anchor="middle" transform="translate(-41.5859375,100) rotate(-90) translate(0,-2)" font-family="sans-serif" font-size="11px" font-weight="bold" fill="#000" opacity="1">Count of Case Investigators Hired</text></g></g><path class="foreground" aria-hidden="true" d="" pointer-events="none" display="none"/></g></g><g class="mark-symbol role-mark layer_0_marks" role="graphics-object" aria-roledescription="symbol mark container"><path aria-label="Count of Cases Assigned: 6050877; Count of Case Investigators Hired: 54587; Start Date: Dec 31, 2020; Number of Cases per Case Investigator: 110.85" role="graphics-symbol" aria-roledescription="point" transform="translate(605.0877,1.501818181818182)" d="M7.363,0A7.363,7.363,0,1,1,-7.363,0A7.363,7.363,0,1,1,7.363,0" stroke="rgb(160, 216, 224)" stroke-width="2" opacity="0.7"/><path aria-label="Count of Cases Assigned: 3079448; Count of Case Investigators Hired: 51794; Start Date: Jan 31, 2021; Number of Cases per Case Investigator: 59.46" role="graphics-symbol" aria-roledescription="point" transform="translate(307.9448,11.658181818181813)" d="M5.435,0A5.435,5.435,0,1,1,-5.435,0A5.435,5.435,0,1,1,5.435,0" stroke="rgb(155, 218, 218)" stroke-width="2" opacity="0.7"/><path aria-label="Count of Cases Assigned: 1661864; Count of Case Investigators Hired: 43401; Start Date: Feb 28, 2021; Number of Cases per Case Investigator: 38.29" role="graphics-symbol" aria-roledescription="point" transform="translate(166.18640000000002,42.17818181818183)" d="M4.402,0A4.402,4.402,0,1,1,-4.402,0A4.402,4.402,0,1,1,4.402,0" stroke="rgb(153, 220, 211)" stroke-width="2" opacity="0.7"/><path aria-label="Count of Cases Assigned: 2046549; Count of Case Investigators Hired: 42009; Start Date: Mar 31, 2021; Number of Cases per Case Investigator: 48.72" role="graphics-symbol" aria-roledescription="point" transform="translate(204.65490000000003,47.239999999999995)" d="M4.938,0A4.938,4.938,0,1,1,-4.938,0A4.938,4.938,0,1,1,4.938,0" stroke="rgb(154, 221, 201)" stroke-width="2" opacity="0.7"/><path aria-label="Count of Cases Assigned: 1107656; Count of Case Investigators Hired: 32989; Start Date: Apr 30, 2021; Number of Cases per Case Investigator: 33.58" role="graphics-symbol" aria-roledescription="point" transform="translate(110.76559999999999,80.04)" d="M4.138,0A4.138,4.138,0,1,1,-4.138,0A4.138,4.138,0,1,1,4.138,0" stroke="rgb(158, 222, 190)" stroke-width="2" opacity="0.7"/><path aria-label="Count of Cases Assigned: 444318; Count of Case Investigators Hired: 26393; Start Date: May 31, 2021; Number of Cases per Case Investigator: 16.83" role="graphics-symbol" aria-roledescription="point" transform="translate(44.4318,104.02545454545455)" d="M3.013,0A3.013,3.013,0,1,1,-3.013,0A3.013,3.013,0,1,1,3.013,0" stroke="rgb(167, 221, 178)" stroke-width="2" opacity="0.7"/><path aria-label="Count of Cases Assigned: 1241487; Count of Case Investigators Hired: 26288; Start Date: Jun 30, 2021; Number of Cases per Case Investigator: 47.23" role="graphics-symbol" aria-roledescription="point" transform="translate(124.1487,104.40727272727273)" d="M4.865,0A4.865,4.865,0,1,1,-4.865,0A4.865,4.865,0,1,1,4.865,0" stroke="rgb(177, 220, 167)" stroke-width="2" opacity="0.7"/><path aria-label="Count of Cases Assigned: 4046250; Count of Case Investigators Hired: 28578; Start Date: Jul 31, 2021; Number of Cases per Case Investigator: 141.59" role="graphics-symbol" aria-roledescription="point" transform="translate(404.62500000000006,96.08000000000001)" d="M8.305,0A8.305,8.305,0,1,1,-8.305,0A8.305,8.305,0,1,1,8.305,0" stroke="rgb(190, 219, 156)" stroke-width="2" opacity="0.7"/><path aria-label="Count of Cases Assigned: 4363750; Count of Case Investigators Hired: 29657; Start Date: Aug 31, 2021; Number of Cases per Case Investigator: 147.14" role="graphics-symbol" aria-roledescription="point" transform="translate(436.375,92.15636363636364)" d="M8.464,0A8.464,8.464,0,1,1,-8.464,0A8.464,8.464,0,1,1,8.464,0" stroke="rgb(205, 216, 147)" stroke-width="2" opacity="0.7"/><path aria-label="Count of Cases Assigned: 2266428; Count of Case Investigators Hired: 30094; Start Date: Sep 30, 2021; Number of Cases per Case Investigator: 75.31" role="graphics-symbol" aria-roledescription="point" transform="translate(226.6428,90.56727272727272)" d="M6.095,0A6.095,6.095,0,1,1,-6.095,0A6.095,6.095,0,1,1,6.095,0" stroke="rgb(220, 212, 141)" stroke-width="2" opacity="0.7"/><path aria-label="Count of Cases Assigned: 3861466; Count of Case Investigators Hired: 45964; Start Date: Oct 31, 2020; Number of Cases per Case Investigator: 84.01" role="graphics-symbol" aria-roledescription="point" transform="translate(386.1466,32.858181818181805)" d="M6.429,0A6.429,6.429,0,1,1,-6.429,0A6.429,6.429,0,1,1,6.429,0" stroke="rgb(175, 211, 230)" stroke-width="2" opacity="0.7"/><path aria-label="Count of Cases Assigned: 2163555; Count of Case Investigators Hired: 26868; Start Date: Oct 31, 2021; Number of Cases per Case Investigator: 80.53" role="graphics-symbol" aria-roledescription="point" transform="translate(216.35549999999998,102.29818181818182)" d="M6.297,0A6.297,6.297,0,1,1,-6.297,0A6.297,6.297,0,1,1,6.297,0" stroke="rgb(236, 207, 138)" stroke-width="2" opacity="0.7"/><path aria-label="Count of Cases Assigned: 6078802; Count of Case Investigators Hired: 54651; Start Date: Nov 30, 2020; Number of Cases per Case Investigator: 111.23" role="graphics-symbol" aria-roledescription="point" transform="translate(607.8802,1.2690909090909086)" d="M7.375,0A7.375,7.375,0,1,1,-7.375,0A7.375,7.375,0,1,1,7.375,0" stroke="rgb(167, 214, 228)" stroke-width="2" opacity="0.7"/><path aria-label="Count of Cases Assigned: 5897346; Count of Case Investigators Hired: 31720; Start Date: Nov 30, 2021; Number of Cases per Case Investigator: 185.92" role="graphics-symbol" aria-roledescription="point" transform="translate(589.7346,84.65454545454546)" d="M9.5,0A9.5,9.5,0,1,1,-9.5,0A9.5,9.5,0,1,1,9.5,0" stroke="rgb(251, 202, 139)" stroke-width="2" opacity="0.7"/></g><g class="mark-line role-mark layer_1_marks" role="graphics-object" aria-roledescription="line mark container"><path aria-label="Count of Cases Assigned: 444318; Count of Case Investigators Hired: 29770.4236519" role="graphics-symbol" aria-roledescription="line mark" d="M44.432,91.744L607.88,33.537" stroke="#F28E2B" stroke-width="2"/></g><g class="mark-group role-legend" role="graphics-symbol" aria-roledescription="legend" aria-label="Gradient legend titled 'Start Date' for stroke color with values from October 31, 2020 to November 30, 2021"><g transform="translate(668,0)"><path class="background" aria-hidden="true" d="M0,0h76v216h-76Z" pointer-events="none"/><g><g class="mark-group role-legend-entry"><g transform="translate(0,16)"><path class="background" aria-hidden="true" d="M0,0h0v0h0Z" pointer-events="none"/><g><g class="mark-rect role-legend-gradient" pointer-events="none"><path d="M0,0h16v200h-16Z" fill="url(#gradient_0)" stroke="#ddd" stroke-width="0" opacity="0.7"/></g><g class="mark-text role-legend-label" pointer-events="none"><text text-anchor="start" transform="translate(18,171.9451476793249)" font-family="sans-serif" font-size="10px" fill="#000" opacity="1">Jan 01, 2021</text><text text-anchor="start" transform="translate(18,126.39662447257385)" font-family="sans-serif" font-size="10px" fill="#000" opacity="1">Apr 01, 2021</text><text text-anchor="start" transform="translate(18,80.32067510548524)" font-family="sans-serif" font-size="10px" fill="#000" opacity="1">Jul 01, 2021</text><text text-anchor="start" transform="translate(18,33.73839662447257)" font-family="sans-serif" font-size="10px" fill="#000" opacity="1">Oct 01, 2021</text></g></g><path class="foreground" aria-hidden="true" d="" pointer-events="none" display="none"/></g></g><g class="mark-text role-legend-title" pointer-events="none"><text text-anchor="start" transform="translate(0,9)" font-family="sans-serif" font-size="11px" font-weight="bold" fill="#000" opacity="1">Start Date</text></g></g><path class="foreground" aria-hidden="true" d="" pointer-events="none" display="none"/></g></g><g class="mark-group role-legend" role="graphics-symbol" aria-roledescription="legend" aria-label="Symbol legend titled 'Number of Cases per Case Investigator' for size with values from 0 to 186"><g transform="translate(668,224)"><path class="background" aria-hidden="true" d="M0,0h177v85h-177Z" pointer-events="none"/><g><g class="mark-group role-legend-entry"><g transform="translate(0,16)"><path class="background" aria-hidden="true" d="M0,0h0v0h0Z" pointer-events="none"/><g><g class="mark-group role-scope" role="graphics-object" aria-roledescription="group mark container"><g transform="translate(0,0)"><path class="background" aria-hidden="true" d="M0,0h39.6845703125v10h-39.6845703125Z" pointer-events="none" opacity="1"/><g><g class="mark-symbol role-legend-symbol" pointer-events="none"><path transform="translate(9.5,5)" d="M1,0A1,1,0,1,1,-1,0A1,1,0,1,1,1,0" stroke="#888" stroke-width="1.5" opacity="0.7"/></g><g class="mark-text role-legend-label" pointer-events="none"><text text-anchor="start" transform="translate(23,8)" font-family="sans-serif" font-size="10px" fill="#000" opacity="1">0</text></g></g><path class="foreground" aria-hidden="true" d="" pointer-events="none" display="none"/></g><g transform="translate(0,13)"><path class="background" aria-hidden="true" d="M0,0h39.6845703125v12.500225898511445h-39.6845703125Z" pointer-events="none" opacity="1"/><g><g class="mark-symbol role-legend-symbol" pointer-events="none"><path transform="translate(9.5,6)" d="M5,0A5,5,0,1,1,-5,0A5,5,0,1,1,5,0" stroke="#888" stroke-width="1.5" opacity="0.7"/></g><g class="mark-text role-legend-label" pointer-events="none"><text text-anchor="start" transform="translate(23,9)" font-family="sans-serif" font-size="10px" fill="#000" opacity="1">50</text></g></g><path class="foreground" aria-hidden="true" d="" pointer-events="none" display="none"/></g><g transform="translate(0,29)"><path class="background" aria-hidden="true" d="M0,0h39.6845703125v16.500322712010437h-39.6845703125Z" pointer-events="none" opacity="1"/><g><g class="mark-symbol role-legend-symbol" pointer-events="none"><path transform="translate(9.5,8)" d="M7,0A7,7,0,1,1,-7,0A7,7,0,1,1,7,0" stroke="#888" stroke-width="1.5" opacity="0.7"/></g><g class="mark-text role-legend-label" pointer-events="none"><text text-anchor="start" transform="translate(23,11)" font-family="sans-serif" font-size="10px" fill="#000" opacity="1">100</text></g></g><path class="foreground" aria-hidden="true" d="" pointer-events="none" display="none"/></g><g transform="translate(0,49)"><path class="background" aria-hidden="true" d="M0,0h39.6845703125v19.544400336386033h-39.6845703125Z" pointer-events="none" opacity="1"/><g><g class="mark-symbol role-legend-symbol" pointer-events="none"><path transform="translate(9.5,9.5)" d="M8.544,0A8.544,8.544,0,1,1,-8.544,0A8.544,8.544,0,1,1,8.544,0" stroke="#888" stroke-width="1.5" opacity="0.7"/></g><g class="mark-text role-legend-label" pointer-events="none"><text text-anchor="start" transform="translate(23,12.5)" font-family="sans-serif" font-size="10px" fill="#000" opacity="1">150</text></g></g><path class="foreground" aria-hidden="true" d="" pointer-events="none" display="none"/></g></g></g><path class="foreground" aria-hidden="true" d="" pointer-events="none" display="none"/></g></g><g class="mark-text role-legend-title" pointer-events="none"><text text-anchor="start" transform="translate(0,9)" font-family="sans-serif" font-size="11px" font-weight="bold" fill="#000" opacity="1">Number of Cases per Case Inve…</text></g></g><path class="foreground" aria-hidden="true" d="" pointer-events="none" display="none"/></g></g></g><path class="foreground" aria-hidden="true" d="" display="none"/></g></g></g><defs><linearGradient id="gradient_0" x1="0" x2="0" y1="1" y2="0"><stop offset="0" stop-color="rgb(175, 211, 230)"/><stop offset="0.0007383966244725738" stop-color="rgb(175, 211, 230)"/><stop offset="0.07679324894514768" stop-color="rgb(167, 214, 228)"/><stop offset="0.15527426160337554" stop-color="rgb(160, 216, 224)"/><stop offset="0.23375527426160336" stop-color="rgb(155, 218, 218)"/><stop offset="0.30464135021097044" stop-color="rgb(153, 220, 211)"/><stop offset="0.3830168776371308" stop-color="rgb(154, 221, 201)"/><stop offset="0.4589662447257384" stop-color="rgb(159, 222, 190)"/><stop offset="0.5374472573839663" stop-color="rgb(167, 221, 178)"/><stop offset="0.6133966244725738" stop-color="rgb(177, 220, 167)"/><stop offset="0.6918776371308016" stop-color="rgb(190, 218, 156)"/><stop offset="0.7703586497890296" stop-color="rgb(205, 216, 147)"/><stop offset="0.8463080168776371" stop-color="rgb(220, 212, 141)"/><stop offset="0.924789029535865" stop-color="rgb(236, 207, 138)"/><stop offset="1" stop-color="rgb(251, 202, 139)"/></linearGradient></defs></svg>