<svg xmlns="http://www.w3.org/2000/svg" xmlns:xlink="http://www.w3.org/1999/xlink" version="1.1" class="marks" width="621" height="922" viewBox="0 0 621 922"><rect width="621" height="922" fill="white"/><g fill="none" stroke-miterlimit="10" transform="translate(151,5)"><g class="mark-group role-frame root" role="graphics-object" aria-roledescription="group mark container"><g transform="translate(0,0)"><path class="background" aria-hidden="true" d="M0.5,0.5h300v880h-300Z" stroke="#ddd"/><g><g class="mark-group role-axis" aria-hidden="true"><g transform="translate(0.5,880.5)"><path class="background" aria-hidden="true" d="M0,0h0v0h0Z" pointer-events="none"/><g><g class="mark-rule role-axis-grid" pointer-events="none"><line transform="translate(0,0)" x2="0" y2="-880" stroke="#ddd" stroke-width="1" opacity="1"/><line transform="translate(30,0)" x2="0" y2="-880" stroke="#ddd" stroke-width="1" opacity="1"/><line transform="translate(60,0)" x2="0" y2="-880" stroke="#ddd" stroke-width="1" opacity="1"/><line transform="translate(90,0)" x2="0" y2="-880" stroke="#ddd" stroke-width="1" opacity="1"/><line transform="translate(120,0)" x2="0" y2="-880" stroke="#ddd" stroke-width="1" opacity="1"/><line transform="translate(150,0)" x2="0" y2="-880" stroke="#ddd" stroke-width="1" opacity="1"/><line transform="translate(180,0)" x2="0" y2="-880" stroke="#ddd" stroke-width="1" opacity="1"/><line transform="translate(210,0)" x2="0" y2="-880" stroke="#ddd" stroke-width="1" opacity="1"/><line transform="translate(240,0)" x2="0" y2="-880" stroke="#ddd" stroke-width="1" opacity="1"/><line transform="translate(270,0)" x2="0" y2="-880" stroke="#ddd" stroke-width="1" opacity="1"/><line transform="translate(300,0)" x2="0" y2="-880" stroke="#ddd" stroke-width="1" opacity="1"/></g></g><path class="foreground" aria-hidden="true" d="" pointer-events="none" display="none"/></g></g><g class="mark-group role-axis" role="graphics-symbol" aria-roledescription="axis" aria-label="X-axis titled 'perc' for a linear scale with values from 0 to 100"><g transform="translate(0.5,880.5)"><path class="background" aria-hidden="true" d="M0,0h0v0h0Z" pointer-events="none"/><g><g class="mark-rule role-axis-tick" pointer-events="none"><line transform="translate(0,0)" x2="0" y2="5" stroke="#888" stroke-width="1" opacity="1"/><line transform="translate(30,0)" x2="0" y2="5" stroke="#888" stroke-width="1" opacity="1"/><line transform="translate(60,0)" x2="0" y2="5" stroke="#888" stroke-width="1" opacity="1"/><line transform="translate(90,0)" x2="0" y2="5" stroke="#888" stroke-width="1" opacity="1"/><line transform="translate(120,0)" x2="0" y2="5" stroke="#888" stroke-width="1" opacity="1"/><line transform="translate(150,0)" x2="0" y2="5" stroke="#888" stroke-width="1" opacity="1"/><line transform="translate(180,0)" x2="0" y2="5" stroke="#888" stroke-width="1" opacity="1"/><line transform="translate(210,0)" x2="0" y2="5" stroke="#888" stroke-width="1" opacity="1"/><line transform="translate(240,0)" x2="0" y2="5" stroke="#888" stroke-width="1" opacity="1"/><line transform="translate(270,0)" x2="0" y2="5" stroke="#888" stroke-width="1" opacity="1"/><line transform="translate(300,0)" x2="0" y2="5" stroke="#888" stroke-width="1" opacity="1"/></g><g class="mark-text role-axis-label" pointer-events="none"><text text-anchor="start" transform="translate(0,15)" font-family="sans-serif" font-size="10px" fill="#000" opacity="1">0</text><text text-anchor="middle" transform="translate(30,15)" font-family="sans-serif" font-size="10px" fill="#000" opacity="1">10</text><text text-anchor="middle" transform="translate(60,15)" font-family="sans-serif" font-size="10px" fill="#000" opacity="1">20</text><text text-anchor="middle" transform="translate(90,15)" font-family="sans-serif" font-size="10px" fill="#000" opacity="1">30</text><text text-anchor="middle" transform="translate(120,15)" font-family="sans-serif" font-size="10px" fill="#000" opacity="1">40</text><text text-anchor="middle" transform="translate(150,15)" font-family="sans-serif" font-size="10px" fill="#000" opacity="1">50</text><text text-anchor="middle" transform="translate(180,15)" font-family="sans-serif" font-size="10px" fill="#000" opacity="1">60</text><text text-anchor="middle" transform="translate(210,15)" font-family="sans-serif" font-size="10px" fill="#000" opacity="1">70</text><text text-anchor="middle" transform="translate(240,15)" font-family="sans-serif" font-size="10px" fill="#000" opacity="1">80</text><text text-anchor="middle" transform="translate(270,15)" font-family="sans-serif" font-size="10px" fill="#000" opacity="1">90</text><text text-anchor="end" transform="translate(300,15)" font-family="sans-serif" font-size="10px" fill="#000" opacity="1">100</text></g><g class="mark-rule role-axis-domain" pointer-events="none"><line transform="translate(0,0)" x2="300" y2="0" stroke="#888" stroke-width="1" opacity="1"/></g><g class="mark-text role-axis-title" pointer-events="none"><text text-anchor="middle" transform="translate(150,30)" font-family="sans-serif" font-size="11px" font-weight="bold" fill="#000" opacity="1">perc</text></g></g><path class="foreground" aria-hidden="true" d="" pointer-events="none" display="none"/></g></g><g class="mark-group role-axis" role="graphics-symbol" aria-roledescription="axis" aria-label="Y-axis titled 'Study Summary' for a discrete scale with 44 values: CA 2021-01-01-07/31/2021, nan 2020-03-01-05/31/2020, nan 2020-03-11-05/25/2020, nan 2020-04-04-05/19/2020, nan 2020-04-13-06/08/2020, ending with nan 2021-12-01-01/01/2022"><g transform="translate(0.5,0.5)"><path class="background" aria-hidden="true" d="M0,0h0v0h0Z" pointer-events="none"/><g><g class="mark-rule role-axis-tick" pointer-events="none"><line transform="translate(0,10)" x2="-5" y2="0" stroke="#888" stroke-width="1" opacity="1"/><line transform="translate(0,30)" x2="-5" y2="0" stroke="#888" stroke-width="1" opacity="1"/><line transform="translate(0,50)" x2="-5" y2="0" stroke="#888" stroke-width="1" opacity="1"/><line transform="translate(0,70)" x2="-5" y2="0" stroke="#888" stroke-width="1" opacity="1"/><line transform="translate(0,90)" x2="-5" y2="0" stroke="#888" stroke-width="1" opacity="1"/><line transform="translate(0,110)" x2="-5" y2="0" stroke="#888" stroke-width="1" opacity="1"/><line transform="translate(0,130)" x2="-5" y2="0" stroke="#888" stroke-width="1" opacity="1"/><line transform="translate(0,150)" x2="-5" y2="0" stroke="#888" stroke-width="1" opacity="1"/><line transform="translate(0,170)" x2="-5" y2="0" stroke="#888" stroke-width="1" opacity="1"/><line transform="translate(0,190)" x2="-5" y2="0" stroke="#888" stroke-width="1" opacity="1"/><line transform="translate(0,210)" x2="-5" y2="0" stroke="#888" stroke-width="1" opacity="1"/><line transform="translate(0,230)" x2="-5" y2="0" stroke="#888" stroke-width="1" opacity="1"/><line transform="translate(0,250)" x2="-5" y2="0" stroke="#888" stroke-width="1" opacity="1"/><line transform="translate(0,270)" x2="-5" y2="0" stroke="#888" stroke-width="1" opacity="1"/><line transform="translate(0,290)" x2="-5" y2="0" stroke="#888" stroke-width="1" opacity="1"/><line transform="translate(0,310)" x2="-5" y2="0" stroke="#888" stroke-width="1" opacity="1"/><line transform="translate(0,330)" x2="-5" y2="0" stroke="#888" stroke-width="1" opacity="1"/><line transform="translate(0,350)" x2="-5" y2="0" stroke="#888" stroke-width="1" opacity="1"/><line transform="translate(0,370)" x2="-5" y2="0" stroke="#888" stroke-width="1" opacity="1"/><line transform="translate(0,390)" x2="-5" y2="0" stroke="#888" stroke-width="1" opacity="1"/><line transform="translate(0,410)" x2="-5" y2="0" stroke="#888" stroke-width="1" opacity="1"/><line transform="translate(0,430)" x2="-5" y2="0" stroke="#888" stroke-width="1" opacity="1"/><line transform="translate(0,450)" x2="-5" y2="0" stroke="#888" stroke-width="1" opacity="1"/><line transform="translate(0,470)" x2="-5" y2="0" stroke="#888" stroke-width="1" opacity="1"/><line transform="translate(0,490)" x2="-5" y2="0" stroke="#888" stroke-width="1" opacity="1"/><line transform="translate(0,510)" x2="-5" y2="0" stroke="#888" stroke-width="1" opacity="1"/><line transform="translate(0,530)" x2="-5" y2="0" stroke="#888" stroke-width="1" opacity="1"/><line transform="translate(0,550)" x2="-5" y2="0" stroke="#888" stroke-width="1" opacity="1"/><line transform="translate(0,570)" x2="-5" y2="0" stroke="#888" stroke-width="1" opacity="1"/><line transform="translate(0,590)" x2="-5" y2="0" stroke="#888" stroke-width="1" opacity="1"/><line transform="translate(0,610)" x2="-5" y2="0" stroke="#888" stroke-width="1" opacity="1"/><line transform="translate(0,630)" x2="-5" y2="0" stroke="#888" stroke-width="1" opacity="1"/><line transform="translate(0,650)" x2="-5" y2="0" stroke="#888" stroke-width="1" opacity="1"/><line transform="translate(0,670)" x2="-5" y2="0" stroke="#888" stroke-width="1" opacity="1"/><line transform="translate(0,690)" x2="-5" y2="0" stroke="#888" stroke-width="1" opacity="1"/><line transform="translate(0,710)" x2="-5" y2="0" stroke="#888" stroke-width="1" opacity="1"/><line transform="translate(0,730)" x2="-5" y2="0" stroke="#888" stroke-width="1" opacity="1"/><line transform="translate(0,750)" x2="-5" y2="0" stroke="#888" stroke-width="1" opacity="1"/><line transform="translate(0,770)" x2="-5" y2="0" stroke="#888" stroke-width="1" opacity="1"/><line transform="translate(0,790)" x2="-5" y2="0" stroke="#888" stroke-width="1" opacity="1"/><line transform="translate(0,810)" x2="-5" y2="0" stroke="#888" stroke-width="1" opacity="1"/><line transform="translate(0,830)" x2="-5" y2="0" stroke="#888" stroke-width="1" opacity="1"/><line transform="translate(0,850)" x2="-5" y2="0" stroke="#888" stroke-width="1" opacity="1"/><line transform="translate(0,870)" x2="-5" y2="0" stroke="#888" stroke-width="1" opacity="1"/></g><g class="mark-text role-axis-label" pointer-events="none"><text text-anchor="end" transform="translate(-7,13)" font-family="sans-serif" font-size="10px" fill="#000" opacity="1">CA 2021-01-01-07/31/2021</text><text text-anchor="end" transform="translate(-7,33)" font-family="sans-serif" font-size="10px" fill="#000" opacity="1">nan 2020-03-01-05/31/2020</text><text text-anchor="end" transform="translate(-7,53)" font-family="sans-serif" font-size="10px" fill="#000" opacity="1">nan 2020-03-11-05/25/2020</text><text text-anchor="end" transform="translate(-7,73)" font-family="sans-serif" font-size="10px" fill="#000" opacity="1">nan 2020-04-04-05/19/2020</text><text text-anchor="end" transform="translate(-7,93)" font-family="sans-serif" font-size="10px" fill="#000" opacity="1">nan 2020-04-13-06/08/2020</text><text text-anchor="end" transform="translate(-7,113)" font-family="sans-serif" font-size="10px" fill="#000" opacity="1">nan 2020-05-01-09/30/2020</text><text text-anchor="end" transform="translate(-7,133)" font-family="sans-serif" font-size="10px" fill="#000" opacity="1">nan 2020-06-01-06/30/2020</text><text text-anchor="end" transform="translate(-7,153)" font-family="sans-serif" font-size="10px" fill="#000" opacity="1">nan 2020-06-01-10/31/2020</text><text text-anchor="end" transform="translate(-7,173)" font-family="sans-serif" font-size="10px" fill="#000" opacity="1">nan 2020-06-01-10/31/2021</text><text text-anchor="end" transform="translate(-7,193)" font-family="sans-serif" font-size="10px" fill="#000" opacity="1">nan 2020-06-01-12/31/2021</text><text text-anchor="end" transform="translate(-7,213)" font-family="sans-serif" font-size="10px" fill="#000" opacity="1">nan 2020-06-15-07/12/2020</text><text text-anchor="end" transform="translate(-7,233)" font-family="sans-serif" font-size="10px" fill="#000" opacity="1">nan 2020-06-15-08/28/2021</text><text text-anchor="end" transform="translate(-7,253)" font-family="sans-serif" font-size="10px" fill="#000" opacity="1">nan 2020-06-30-07/30/2020</text><text text-anchor="end" transform="translate(-7,273)" font-family="sans-serif" font-size="10px" fill="#000" opacity="1">nan 2020-07-01-06/30/2021</text><text text-anchor="end" transform="translate(-7,293)" font-family="sans-serif" font-size="10px" fill="#000" opacity="1">nan 2020-07-01-09/30/2020</text><text text-anchor="end" transform="translate(-7,313)" font-family="sans-serif" font-size="10px" fill="#000" opacity="1">nan 2020-07-09-12/31/2020</text><text text-anchor="end" transform="translate(-7,333)" font-family="sans-serif" font-size="10px" fill="#000" opacity="1">nan 2020-08-01-08/31/2020</text><text text-anchor="end" transform="translate(-7,353)" font-family="sans-serif" font-size="10px" fill="#000" opacity="1">nan 2020-08-17-12/31/2020</text><text text-anchor="end" transform="translate(-7,373)" font-family="sans-serif" font-size="10px" fill="#000" opacity="1">nan 2020-10-01-10/31/2020</text><text text-anchor="end" transform="translate(-7,393)" font-family="sans-serif" font-size="10px" fill="#000" opacity="1">nan 2020-11-01-12/01/2020</text><text text-anchor="end" transform="translate(-7,413)" font-family="sans-serif" font-size="10px" fill="#000" opacity="1">nan 2020-11-25-01/19/2021</text><text text-anchor="end" transform="translate(-7,433)" font-family="sans-serif" font-size="10px" fill="#000" opacity="1">nan 2020-12-01-01/01/2021</text><text text-anchor="end" transform="translate(-7,453)" font-family="sans-serif" font-size="10px" fill="#000" opacity="1">nan 2020-12-01-12/31/2020</text><text text-anchor="end" transform="translate(-7,473)" font-family="sans-serif" font-size="10px" fill="#000" opacity="1">nan 2020-12-23-12/28/2020</text><text text-anchor="end" transform="translate(-7,493)" font-family="sans-serif" font-size="10px" fill="#000" opacity="1">nan 2020-12-27-04/24/2021</text><text text-anchor="end" transform="translate(-7,513)" font-family="sans-serif" font-size="10px" fill="#000" opacity="1">nan 2021-01-01-01/31/2021</text><text text-anchor="end" transform="translate(-7,533)" font-family="sans-serif" font-size="10px" fill="#000" opacity="1">nan 2021-01-01-02/01/2021</text><text text-anchor="end" transform="translate(-7,553)" font-family="sans-serif" font-size="10px" fill="#000" opacity="1">nan 2021-02-01-03/01/2021</text><text text-anchor="end" transform="translate(-7,573)" font-family="sans-serif" font-size="10px" fill="#000" opacity="1">nan 2021-03-01-04/01/2021</text><text text-anchor="end" transform="translate(-7,593)" font-family="sans-serif" font-size="10px" fill="#000" opacity="1">nan 2021-03-23-05/31/2021</text><text text-anchor="end" transform="translate(-7,613)" font-family="sans-serif" font-size="10px" fill="#000" opacity="1">nan 2021-04-01-05/01/2021</text><text text-anchor="end" transform="translate(-7,633)" font-family="sans-serif" font-size="10px" fill="#000" opacity="1">nan 2021-04-01-06/30/2021</text><text text-anchor="end" transform="translate(-7,653)" font-family="sans-serif" font-size="10px" fill="#000" opacity="1">nan 2021-05-01-06/01/2021</text><text text-anchor="end" transform="translate(-7,673)" font-family="sans-serif" font-size="10px" fill="#000" opacity="1">nan 2021-06-01-07/01/2021</text><text text-anchor="end" transform="translate(-7,693)" font-family="sans-serif" font-size="10px" fill="#000" opacity="1">nan 2021-06-23-08/17/2021</text><text text-anchor="end" transform="translate(-7,713)" font-family="sans-serif" font-size="10px" fill="#000" opacity="1">nan 2021-07-01-08/01/2021</text><text text-anchor="end" transform="translate(-7,733)" font-family="sans-serif" font-size="10px" fill="#000" opacity="1">nan 2021-08-01-09/01/2021</text><text text-anchor="end" transform="translate(-7,753)" font-family="sans-serif" font-size="10px" fill="#000" opacity="1">nan 2021-08-01-09/25/2021</text><text text-anchor="end" transform="translate(-7,773)" font-family="sans-serif" font-size="10px" fill="#000" opacity="1">nan 2021-09-01-10/01/2021</text><text text-anchor="end" transform="translate(-7,793)" font-family="sans-serif" font-size="10px" fill="#000" opacity="1">nan 2021-09-01-10/26/2021</text><text text-anchor="end" transform="translate(-7,813)" font-family="sans-serif" font-size="10px" fill="#000" opacity="1">nan 2021-09-26-11/20/2021</text><text text-anchor="end" transform="translate(-7,833)" font-family="sans-serif" font-size="10px" fill="#000" opacity="1">nan 2021-10-01-11/01/2021</text><text text-anchor="end" transform="translate(-7,853)" font-family="sans-serif" font-size="10px" fill="#000" opacity="1">nan 2021-11-01-12/01/2021</text><text text-anchor="end" transform="translate(-7,873)" font-family="sans-serif" font-size="10px" fill="#000" opacity="1">nan 2021-12-01-01/01/2022</text></g><g class="mark-rule role-axis-domain" pointer-events="none"><line transform="translate(0,0)" x2="0" y2="880" stroke="#888" stroke-width="1" opacity="1"/></g><g class="mark-text role-axis-title" pointer-events="none"><text text-anchor="middle" transform="translate(-134.994140625,440) rotate(-90) translate(0,-2)" font-family="sans-serif" font-size="11px" font-weight="bold" fill="#000" opacity="1">Study Summary</text></g></g><path class="foreground" aria-hidden="true" d="" pointer-events="none" display="none"/></g></g><g class="mark-symbol role-mark marks" role="graphics-object" aria-roledescription="symbol mark container"><path aria-label="perc: 76; Study Summary: nan 2021-04-01-06/30/2021; Reached: Percent of Cases Interviewed" role="graphics-symbol" aria-roledescription="point" transform="translate(228,630)" d="M2.739,0A2.739,2.739,0,1,1,-2.739,0A2.739,2.739,0,1,1,2.739,0" stroke="#4c78a8" stroke-width="2" opacity="0.7"/><path aria-label="perc: 82; Study Summary: nan 2020-07-01-06/30/2021; Reached: Percent of Cases Interviewed" role="graphics-symbol" aria-roledescription="point" transform="translate(245.99999999999997,270)" d="M2.739,0A2.739,2.739,0,1,1,-2.739,0A2.739,2.739,0,1,1,2.739,0" stroke="#4c78a8" stroke-width="2" opacity="0.7"/><path aria-label="perc: 87; Study Summary: nan 2020-07-01-09/30/2020; Reached: Percent of Cases Interviewed" role="graphics-symbol" aria-roledescription="point" transform="translate(261,290)" d="M2.739,0A2.739,2.739,0,1,1,-2.739,0A2.739,2.739,0,1,1,2.739,0" stroke="#4c78a8" stroke-width="2" opacity="0.7"/><path aria-label="perc: 70.65; Study Summary: nan 2020-06-15-08/28/2021; Reached: Percent of Cases Interviewed" role="graphics-symbol" aria-roledescription="point" transform="translate(211.95000000000002,230)" d="M2.739,0A2.739,2.739,0,1,1,-2.739,0A2.739,2.739,0,1,1,2.739,0" stroke="#4c78a8" stroke-width="2" opacity="0.7"/><path aria-label="perc: 42.05; Study Summary: nan 2021-06-23-08/17/2021; Reached: Percent of Cases Interviewed" role="graphics-symbol" aria-roledescription="point" transform="translate(126.14999999999999,690)" d="M2.739,0A2.739,2.739,0,1,1,-2.739,0A2.739,2.739,0,1,1,2.739,0" stroke="#4c78a8" stroke-width="2" opacity="0.7"/><path aria-label="perc: 28.93; Study Summary: nan 2021-09-01-10/26/2021; Reached: Percent of Cases Interviewed" role="graphics-symbol" aria-roledescription="point" transform="translate(86.79,790)" d="M2.739,0A2.739,2.739,0,1,1,-2.739,0A2.739,2.739,0,1,1,2.739,0" stroke="#4c78a8" stroke-width="2" opacity="0.7"/><path aria-label="perc: 71; Study Summary: nan 2020-06-15-07/12/2020; Reached: Percent of Cases Interviewed" role="graphics-symbol" aria-roledescription="point" transform="translate(213,210)" d="M2.739,0A2.739,2.739,0,1,1,-2.739,0A2.739,2.739,0,1,1,2.739,0" stroke="#4c78a8" stroke-width="2" opacity="0.7"/><path aria-label="perc: 75.6; Study Summary: nan 2020-06-01-10/31/2021; Reached: Percent of Cases Interviewed" role="graphics-symbol" aria-roledescription="point" transform="translate(226.79999999999995,170)" d="M2.739,0A2.739,2.739,0,1,1,-2.739,0A2.739,2.739,0,1,1,2.739,0" stroke="#4c78a8" stroke-width="2" opacity="0.7"/><path aria-label="perc: 59.22; Study Summary: nan 2020-06-01-10/31/2020; Reached: Percent of Cases Interviewed" role="graphics-symbol" aria-roledescription="point" transform="translate(177.66,150)" d="M2.739,0A2.739,2.739,0,1,1,-2.739,0A2.739,2.739,0,1,1,2.739,0" stroke="#4c78a8" stroke-width="2" opacity="0.7"/><path aria-label="perc: 100; Study Summary: nan 2020-06-01-10/31/2020; Reached: Percent of Cases Interviewed" role="graphics-symbol" aria-roledescription="point" transform="translate(300,150)" d="M2.739,0A2.739,2.739,0,1,1,-2.739,0A2.739,2.739,0,1,1,2.739,0" stroke="#4c78a8" stroke-width="2" opacity="0.7"/><path aria-label="perc: 99.15; Study Summary: nan 2020-06-01-10/31/2020; Reached: Percent of Cases Interviewed" role="graphics-symbol" aria-roledescription="point" transform="translate(297.45,150)" d="M2.739,0A2.739,2.739,0,1,1,-2.739,0A2.739,2.739,0,1,1,2.739,0" stroke="#4c78a8" stroke-width="2" opacity="0.7"/><path aria-label="perc: 98.63; Study Summary: nan 2020-06-01-10/31/2020; Reached: Percent of Cases Interviewed" role="graphics-symbol" aria-roledescription="point" transform="translate(295.89,150)" d="M2.739,0A2.739,2.739,0,1,1,-2.739,0A2.739,2.739,0,1,1,2.739,0" stroke="#4c78a8" stroke-width="2" opacity="0.7"/><path aria-label="perc: 99.27; Study Summary: nan 2020-06-01-10/31/2020; Reached: Percent of Cases Interviewed" role="graphics-symbol" aria-roledescription="point" transform="translate(297.81,150)" d="M2.739,0A2.739,2.739,0,1,1,-2.739,0A2.739,2.739,0,1,1,2.739,0" stroke="#4c78a8" stroke-width="2" opacity="0.7"/><path aria-label="perc: 91.23; Study Summary: nan 2020-06-01-10/31/2020; Reached: Percent of Cases Interviewed" role="graphics-symbol" aria-roledescription="point" transform="translate(273.69,150)" d="M2.739,0A2.739,2.739,0,1,1,-2.739,0A2.739,2.739,0,1,1,2.739,0" stroke="#4c78a8" stroke-width="2" opacity="0.7"/><path aria-label="perc: 84.55; Study Summary: nan 2020-06-01-10/31/2020; Reached: Percent of Cases Interviewed" role="graphics-symbol" aria-roledescription="point" transform="translate(253.64999999999998,150)" d="M2.739,0A2.739,2.739,0,1,1,-2.739,0A2.739,2.739,0,1,1,2.739,0" stroke="#4c78a8" stroke-width="2" opacity="0.7"/><path aria-label="perc: 82.7; Study Summary: nan 2020-06-01-10/31/2020; Reached: Percent of Cases Interviewed" role="graphics-symbol" aria-roledescription="point" transform="translate(248.10000000000002,150)" d="M2.739,0A2.739,2.739,0,1,1,-2.739,0A2.739,2.739,0,1,1,2.739,0" stroke="#4c78a8" stroke-width="2" opacity="0.7"/><path aria-label="perc: 77.87; Study Summary: nan 2020-06-01-10/31/2020; Reached: Percent of Cases Interviewed" role="graphics-symbol" aria-roledescription="point" transform="translate(233.61,150)" d="M2.739,0A2.739,2.739,0,1,1,-2.739,0A2.739,2.739,0,1,1,2.739,0" stroke="#4c78a8" stroke-width="2" opacity="0.7"/><path aria-label="perc: 77.49; Study Summary: nan 2020-06-01-10/31/2020; Reached: Percent of Cases Interviewed" role="graphics-symbol" aria-roledescription="point" transform="translate(232.46999999999997,150)" d="M2.739,0A2.739,2.739,0,1,1,-2.739,0A2.739,2.739,0,1,1,2.739,0" stroke="#4c78a8" stroke-width="2" opacity="0.7"/><path aria-label="perc: 74.85; Study Summary: nan 2020-06-01-10/31/2020; Reached: Percent of Cases Interviewed" role="graphics-symbol" aria-roledescription="point" transform="translate(224.54999999999998,150)" d="M2.739,0A2.739,2.739,0,1,1,-2.739,0A2.739,2.739,0,1,1,2.739,0" stroke="#4c78a8" stroke-width="2" opacity="0.7"/><path aria-label="perc: 74.03; Study Summary: nan 2020-06-01-10/31/2020; Reached: Percent of Cases Interviewed" role="graphics-symbol" aria-roledescription="point" transform="translate(222.08999999999997,150)" d="M2.739,0A2.739,2.739,0,1,1,-2.739,0A2.739,2.739,0,1,1,2.739,0" stroke="#4c78a8" stroke-width="2" opacity="0.7"/><path aria-label="perc: 48.6; Study Summary: nan 2020-06-01-10/31/2020; Reached: Percent of Cases Interviewed" role="graphics-symbol" aria-roledescription="point" transform="translate(145.79999999999998,150)" d="M2.739,0A2.739,2.739,0,1,1,-2.739,0A2.739,2.739,0,1,1,2.739,0" stroke="#4c78a8" stroke-width="2" opacity="0.7"/><path aria-label="perc: 46.7; Study Summary: nan 2020-06-01-10/31/2020; Reached: Percent of Cases Interviewed" role="graphics-symbol" aria-roledescription="point" transform="translate(140.1,150)" d="M2.739,0A2.739,2.739,0,1,1,-2.739,0A2.739,2.739,0,1,1,2.739,0" stroke="#4c78a8" stroke-width="2" opacity="0.7"/><path aria-label="perc: 32.96; Study Summary: nan 2020-06-01-10/31/2020; Reached: Percent of Cases Interviewed" role="graphics-symbol" aria-roledescription="point" transform="translate(98.88,150)" d="M2.739,0A2.739,2.739,0,1,1,-2.739,0A2.739,2.739,0,1,1,2.739,0" stroke="#4c78a8" stroke-width="2" opacity="0.7"/><path aria-label="perc: 65; Study Summary: nan 2020-08-01-08/31/2020; Reached: Percent of Cases Interviewed" role="graphics-symbol" aria-roledescription="point" transform="translate(195,330)" d="M2.739,0A2.739,2.739,0,1,1,-2.739,0A2.739,2.739,0,1,1,2.739,0" stroke="#4c78a8" stroke-width="2" opacity="0.7"/><path aria-label="perc: 76; Study Summary: nan 2020-10-01-10/31/2020; Reached: Percent of Cases Interviewed" role="graphics-symbol" aria-roledescription="point" transform="translate(228,370)" d="M2.739,0A2.739,2.739,0,1,1,-2.739,0A2.739,2.739,0,1,1,2.739,0" stroke="#4c78a8" stroke-width="2" opacity="0.7"/><path aria-label="perc: 77.49; Study Summary: nan 2020-06-01-06/30/2020; Reached: Percent of Cases Interviewed" role="graphics-symbol" aria-roledescription="point" transform="translate(232.46999999999997,130)" d="M2.739,0A2.739,2.739,0,1,1,-2.739,0A2.739,2.739,0,1,1,2.739,0" stroke="#4c78a8" stroke-width="2" opacity="0.7"/><path aria-label="perc: 99.15; Study Summary: nan 2020-06-15-07/12/2020; Reached: Percent of Cases Interviewed" role="graphics-symbol" aria-roledescription="point" transform="translate(297.45,210)" d="M2.739,0A2.739,2.739,0,1,1,-2.739,0A2.739,2.739,0,1,1,2.739,0" stroke="#4c78a8" stroke-width="2" opacity="0.7"/><path aria-label="perc: 44.31; Study Summary: nan 2021-01-01-02/01/2021; Reached: Percent of Cases Interviewed" role="graphics-symbol" aria-roledescription="point" transform="translate(132.93,530)" d="M2.739,0A2.739,2.739,0,1,1,-2.739,0A2.739,2.739,0,1,1,2.739,0" stroke="#4c78a8" stroke-width="2" opacity="0.7"/><path aria-label="perc: 50.45; Study Summary: nan 2021-02-01-03/01/2021; Reached: Percent of Cases Interviewed" role="graphics-symbol" aria-roledescription="point" transform="translate(151.35000000000002,550)" d="M2.739,0A2.739,2.739,0,1,1,-2.739,0A2.739,2.739,0,1,1,2.739,0" stroke="#4c78a8" stroke-width="2" opacity="0.7"/><path aria-label="perc: 57.05; Study Summary: nan 2021-03-01-04/01/2021; Reached: Percent of Cases Interviewed" role="graphics-symbol" aria-roledescription="point" transform="translate(171.15,570)" d="M2.739,0A2.739,2.739,0,1,1,-2.739,0A2.739,2.739,0,1,1,2.739,0" stroke="#4c78a8" stroke-width="2" opacity="0.7"/><path aria-label="perc: 55.61; Study Summary: nan 2021-04-01-05/01/2021; Reached: Percent of Cases Interviewed" role="graphics-symbol" aria-roledescription="point" transform="translate(166.83,610)" d="M2.739,0A2.739,2.739,0,1,1,-2.739,0A2.739,2.739,0,1,1,2.739,0" stroke="#4c78a8" stroke-width="2" opacity="0.7"/><path aria-label="perc: 55.59; Study Summary: nan 2021-05-01-06/01/2021; Reached: Percent of Cases Interviewed" role="graphics-symbol" aria-roledescription="point" transform="translate(166.77,650)" d="M2.739,0A2.739,2.739,0,1,1,-2.739,0A2.739,2.739,0,1,1,2.739,0" stroke="#4c78a8" stroke-width="2" opacity="0.7"/><path aria-label="perc: 48.96; Study Summary: nan 2021-06-01-07/01/2021; Reached: Percent of Cases Interviewed" role="graphics-symbol" aria-roledescription="point" transform="translate(146.88000000000002,670)" d="M2.739,0A2.739,2.739,0,1,1,-2.739,0A2.739,2.739,0,1,1,2.739,0" stroke="#4c78a8" stroke-width="2" opacity="0.7"/><path aria-label="perc: 42.39; Study Summary: nan 2021-07-01-08/01/2021; Reached: Percent of Cases Interviewed" role="graphics-symbol" aria-roledescription="point" transform="translate(127.17,710)" d="M2.739,0A2.739,2.739,0,1,1,-2.739,0A2.739,2.739,0,1,1,2.739,0" stroke="#4c78a8" stroke-width="2" opacity="0.7"/><path aria-label="perc: 31.27; Study Summary: nan 2021-08-01-09/01/2021; Reached: Percent of Cases Interviewed" role="graphics-symbol" aria-roledescription="point" transform="translate(93.80999999999999,730)" d="M2.739,0A2.739,2.739,0,1,1,-2.739,0A2.739,2.739,0,1,1,2.739,0" stroke="#4c78a8" stroke-width="2" opacity="0.7"/><path aria-label="perc: 30.21; Study Summary: nan 2021-09-01-10/01/2021; Reached: Percent of Cases Interviewed" role="graphics-symbol" aria-roledescription="point" transform="translate(90.63000000000001,770)" d="M2.739,0A2.739,2.739,0,1,1,-2.739,0A2.739,2.739,0,1,1,2.739,0" stroke="#4c78a8" stroke-width="2" opacity="0.7"/><path aria-label="perc: 42.57; Study Summary: nan 2021-10-01-11/01/2021; Reached: Percent of Cases Interviewed" role="graphics-symbol" aria-roledescription="point" transform="translate(127.71000000000001,830)" d="M2.739,0A2.739,2.739,0,1,1,-2.739,0A2.739,2.739,0,1,1,2.739,0" stroke="#4c78a8" stroke-width="2" opacity="0.7"/><path aria-label="perc: 48.15; Study Summary: nan 2020-11-01-12/01/2020; Reached: Percent of Cases Interviewed" role="graphics-symbol" aria-roledescription="point" transform="translate(144.45,390)" d="M2.739,0A2.739,2.739,0,1,1,-2.739,0A2.739,2.739,0,1,1,2.739,0" stroke="#4c78a8" stroke-width="2" opacity="0.7"/><path aria-label="perc: 42.64; Study Summary: nan 2021-11-01-12/01/2021; Reached: Percent of Cases Interviewed" role="graphics-symbol" aria-roledescription="point" transform="translate(127.92,850)" d="M2.739,0A2.739,2.739,0,1,1,-2.739,0A2.739,2.739,0,1,1,2.739,0" stroke="#4c78a8" stroke-width="2" opacity="0.7"/><path aria-label="perc: 42.34; Study Summary: nan 2020-12-01-01/01/2021; Reached: Percent of Cases Interviewed" role="graphics-symbol" aria-roledescription="point" transform="translate(127.02000000000001,430)" d="M2.739,0A2.739,2.739,0,1,1,-2.739,0A2.739,2.739,0,1,1,2.739,0" stroke="#4c78a8" stroke-width="2" opacity="0.7"/><path aria-label="perc: 26.61; Study Summary: nan 2021-12-01-01/01/2022; Reached: Percent of Cases Interviewed" role="graphics-symbol" aria-roledescription="point" transform="translate(79.83,870)" d="M2.739,0A2.739,2.739,0,1,1,-2.739,0A2.739,2.739,0,1,1,2.739,0" stroke="#4c78a8" stroke-width="2" opacity="0.7"/><path aria-label="perc: 58.7; Study Summary: nan 2020-07-09-12/31/2020; Reached: Percent of Cases Interviewed" role="graphics-symbol" aria-roledescription="point" transform="translate(176.10000000000002,310)" d="M2.739,0A2.739,2.739,0,1,1,-2.739,0A2.739,2.739,0,1,1,2.739,0" stroke="#4c78a8" stroke-width="2" opacity="0.7"/><path aria-label="perc: 100; Study Summary: nan 2020-03-01-05/31/2020; Reached: Percent of Cases Interviewed" role="graphics-symbol" aria-roledescription="point" transform="translate(300,30)" d="M2.739,0A2.739,2.739,0,1,1,-2.739,0A2.739,2.739,0,1,1,2.739,0" stroke="#4c78a8" stroke-width="2" opacity="0.7"/><path aria-label="perc: 66.86; Study Summary: nan 2020-03-11-05/25/2020; Reached: Percent of Cases Interviewed" role="graphics-symbol" aria-roledescription="point" transform="translate(200.57999999999998,50)" d="M2.739,0A2.739,2.739,0,1,1,-2.739,0A2.739,2.739,0,1,1,2.739,0" stroke="#4c78a8" stroke-width="2" opacity="0.7"/><path aria-label="perc: 65.61; Study Summary: CA 2021-01-01-07/31/2021; Reached: Percent of Cases Interviewed" role="graphics-symbol" aria-roledescription="point" transform="translate(196.83,10)" d="M2.739,0A2.739,2.739,0,1,1,-2.739,0A2.739,2.739,0,1,1,2.739,0" stroke="#4c78a8" stroke-width="2" opacity="0.7"/><path aria-label="perc: 45; Study Summary: nan 2020-05-01-09/30/2020; Reached: Percent of Cases Interviewed" role="graphics-symbol" aria-roledescription="point" transform="translate(135,110)" d="M2.739,0A2.739,2.739,0,1,1,-2.739,0A2.739,2.739,0,1,1,2.739,0" stroke="#4c78a8" stroke-width="2" opacity="0.7"/><path aria-label="perc: 76; Study Summary: nan 2020-08-17-12/31/2020; Reached: Percent of Cases Interviewed" role="graphics-symbol" aria-roledescription="point" transform="translate(228,350)" d="M2.739,0A2.739,2.739,0,1,1,-2.739,0A2.739,2.739,0,1,1,2.739,0" stroke="#4c78a8" stroke-width="2" opacity="0.7"/><path aria-label="perc: 48.99; Study Summary: nan 2020-04-04-05/19/2020; Reached: Percent of Cases Interviewed" role="graphics-symbol" aria-roledescription="point" transform="translate(146.97,70)" d="M2.739,0A2.739,2.739,0,1,1,-2.739,0A2.739,2.739,0,1,1,2.739,0" stroke="#4c78a8" stroke-width="2" opacity="0.7"/><path aria-label="perc: 98; Study Summary: nan 2020-06-01-12/31/2021; Reached: Percent of Cases Interviewed" role="graphics-symbol" aria-roledescription="point" transform="translate(294,190)" d="M2.739,0A2.739,2.739,0,1,1,-2.739,0A2.739,2.739,0,1,1,2.739,0" stroke="#4c78a8" stroke-width="2" opacity="0.7"/><path aria-label="perc: 85.36; Study Summary: nan 2020-04-13-06/08/2020; Reached: Percent of Cases Interviewed" role="graphics-symbol" aria-roledescription="point" transform="translate(256.08,90)" d="M2.739,0A2.739,2.739,0,1,1,-2.739,0A2.739,2.739,0,1,1,2.739,0" stroke="#4c78a8" stroke-width="2" opacity="0.7"/><path aria-label="perc: 83; Study Summary: nan 2021-08-01-09/25/2021; Reached: Percent of Cases Interviewed" role="graphics-symbol" aria-roledescription="point" transform="translate(249,750)" d="M2.739,0A2.739,2.739,0,1,1,-2.739,0A2.739,2.739,0,1,1,2.739,0" stroke="#4c78a8" stroke-width="2" opacity="0.7"/><path aria-label="perc: 78; Study Summary: nan 2021-09-26-11/20/2021; Reached: Percent of Cases Interviewed" role="graphics-symbol" aria-roledescription="point" transform="translate(234,810)" d="M2.739,0A2.739,2.739,0,1,1,-2.739,0A2.739,2.739,0,1,1,2.739,0" stroke="#4c78a8" stroke-width="2" opacity="0.7"/><path aria-label="perc: 84; Study Summary: nan 2020-11-25-01/19/2021; Reached: Percent of Cases Interviewed" role="graphics-symbol" aria-roledescription="point" transform="translate(252,410)" d="M2.739,0A2.739,2.739,0,1,1,-2.739,0A2.739,2.739,0,1,1,2.739,0" stroke="#4c78a8" stroke-width="2" opacity="0.7"/><path aria-label="perc: 37.3; Study Summary: nan 2020-12-27-04/24/2021; Reached: Percent of Cases Interviewed" role="graphics-symbol" aria-roledescription="point" transform="translate(111.9,490)" d="M2.739,0A2.739,2.739,0,1,1,-2.739,0A2.739,2.739,0,1,1,2.739,0" stroke="#4c78a8" stroke-width="2" opacity="0.7"/><path aria-label="perc: 79.01; Study Summary: nan 2020-06-15-08/28/2021; Reached: Percent of Cases Reached" role="graphics-symbol" aria-roledescription="point" transform="translate(237.03,230)" d="M2.739,0A2.739,2.739,0,1,1,-2.739,0A2.739,2.739,0,1,1,2.739,0" stroke="#f58518" stroke-width="2" opacity="0.7"/><path aria-label="perc: 63.2; Study Summary: nan 2020-12-23-12/28/2020; Reached: Percent of Cases Reached" role="graphics-symbol" aria-roledescription="point" transform="translate(189.6,470)" d="M2.739,0A2.739,2.739,0,1,1,-2.739,0A2.739,2.739,0,1,1,2.739,0" stroke="#f58518" stroke-width="2" opacity="0.7"/><path aria-label="perc: 75.36; Study Summary: nan 2021-06-23-08/17/2021; Reached: Percent of Cases Reached" role="graphics-symbol" aria-roledescription="point" transform="translate(226.08,690)" d="M2.739,0A2.739,2.739,0,1,1,-2.739,0A2.739,2.739,0,1,1,2.739,0" stroke="#f58518" stroke-width="2" opacity="0.7"/><path aria-label="perc: 59.63; Study Summary: nan 2021-09-01-10/26/2021; Reached: Percent of Cases Reached" role="graphics-symbol" aria-roledescription="point" transform="translate(178.89000000000001,790)" d="M2.739,0A2.739,2.739,0,1,1,-2.739,0A2.739,2.739,0,1,1,2.739,0" stroke="#f58518" stroke-width="2" opacity="0.7"/><path aria-label="perc: 69.2; Study Summary: nan 2020-12-01-12/31/2020; Reached: Percent of Cases Reached" role="graphics-symbol" aria-roledescription="point" transform="translate(207.60000000000002,450)" d="M2.739,0A2.739,2.739,0,1,1,-2.739,0A2.739,2.739,0,1,1,2.739,0" stroke="#f58518" stroke-width="2" opacity="0.7"/><path aria-label="perc: 60.86; Study Summary: nan 2021-01-01-01/31/2021; Reached: Percent of Cases Reached" role="graphics-symbol" aria-roledescription="point" transform="translate(182.58,510)" d="M2.739,0A2.739,2.739,0,1,1,-2.739,0A2.739,2.739,0,1,1,2.739,0" stroke="#f58518" stroke-width="2" opacity="0.7"/><path aria-label="perc: 80.09; Study Summary: nan 2020-06-15-07/12/2020; Reached: Percent of Cases Reached" role="graphics-symbol" aria-roledescription="point" transform="translate(240.27,210)" d="M2.739,0A2.739,2.739,0,1,1,-2.739,0A2.739,2.739,0,1,1,2.739,0" stroke="#f58518" stroke-width="2" opacity="0.7"/><path aria-label="perc: 89.36; Study Summary: nan 2020-06-01-10/31/2021; Reached: Percent of Cases Reached" role="graphics-symbol" aria-roledescription="point" transform="translate(268.08,170)" d="M2.739,0A2.739,2.739,0,1,1,-2.739,0A2.739,2.739,0,1,1,2.739,0" stroke="#f58518" stroke-width="2" opacity="0.7"/><path aria-label="perc: 77.54; Study Summary: nan 2020-08-01-08/31/2020; Reached: Percent of Cases Reached" role="graphics-symbol" aria-roledescription="point" transform="translate(232.62000000000003,330)" d="M2.739,0A2.739,2.739,0,1,1,-2.739,0A2.739,2.739,0,1,1,2.739,0" stroke="#f58518" stroke-width="2" opacity="0.7"/><path aria-label="perc: 82.73; Study Summary: nan 2020-10-01-10/31/2020; Reached: Percent of Cases Reached" role="graphics-symbol" aria-roledescription="point" transform="translate(248.19,370)" d="M2.739,0A2.739,2.739,0,1,1,-2.739,0A2.739,2.739,0,1,1,2.739,0" stroke="#f58518" stroke-width="2" opacity="0.7"/><path aria-label="perc: 57.92; Study Summary: nan 2021-03-23-05/31/2021; Reached: Percent of Cases Reached" role="graphics-symbol" aria-roledescription="point" transform="translate(173.76000000000002,590)" d="M2.739,0A2.739,2.739,0,1,1,-2.739,0A2.739,2.739,0,1,1,2.739,0" stroke="#f58518" stroke-width="2" opacity="0.7"/><path aria-label="perc: 88.94; Study Summary: nan 2020-07-09-12/31/2020; Reached: Percent of Cases Reached" role="graphics-symbol" aria-roledescription="point" transform="translate(266.82,310)" d="M2.739,0A2.739,2.739,0,1,1,-2.739,0A2.739,2.739,0,1,1,2.739,0" stroke="#f58518" stroke-width="2" opacity="0.7"/><path aria-label="perc: 71.59; Study Summary: CA 2021-01-01-07/31/2021; Reached: Percent of Cases Reached" role="graphics-symbol" aria-roledescription="point" transform="translate(214.76999999999998,10)" d="M2.739,0A2.739,2.739,0,1,1,-2.739,0A2.739,2.739,0,1,1,2.739,0" stroke="#f58518" stroke-width="2" opacity="0.7"/><path aria-label="perc: 56.88; Study Summary: nan 2020-04-04-05/19/2020; Reached: Percent of Cases Reached" role="graphics-symbol" aria-roledescription="point" transform="translate(170.64,70)" d="M2.739,0A2.739,2.739,0,1,1,-2.739,0A2.739,2.739,0,1,1,2.739,0" stroke="#f58518" stroke-width="2" opacity="0.7"/><path aria-label="perc: 89; Study Summary: nan 2020-06-01-12/31/2021; Reached: Percent of Cases Reached" role="graphics-symbol" aria-roledescription="point" transform="translate(267,190)" d="M2.739,0A2.739,2.739,0,1,1,-2.739,0A2.739,2.739,0,1,1,2.739,0" stroke="#f58518" stroke-width="2" opacity="0.7"/><path aria-label="perc: 57.16; Study Summary: nan 2020-12-27-04/24/2021; Reached: Percent of Cases Reached" role="graphics-symbol" aria-roledescription="point" transform="translate(171.48,490)" d="M2.739,0A2.739,2.739,0,1,1,-2.739,0A2.739,2.739,0,1,1,2.739,0" stroke="#f58518" stroke-width="2" opacity="0.7"/><path aria-label="perc: 87.97; Study Summary: nan 2020-06-30-07/30/2020; Reached: Percent of Cases Reached" role="graphics-symbol" aria-roledescription="point" transform="translate(263.91,250)" d="M2.739,0A2.739,2.739,0,1,1,-2.739,0A2.739,2.739,0,1,1,2.739,0" stroke="#f58518" stroke-width="2" opacity="0.7"/></g><g class="mark-group role-legend" role="graphics-symbol" aria-roledescription="legend" aria-label="Symbol legend titled 'Reached' for stroke color with 2 values: Percent of Cases Interviewed, Percent of Cases Reached"><g transform="translate(318,0)"><path class="background" aria-hidden="true" d="M0,0h147v45h-147Z" pointer-events="none"/><g><g class="mark-group role-legend-entry"><g transform="translate(0,16)"><path class="background" aria-hidden="true" d="M0,0h0v0h0Z" pointer-events="none"/><g><g class="mark-group role-scope" role="graphics-object" aria-roledescription="group mark container"><g transform="translate(0,0)"><path class="background" aria-hidden="true" d="M0,0h146.6201171875v12.5h-146.6201171875Z" pointer-events="none" opacity="1"/><g><g class="mark-symbol role-legend-symbol" pointer-events="none"><path transform="translate(6,6)" d="M5,0A5,5,0,1,1,-5,0A5,5,0,1,1,5,0" stroke="#4c78a8" stroke-width="1.5" opacity="0.7"/></g><g class="mark-text role-legend-label" pointer-events="none"><text text-anchor="start" transform="translate(16,9)" font-family="sans-serif" font-size="10px" fill="#000" opacity="1">Percent of Cases Interviewed</text></g></g><path class="foreground" aria-hidden="true" d="" pointer-events="none" display="none"/></g><g transform="translate(0,16)"><path class="background" aria-hidden="true" d="M0,0h146.6201171875v12.5h-146.6201171875Z" pointer-events="none" opacity="1"/><g><g class="mark-symbol role-legend-symbol" pointer-events="none"><path transform="translate(6,6)" d="M5,0A5,5,0,1,1,-5,0A5,5,0,1,1,5,0" stroke="#f58518" stroke-width="1.5" opacity="0.7"/></g><g class="mark-text role-legend-label" pointer-events="none"><text text-anchor="start" transform="translate(16,9)" font-family="sans-serif" font-size="10px" fill="#000" opacity="1">Percent of Cases Reached</text></g></g><path class="foreground" aria-hidden="true" d="" pointer-events="none" display="none"/></g></g></g><path class="foreground" aria-hidden="true" d="" pointer-events="none" display="none"/></g></g><g class="mark-text role-legend-title" pointer-events="none"><text text-anchor="start" transform="translate(0,9)" font-family="sans-serif" font-size="11px" font-weight="bold" fill="#000" opacity="1">Reached</text></g></g><path class="foreground" aria-hidden="true" d="" pointer-events="none" display="none"/></g></g></g><path class="foreground" aria-hidden="true" d="" display="none"/></g></g></g></svg>