<svg xmlns="http://www.w3.org/2000/svg" xmlns:xlink="http://www.w3.org/1999/xlink" version="1.1" class="marks" width="890" height="363" viewBox="0 0 890 363"><rect width="890" height="363" fill="white"/><g fill="none" stroke-miterlimit="10" transform="translate(39,10)"><g class="mark-group role-frame root" role="graphics-object" aria-roledescription="group mark container"><g transform="translate(0,0)"><path class="background" aria-hidden="true" d="M0.5,0.5h650v200h-650Z" stroke="#ddd"/><g><g class="mark-group role-axis" aria-hidden="true"><g transform="translate(0.5,200.5)"><path class="background" aria-hidden="true" d="M0,0h0v0h0Z" pointer-events="none"/><g><g class="mark-rule role-axis-grid" pointer-events="none"><line transform="translate(0,-200)" x2="0" y2="200" stroke="#ddd" stroke-width="1" opacity="1"/><line transform="translate(50,-200)" x2="0" y2="200" stroke="#ddd" stroke-width="1" opacity="1"/><line transform="translate(100,-200)" x2="0" y2="200" stroke="#ddd" stroke-width="1" opacity="1"/><line transform="translate(150,-200)" x2="0" y2="200" stroke="#ddd" stroke-width="1" opacity="1"/><line transform="translate(200,-200)" x2="0" y2="200" stroke="#ddd" stroke-width="1" opacity="1"/><line transform="translate(250,-200)" x2="0" y2="200" stroke="#ddd" stroke-width="1" opacity="1"/><line transform="translate(300,-200)" x2="0" y2="200" stroke="#ddd" stroke-width="1" opacity="1"/><line transform="translate(350,-200)" x2="0" y2="200" stroke="#ddd" stroke-width="1" opacity="1"/><line transform="translate(400,-200)" x2="0" y2="200" stroke="#ddd" stroke-width="1" opacity="1"/><line transform="translate(450,-200)" x2="0" y2="200" stroke="#ddd" stroke-width="1" opacity="1"/><line transform="translate(500,-200)" x2="0" y2="200" stroke="#ddd" stroke-width="1" opacity="1"/><line transform="translate(550,-200)" x2="0" y2="200" stroke="#ddd" stroke-width="1" opacity="1"/><line transform="translate(600,-200)" x2="0" y2="200" stroke="#ddd" stroke-width="1" opacity="1"/><line transform="translate(650,-200)" x2="0" y2="200" stroke="#ddd" stroke-width="1" opacity="1"/></g></g><path class="foreground" aria-hidden="true" d="" pointer-events="none" display="none"/></g></g><g class="mark-group role-axis" aria-hidden="true"><g transform="translate(0.5,0.5)"><path class="background" aria-hidden="true" d="M0,0h0v0h0Z" pointer-events="none"/><g><g class="mark-rule role-axis-grid" pointer-events="none"><line transform="translate(0,200)" x2="650" y2="0" stroke="#ddd" stroke-width="1" opacity="1"/><line transform="translate(0,167)" x2="650" y2="0" stroke="#ddd" stroke-width="1" opacity="1"/><line transform="translate(0,133)" x2="650" y2="0" stroke="#ddd" stroke-width="1" opacity="1"/><line transform="translate(0,100)" x2="650" y2="0" stroke="#ddd" stroke-width="1" opacity="1"/><line transform="translate(0,67)" x2="650" y2="0" stroke="#ddd" stroke-width="1" opacity="1"/><line transform="translate(0,33)" x2="650" y2="0" stroke="#ddd" stroke-width="1" opacity="1"/><line transform="translate(0,0)" x2="650" y2="0" stroke="#ddd" stroke-width="1" opacity="1"/></g></g><path class="foreground" aria-hidden="true" d="" pointer-events="none" display="none"/></g></g><g class="mark-group role-axis" role="graphics-symbol" aria-roledescription="axis" aria-label="X-axis titled 'Count of Cases Assigned' for a linear scale with values from 0 to 6,500,000"><g transform="translate(0.5,200.5)"><path class="background" aria-hidden="true" d="M0,0h0v0h0Z" pointer-events="none"/><g><g class="mark-rule role-axis-tick" pointer-events="none"><line transform="translate(0,0)" x2="0" y2="5" stroke="#888" stroke-width="1" opacity="1"/><line transform="translate(50,0)" x2="0" y2="5" stroke="#888" stroke-width="1" opacity="1"/><line transform="translate(100,0)" x2="0" y2="5" stroke="#888" stroke-width="1" opacity="1"/><line transform="translate(150,0)" x2="0" y2="5" stroke="#888" stroke-width="1" opacity="1"/><line transform="translate(200,0)" x2="0" y2="5" stroke="#888" stroke-width="1" opacity="1"/><line transform="translate(250,0)" x2="0" y2="5" stroke="#888" stroke-width="1" opacity="1"/><line transform="translate(300,0)" x2="0" y2="5" stroke="#888" stroke-width="1" opacity="1"/><line transform="translate(350,0)" x2="0" y2="5" stroke="#888" stroke-width="1" opacity="1"/><line transform="translate(400,0)" x2="0" y2="5" stroke="#888" stroke-width="1" opacity="1"/><line transform="translate(450,0)" x2="0" y2="5" stroke="#888" stroke-width="1" opacity="1"/><line transform="translate(500,0)" x2="0" y2="5" stroke="#888" stroke-width="1" opacity="1"/><line transform="translate(550,0)" x2="0" y2="5" stroke="#888" stroke-width="1" opacity="1"/><line transform="translate(600,0)" x2="0" y2="5" stroke="#888" stroke-width="1" opacity="1"/><line transform="translate(650,0)" x2="0" y2="5" stroke="#888" stroke-width="1" opacity="1"/></g><g class="mark-text role-axis-label" pointer-events="none"><text text-anchor="start" transform="translate(0,15)" font-family="sans-serif" font-size="10px" fill="#000" opacity="1">0</text><text text-anchor="middle" transform="translate(50,15)" font-family="sans-serif" font-size="10px" fill="#000" opacity="0">500,000</text><text text-anchor="middle" transform="translate(100,15)" font-family="sans-serif" font-size="10px" fill="#000" opacity="1">1,000,000</text><text text-anchor="middle" transform="translate(150,15)" font-family="sans-serif" font-size="10px" fill="#000" opacity="0">1,500,000</text><text text-anchor="middle" transform="translate(200,15)" font-family="sans-serif" font-size="10px" fill="#000" opacity="1">2,000,000</text><text text-anchor="middle" transform="translate(250,15)" font-family="sans-serif" font-size="10px" fill="#000" opacity="0">2,500,000</text><text text-anchor="middle" transform="translate(300,15)" font-family="sans-serif" font-size="10px" fill="#000" opacity="1">3,000,000</text><text text-anchor="middle" transform="translate(350,15)" font-family="sans-serif" font-size="10px" fill="#000" opacity="0">3,500,000</text><text text-anchor="middle" transform="translate(400,15)" font-family="sans-serif" font-size="10px" fill="#000" opacity="1">4,000,000</text><text text-anchor="middle" transform="translate(450,15)" font-family="sans-serif" font-size="10px" fill="#000" opacity="0">4,500,000</text><text text-anchor="middle" transform="translate(500,15)" font-family="sans-serif" font-size="10px" fill="#000" opacity="1">5,000,000</text><text text-anchor="middle" transform="translate(550,15)" font-family="sans-serif" font-size="10px" fill="#000" opacity="0">5,500,000</text><text text-anchor="middle" transform="translate(600,15)" font-family="sans-serif" font-size="10px" fill="#000" opacity="1">6,000,000</text><text text-anchor="end" transform="translate(650,15)" font-family="sans-serif" font-size="10px" fill="#000" opacity="0">6,500,000</text></g><g class="mark-rule role-axis-domain" pointer-events="none"><line transform="translate(0,0)" x2="650" y2="0" stroke="#888" stroke-width="1" opacity="1"/></g><g class="mark-text role-axis-title" pointer-events="none"><text text-anchor="middle" transform="translate(325,30)" font-family="sans-serif" font-size="11px" font-weight="bold" fill="#000" opacity="1">Count of Cases Assigned</text></g></g><path class="foreground" aria-hidden="true" d="" pointer-events="none" display="none"/></g></g><g class="mark-group role-axis" role="graphics-symbol" aria-roledescription="axis" aria-label="Y-axis titled 'Percent of Cases Interviewed' for a linear scale with values from 0 to 60"><g transform="translate(0.5,0.5)"><path class="background" aria-hidden="true" d="M0,0h0v0h0Z" pointer-events="none"/><g><g class="mark-rule role-axis-tick" pointer-events="none"><line transform="translate(0,200)" x2="-5" y2="0" stroke="#888" stroke-width="1" opacity="1"/><line transform="translate(0,167)" x2="-5" y2="0" stroke="#888" stroke-width="1" opacity="1"/><line transform="translate(0,133)" x2="-5" y2="0" stroke="#888" stroke-width="1" opacity="1"/><line transform="translate(0,100)" x2="-5" y2="0" stroke="#888" stroke-width="1" opacity="1"/><line transform="translate(0,67)" x2="-5" y2="0" stroke="#888" stroke-width="1" opacity="1"/><line transform="translate(0,33)" x2="-5" y2="0" stroke="#888" stroke-width="1" opacity="1"/><line transform="translate(0,0)" x2="-5" y2="0" stroke="#888" stroke-width="1" opacity="1"/></g><g class="mark-text role-axis-label" pointer-events="none"><text text-anchor="end" transform="translate(-7,203)" font-family="sans-serif" font-size="10px" fill="#000" opacity="1">0</text><text text-anchor="end" transform="translate(-7,169.66666666666669)" font-family="sans-serif" font-size="10px" fill="#000" opacity="1">10</text><text text-anchor="end" transform="translate(-7,136.33333333333334)" font-family="sans-serif" font-size="10px" fill="#000" opacity="1">20</text><text text-anchor="end" transform="translate(-7,103)" font-family="sans-serif" font-size="10px" fill="#000" opacity="1">30</text><text text-anchor="end" transform="translate(-7,69.66666666666667)" font-family="sans-serif" font-size="10px" fill="#000" opacity="1">40</text><text text-anchor="end" transform="translate(-7,36.33333333333333)" font-family="sans-serif" font-size="10px" fill="#000" opacity="1">50</text><text text-anchor="end" transform="translate(-7,3)" font-family="sans-serif" font-size="10px" fill="#000" opacity="1">60</text></g><g class="mark-rule role-axis-domain" pointer-events="none"><line transform="translate(0,200)" x2="0" y2="-200" stroke="#888" stroke-width="1" opacity="1"/></g><g class="mark-text role-axis-title" pointer-events="none"><text text-anchor="middle" transform="translate(-22.123046875,100) rotate(-90) translate(0,-2)" font-family="sans-serif" font-size="11px" font-weight="bold" fill="#000" opacity="1">Percent of Cases Interviewed</text></g></g><path class="foreground" aria-hidden="true" d="" pointer-events="none" display="none"/></g></g><g class="mark-symbol role-mark layer_0_marks" role="graphics-object" aria-roledescription="symbol mark container"><path aria-label="Count of Cases Assigned: 6050877; Percent of Cases Interviewed: 44.31; Start Date: Dec 31, 2020; Count of Case Investigators Hired: 54587" role="graphics-symbol" aria-roledescription="point" transform="translate(605.0877,52.29999999999999)" d="M9.494,0A9.494,9.494,0,1,1,-9.494,0A9.494,9.494,0,1,1,9.494,0" stroke="rgb(160, 216, 224)" stroke-width="2" opacity="0.7"/><path aria-label="Count of Cases Assigned: 3079448; Percent of Cases Interviewed: 50.45; Start Date: Jan 31, 2021; Count of Case Investigators Hired: 51794" role="graphics-symbol" aria-roledescription="point" transform="translate(307.9448,31.833333333333314)" d="M9.251,0A9.251,9.251,0,1,1,-9.251,0A9.251,9.251,0,1,1,9.251,0" stroke="rgb(155, 218, 218)" stroke-width="2" opacity="0.7"/><path aria-label="Count of Cases Assigned: 1661864; Percent of Cases Interviewed: 57.05; Start Date: Feb 28, 2021; Count of Case Investigators Hired: 43401" role="graphics-symbol" aria-roledescription="point" transform="translate(166.18640000000002,9.83333333333334)" d="M8.478,0A8.478,8.478,0,1,1,-8.478,0A8.478,8.478,0,1,1,8.478,0" stroke="rgb(153, 220, 211)" stroke-width="2" opacity="0.7"/><path aria-label="Count of Cases Assigned: 2046549; Percent of Cases Interviewed: 55.61; Start Date: Mar 31, 2021; Count of Case Investigators Hired: 42009" role="graphics-symbol" aria-roledescription="point" transform="translate(204.65490000000003,14.633333333333344)" d="M8.343,0A8.343,8.343,0,1,1,-8.343,0A8.343,8.343,0,1,1,8.343,0" stroke="rgb(154, 221, 201)" stroke-width="2" opacity="0.7"/><path aria-label="Count of Cases Assigned: 1107656; Percent of Cases Interviewed: 55.59; Start Date: Apr 30, 2021; Count of Case Investigators Hired: 32989" role="graphics-symbol" aria-roledescription="point" transform="translate(110.76559999999999,14.69999999999998)" d="M7.408,0A7.408,7.408,0,1,1,-7.408,0A7.408,7.408,0,1,1,7.408,0" stroke="rgb(158, 222, 190)" stroke-width="2" opacity="0.7"/><path aria-label="Count of Cases Assigned: 444318; Percent of Cases Interviewed: 48.96; Start Date: May 31, 2021; Count of Case Investigators Hired: 26393" role="graphics-symbol" aria-roledescription="point" transform="translate(44.4318,36.79999999999999)" d="M6.641,0A6.641,6.641,0,1,1,-6.641,0A6.641,6.641,0,1,1,6.641,0" stroke="rgb(167, 221, 178)" stroke-width="2" opacity="0.7"/><path aria-label="Count of Cases Assigned: 1241487; Percent of Cases Interviewed: 42.39; Start Date: Jun 30, 2021; Count of Case Investigators Hired: 26288" role="graphics-symbol" aria-roledescription="point" transform="translate(124.1487,58.699999999999996)" d="M6.628,0A6.628,6.628,0,1,1,-6.628,0A6.628,6.628,0,1,1,6.628,0" stroke="rgb(177, 220, 167)" stroke-width="2" opacity="0.7"/><path aria-label="Count of Cases Assigned: 4046250; Percent of Cases Interviewed: 31.27; Start Date: Jul 31, 2021; Count of Case Investigators Hired: 28578" role="graphics-symbol" aria-roledescription="point" transform="translate(404.62500000000006,95.76666666666667)" d="M6.904,0A6.904,6.904,0,1,1,-6.904,0A6.904,6.904,0,1,1,6.904,0" stroke="rgb(190, 219, 156)" stroke-width="2" opacity="0.7"/><path aria-label="Count of Cases Assigned: 4363750; Percent of Cases Interviewed: 30.21; Start Date: Aug 31, 2021; Count of Case Investigators Hired: 29657" role="graphics-symbol" aria-roledescription="point" transform="translate(436.375,99.29999999999998)" d="M7.031,0A7.031,7.031,0,1,1,-7.031,0A7.031,7.031,0,1,1,7.031,0" stroke="rgb(205, 216, 147)" stroke-width="2" opacity="0.7"/><path aria-label="Count of Cases Assigned: 2266428; Percent of Cases Interviewed: 42.57; Start Date: Sep 30, 2021; Count of Case Investigators Hired: 30094" role="graphics-symbol" aria-roledescription="point" transform="translate(226.6428,58.099999999999994)" d="M7.081,0A7.081,7.081,0,1,1,-7.081,0A7.081,7.081,0,1,1,7.081,0" stroke="rgb(220, 212, 141)" stroke-width="2" opacity="0.7"/><path aria-label="Count of Cases Assigned: 3861466; Percent of Cases Interviewed: 48.15; Start Date: Oct 31, 2020; Count of Case Investigators Hired: 45964" role="graphics-symbol" aria-roledescription="point" transform="translate(386.1466,39.5)" d="M8.721,0A8.721,8.721,0,1,1,-8.721,0A8.721,8.721,0,1,1,8.721,0" stroke="rgb(175, 211, 230)" stroke-width="2" opacity="0.7"/><path aria-label="Count of Cases Assigned: 2163555; Percent of Cases Interviewed: 42.64; Start Date: Oct 31, 2021; Count of Case Investigators Hired: 26868" role="graphics-symbol" aria-roledescription="point" transform="translate(216.35549999999998,57.86666666666667)" d="M6.699,0A6.699,6.699,0,1,1,-6.699,0A6.699,6.699,0,1,1,6.699,0" stroke="rgb(236, 207, 138)" stroke-width="2" opacity="0.7"/><path aria-label="Count of Cases Assigned: 6078802; Percent of Cases Interviewed: 42.34; Start Date: Nov 30, 2020; Count of Case Investigators Hired: 54651" role="graphics-symbol" aria-roledescription="point" transform="translate(607.8802,58.866666666666646)" d="M9.5,0A9.5,9.5,0,1,1,-9.5,0A9.5,9.5,0,1,1,9.5,0" stroke="rgb(167, 214, 228)" stroke-width="2" opacity="0.7"/><path aria-label="Count of Cases Assigned: 5897346; Percent of Cases Interviewed: 26.61; Start Date: Nov 30, 2021; Count of Case Investigators Hired: 31720" role="graphics-symbol" aria-roledescription="point" transform="translate(589.7346,111.3)" d="M7.266,0A7.266,7.266,0,1,1,-7.266,0A7.266,7.266,0,1,1,7.266,0" stroke="rgb(251, 202, 139)" stroke-width="2" opacity="0.7"/></g><g class="mark-line role-mark layer_1_marks" role="graphics-object" aria-roledescription="line mark container"><path aria-label="Count of Cases Assigned: 444318; Percent of Cases Interviewed: 52.2086854864" role="graphics-symbol" aria-roledescription="line mark" d="M44.432,25.971L607.88,81.578" stroke="#F28E2B" stroke-width="2"/></g><g class="mark-group role-legend" role="graphics-symbol" aria-roledescription="legend" aria-label="Gradient legend titled 'Start Date' for stroke color with values from October 31, 2020 to November 30, 2021"><g transform="translate(668,0)"><path class="background" aria-hidden="true" d="M0,0h76v216h-76Z" pointer-events="none"/><g><g class="mark-group role-legend-entry"><g transform="translate(0,16)"><path class="background" aria-hidden="true" d="M0,0h0v0h0Z" pointer-events="none"/><g><g class="mark-rect role-legend-gradient" pointer-events="none"><path d="M0,0h16v200h-16Z" fill="url(#gradient_1)" stroke="#ddd" stroke-width="0" opacity="0.7"/></g><g class="mark-text role-legend-label" pointer-events="none"><text text-anchor="start" transform="translate(18,171.9451476793249)" font-family="sans-serif" font-size="10px" fill="#000" opacity="1">Jan 01, 2021</text><text text-anchor="start" transform="translate(18,126.39662447257385)" font-family="sans-serif" font-size="10px" fill="#000" opacity="1">Apr 01, 2021</text><text text-anchor="start" transform="translate(18,80.32067510548524)" font-family="sans-serif" font-size="10px" fill="#000" opacity="1">Jul 01, 2021</text><text text-anchor="start" transform="translate(18,33.73839662447257)" font-family="sans-serif" font-size="10px" fill="#000" opacity="1">Oct 01, 2021</text></g></g><path class="foreground" aria-hidden="true" d="" pointer-events="none" display="none"/></g></g><g class="mark-text role-legend-title" pointer-events="none"><text text-anchor="start" transform="translate(0,9)" font-family="sans-serif" font-size="11px" font-weight="bold" fill="#000" opacity="1">Start Date</text></g></g><path class="foreground" aria-hidden="true" d="" pointer-events="none" display="none"/></g></g><g class="mark-group role-legend" role="graphics-symbol" aria-roledescription="legend" aria-label="Symbol legend titled 'Count of Case Investigators Hired' for size with values from 0 to 54,651"><g transform="translate(668,224)"><path class="background" aria-hidden="true" d="M0,0h178v124h-178Z" pointer-events="none"/><g><g class="mark-group role-legend-entry"><g transform="translate(0,16)"><path class="background" aria-hidden="true" d="M0,0h0v0h0Z" pointer-events="none"/><g><g class="mark-group role-scope" role="graphics-object" aria-roledescription="group mark container"><g transform="translate(0,0)"><path class="background" aria-hidden="true" d="M0,0h54.5859375v10h-54.5859375Z" pointer-events="none" opacity="1"/><g><g class="mark-symbol role-legend-symbol" pointer-events="none"><path transform="translate(10,5)" d="M1,0A1,1,0,1,1,-1,0A1,1,0,1,1,1,0" stroke="#888" stroke-width="1.5" opacity="0.7"/></g><g class="mark-text role-legend-label" pointer-events="none"><text text-anchor="start" transform="translate(24,8)" font-family="sans-serif" font-size="10px" fill="#000" opacity="1">0</text></g></g><path class="foreground" aria-hidden="true" d="" pointer-events="none" display="none"/></g><g transform="translate(0,13)"><path class="background" aria-hidden="true" d="M0,0h54.5859375v10.663039719851703h-54.5859375Z" pointer-events="none" opacity="1"/><g><g class="mark-symbol role-legend-symbol" pointer-events="none"><path transform="translate(10,5)" d="M4.163,0A4.163,4.163,0,1,1,-4.163,0A4.163,4.163,0,1,1,4.163,0" stroke="#888" stroke-width="1.5" opacity="0.7"/></g><g class="mark-text role-legend-label" pointer-events="none"><text text-anchor="start" transform="translate(24,8)" font-family="sans-serif" font-size="10px" fill="#000" opacity="1">10,000</text></g></g><path class="foreground" aria-hidden="true" d="" pointer-events="none" display="none"/></g><g transform="translate(0,27)"><path class="background" aria-hidden="true" d="M0,0h54.5859375v14.301878955831974h-54.5859375Z" pointer-events="none" opacity="1"/><g><g class="mark-symbol role-legend-symbol" pointer-events="none"><path transform="translate(10,7)" d="M5.802,0A5.802,5.802,0,1,1,-5.802,0A5.802,5.802,0,1,1,5.802,0" stroke="#888" stroke-width="1.5" opacity="0.7"/></g><g class="mark-text role-legend-label" pointer-events="none"><text text-anchor="start" transform="translate(24,10)" font-family="sans-serif" font-size="10px" fill="#000" opacity="1">20,000</text></g></g><path class="foreground" aria-hidden="true" d="" pointer-events="none" display="none"/></g><g transform="translate(0,45)"><path class="background" aria-hidden="true" d="M0,0h54.5859375v16.5705515433514h-54.5859375Z" pointer-events="none" opacity="1"/><g><g class="mark-symbol role-legend-symbol" pointer-events="none"><path transform="translate(10,8)" d="M7.071,0A7.071,7.071,0,1,1,-7.071,0A7.071,7.071,0,1,1,7.071,0" stroke="#888" stroke-width="1.5" opacity="0.7"/></g><g class="mark-text role-legend-label" pointer-events="none"><text text-anchor="start" transform="translate(24,11)" font-family="sans-serif" font-size="10px" fill="#000" opacity="1">30,000</text></g></g><path class="foreground" aria-hidden="true" d="" pointer-events="none" display="none"/></g><g transform="translate(0,65)"><path class="background" aria-hidden="true" d="M0,0h54.5859375v18.6439301836553h-54.5859375Z" pointer-events="none" opacity="1"/><g><g class="mark-symbol role-legend-symbol" pointer-events="none"><path transform="translate(10,9)" d="M8.144,0A8.144,8.144,0,1,1,-8.144,0A8.144,8.144,0,1,1,8.144,0" stroke="#888" stroke-width="1.5" opacity="0.7"/></g><g class="mark-text role-legend-label" pointer-events="none"><text text-anchor="start" transform="translate(24,12)" font-family="sans-serif" font-size="10px" fill="#000" opacity="1">40,000</text></g></g><path class="foreground" aria-hidden="true" d="" pointer-events="none" display="none"/></g><g transform="translate(0,87)"><path class="background" aria-hidden="true" d="M0,0h54.5859375v20.591451949238632h-54.5859375Z" pointer-events="none" opacity="1"/><g><g class="mark-symbol role-legend-symbol" pointer-events="none"><path transform="translate(10,10)" d="M9.091,0A9.091,9.091,0,1,1,-9.091,0A9.091,9.091,0,1,1,9.091,0" stroke="#888" stroke-width="1.5" opacity="0.7"/></g><g class="mark-text role-legend-label" pointer-events="none"><text text-anchor="start" transform="translate(24,13)" font-family="sans-serif" font-size="10px" fill="#000" opacity="1">50,000</text></g></g><path class="foreground" aria-hidden="true" d="" pointer-events="none" display="none"/></g></g></g><path class="foreground" aria-hidden="true" d="" pointer-events="none" display="none"/></g></g><g class="mark-text role-legend-title" pointer-events="none"><text text-anchor="start" transform="translate(0,9)" font-family="sans-serif" font-size="11px" font-weight="bold" fill="#000" opacity="1">Count of Case Investigators Hired</text></g></g><path class="foreground" aria-hidden="true" d="" pointer-events="none" display="none"/></g></g></g><path class="foreground" aria-hidden="true" d="" display="none"/></g></g></g><defs><linearGradient id="gradient_1" x1="0" x2="0" y1="1" y2="0"><stop offset="0" stop-color="rgb(175, 211, 230)"/><stop offset="0.0007383966244725738" stop-color="rgb(175, 211, 230)"/><stop offset="0.07679324894514768" stop-color="rgb(167, 214, 228)"/><stop offset="0.15527426160337554" stop-color="rgb(160, 216, 224)"/><stop offset="0.23375527426160336" stop-color="rgb(155, 218, 218)"/><stop offset="0.30464135021097044" stop-color="rgb(153, 220, 211)"/><stop offset="0.3830168776371308" stop-color="rgb(154, 221, 201)"/><stop offset="0.4589662447257384" stop-color="rgb(159, 222, 190)"/><stop offset="0.5374472573839663" stop-color="rgb(167, 221, 178)"/><stop offset="0.6133966244725738" stop-color="rgb(177, 220, 167)"/><stop offset="0.6918776371308016" stop-color="rgb(190, 218, 156)"/><stop offset="0.7703586497890296" stop-color="rgb(205, 216, 147)"/><stop offset="0.8463080168776371" stop-color="rgb(220, 212, 141)"/><stop offset="0.924789029535865" stop-color="rgb(236, 207, 138)"/><stop offset="1" stop-color="rgb(251, 202, 139)"/></linearGradient></defs></svg>