<svg xmlns="http://www.w3.org/2000/svg" xmlns:xlink="http://www.w3.org/1999/xlink" version="1.1" class="marks" width="632" height="702" viewBox="0 0 632 702"><rect width="632" height="702" fill="white"/><g fill="none" stroke-miterlimit="10" transform="translate(151,5)"><g class="mark-group role-frame root" role="graphics-object" aria-roledescription="group mark container"><g transform="translate(0,0)"><path class="background" aria-hidden="true" d="M0.5,0.5h300v660h-300Z" stroke="#ddd"/><g><g class="mark-group role-axis" aria-hidden="true"><g transform="translate(0.5,660.5)"><path class="background" aria-hidden="true" d="M0,0h0v0h0Z" pointer-events="none"/><g><g class="mark-rule role-axis-grid" pointer-events="none"><line transform="translate(0,0)" x2="0" y2="-660" stroke="#ddd" stroke-width="1" opacity="1"/><line transform="translate(30,0)" x2="0" y2="-660" stroke="#ddd" stroke-width="1" opacity="1"/><line transform="translate(60,0)" x2="0" y2="-660" stroke="#ddd" stroke-width="1" opacity="1"/><line transform="translate(90,0)" x2="0" y2="-660" stroke="#ddd" stroke-width="1" opacity="1"/><line transform="translate(120,0)" x2="0" y2="-660" stroke="#ddd" stroke-width="1" opacity="1"/><line transform="translate(150,0)" x2="0" y2="-660" stroke="#ddd" stroke-width="1" opacity="1"/><line transform="translate(180,0)" x2="0" y2="-660" stroke="#ddd" stroke-width="1" opacity="1"/><line transform="translate(210,0)" x2="0" y2="-660" stroke="#ddd" stroke-width="1" opacity="1"/><line transform="translate(240,0)" x2="0" y2="-660" stroke="#ddd" stroke-width="1" opacity="1"/><line transform="translate(270,0)" x2="0" y2="-660" stroke="#ddd" stroke-width="1" opacity="1"/><line transform="translate(300,0)" x2="0" y2="-660" stroke="#ddd" stroke-width="1" opacity="1"/></g></g><path class="foreground" aria-hidden="true" d="" pointer-events="none" display="none"/></g></g><g class="mark-group role-axis" role="graphics-symbol" aria-roledescription="axis" aria-label="X-axis titled 'perc' for a linear scale with values from 0 to 100"><g transform="translate(0.5,660.5)"><path class="background" aria-hidden="true" d="M0,0h0v0h0Z" pointer-events="none"/><g><g class="mark-rule role-axis-tick" pointer-events="none"><line transform="translate(0,0)" x2="0" y2="5" stroke="#888" stroke-width="1" opacity="1"/><line transform="translate(30,0)" x2="0" y2="5" stroke="#888" stroke-width="1" opacity="1"/><line transform="translate(60,0)" x2="0" y2="5" stroke="#888" stroke-width="1" opacity="1"/><line transform="translate(90,0)" x2="0" y2="5" stroke="#888" stroke-width="1" opacity="1"/><line transform="translate(120,0)" x2="0" y2="5" stroke="#888" stroke-width="1" opacity="1"/><line transform="translate(150,0)" x2="0" y2="5" stroke="#888" stroke-width="1" opacity="1"/><line transform="translate(180,0)" x2="0" y2="5" stroke="#888" stroke-width="1" opacity="1"/><line transform="translate(210,0)" x2="0" y2="5" stroke="#888" stroke-width="1" opacity="1"/><line transform="translate(240,0)" x2="0" y2="5" stroke="#888" stroke-width="1" opacity="1"/><line transform="translate(270,0)" x2="0" y2="5" stroke="#888" stroke-width="1" opacity="1"/><line transform="translate(300,0)" x2="0" y2="5" stroke="#888" stroke-width="1" opacity="1"/></g><g class="mark-text role-axis-label" pointer-events="none"><text text-anchor="start" transform="translate(0,15)" font-family="sans-serif" font-size="10px" fill="#000" opacity="1">0</text><text text-anchor="middle" transform="translate(30,15)" font-family="sans-serif" font-size="10px" fill="#000" opacity="1">10</text><text text-anchor="middle" transform="translate(60,15)" font-family="sans-serif" font-size="10px" fill="#000" opacity="1">20</text><text text-anchor="middle" transform="translate(90,15)" font-family="sans-serif" font-size="10px" fill="#000" opacity="1">30</text><text text-anchor="middle" transform="translate(120,15)" font-family="sans-serif" font-size="10px" fill="#000" opacity="1">40</text><text text-anchor="middle" transform="translate(150,15)" font-family="sans-serif" font-size="10px" fill="#000" opacity="1">50</text><text text-anchor="middle" transform="translate(180,15)" font-family="sans-serif" font-size="10px" fill="#000" opacity="1">60</text><text text-anchor="middle" transform="translate(210,15)" font-family="sans-serif" font-size="10px" fill="#000" opacity="1">70</text><text text-anchor="middle" transform="translate(240,15)" font-family="sans-serif" font-size="10px" fill="#000" opacity="1">80</text><text text-anchor="middle" transform="translate(270,15)" font-family="sans-serif" font-size="10px" fill="#000" opacity="1">90</text><text text-anchor="end" transform="translate(300,15)" font-family="sans-serif" font-size="10px" fill="#000" opacity="1">100</text></g><g class="mark-rule role-axis-domain" pointer-events="none"><line transform="translate(0,0)" x2="300" y2="0" stroke="#888" stroke-width="1" opacity="1"/></g><g class="mark-text role-axis-title" pointer-events="none"><text text-anchor="middle" transform="translate(150,30)" font-family="sans-serif" font-size="11px" font-weight="bold" fill="#000" opacity="1">perc</text></g></g><path class="foreground" aria-hidden="true" d="" pointer-events="none" display="none"/></g></g><g class="mark-group role-axis" role="graphics-symbol" aria-roledescription="axis" aria-label="Y-axis titled 'Study Summary' for a discrete scale with 33 values: nan 2020-03-01-05/31/2020, nan 2020-03-11-05/25/2020, nan 2020-04-04-05/19/2020, nan 2020-04-13-06/08/2020, nan 2020-05-18-08/17/2020, ending with nan 2021-12-01-01/01/2022"><g transform="translate(0.5,0.5)"><path class="background" aria-hidden="true" d="M0,0h0v0h0Z" pointer-events="none"/><g><g class="mark-rule role-axis-tick" pointer-events="none"><line transform="translate(0,10)" x2="-5" y2="0" stroke="#888" stroke-width="1" opacity="1"/><line transform="translate(0,30)" x2="-5" y2="0" stroke="#888" stroke-width="1" opacity="1"/><line transform="translate(0,50)" x2="-5" y2="0" stroke="#888" stroke-width="1" opacity="1"/><line transform="translate(0,70)" x2="-5" y2="0" stroke="#888" stroke-width="1" opacity="1"/><line transform="translate(0,90)" x2="-5" y2="0" stroke="#888" stroke-width="1" opacity="1"/><line transform="translate(0,110)" x2="-5" y2="0" stroke="#888" stroke-width="1" opacity="1"/><line transform="translate(0,130)" x2="-5" y2="0" stroke="#888" stroke-width="1" opacity="1"/><line transform="translate(0,150)" x2="-5" y2="0" stroke="#888" stroke-width="1" opacity="1"/><line transform="translate(0,170)" x2="-5" y2="0" stroke="#888" stroke-width="1" opacity="1"/><line transform="translate(0,190)" x2="-5" y2="0" stroke="#888" stroke-width="1" opacity="1"/><line transform="translate(0,210)" x2="-5" y2="0" stroke="#888" stroke-width="1" opacity="1"/><line transform="translate(0,230)" x2="-5" y2="0" stroke="#888" stroke-width="1" opacity="1"/><line transform="translate(0,250)" x2="-5" y2="0" stroke="#888" stroke-width="1" opacity="1"/><line transform="translate(0,270)" x2="-5" y2="0" stroke="#888" stroke-width="1" opacity="1"/><line transform="translate(0,290)" x2="-5" y2="0" stroke="#888" stroke-width="1" opacity="1"/><line transform="translate(0,310)" x2="-5" y2="0" stroke="#888" stroke-width="1" opacity="1"/><line transform="translate(0,330)" x2="-5" y2="0" stroke="#888" stroke-width="1" opacity="1"/><line transform="translate(0,350)" x2="-5" y2="0" stroke="#888" stroke-width="1" opacity="1"/><line transform="translate(0,370)" x2="-5" y2="0" stroke="#888" stroke-width="1" opacity="1"/><line transform="translate(0,390)" x2="-5" y2="0" stroke="#888" stroke-width="1" opacity="1"/><line transform="translate(0,410)" x2="-5" y2="0" stroke="#888" stroke-width="1" opacity="1"/><line transform="translate(0,430)" x2="-5" y2="0" stroke="#888" stroke-width="1" opacity="1"/><line transform="translate(0,450)" x2="-5" y2="0" stroke="#888" stroke-width="1" opacity="1"/><line transform="translate(0,470)" x2="-5" y2="0" stroke="#888" stroke-width="1" opacity="1"/><line transform="translate(0,490)" x2="-5" y2="0" stroke="#888" stroke-width="1" opacity="1"/><line transform="translate(0,510)" x2="-5" y2="0" stroke="#888" stroke-width="1" opacity="1"/><line transform="translate(0,530)" x2="-5" y2="0" stroke="#888" stroke-width="1" opacity="1"/><line transform="translate(0,550)" x2="-5" y2="0" stroke="#888" stroke-width="1" opacity="1"/><line transform="translate(0,570)" x2="-5" y2="0" stroke="#888" stroke-width="1" opacity="1"/><line transform="translate(0,590)" x2="-5" y2="0" stroke="#888" stroke-width="1" opacity="1"/><line transform="translate(0,610)" x2="-5" y2="0" stroke="#888" stroke-width="1" opacity="1"/><line transform="translate(0,630)" x2="-5" y2="0" stroke="#888" stroke-width="1" opacity="1"/><line transform="translate(0,650)" x2="-5" y2="0" stroke="#888" stroke-width="1" opacity="1"/></g><g class="mark-text role-axis-label" pointer-events="none"><text text-anchor="end" transform="translate(-7,13)" font-family="sans-serif" font-size="10px" fill="#000" opacity="1">nan 2020-03-01-05/31/2020</text><text text-anchor="end" transform="translate(-7,33)" font-family="sans-serif" font-size="10px" fill="#000" opacity="1">nan 2020-03-11-05/25/2020</text><text text-anchor="end" transform="translate(-7,53)" font-family="sans-serif" font-size="10px" fill="#000" opacity="1">nan 2020-04-04-05/19/2020</text><text text-anchor="end" transform="translate(-7,73)" font-family="sans-serif" font-size="10px" fill="#000" opacity="1">nan 2020-04-13-06/08/2020</text><text text-anchor="end" transform="translate(-7,93)" font-family="sans-serif" font-size="10px" fill="#000" opacity="1">nan 2020-05-18-08/17/2020</text><text text-anchor="end" transform="translate(-7,113)" font-family="sans-serif" font-size="10px" fill="#000" opacity="1">nan 2020-06-01-06/30/2020</text><text text-anchor="end" transform="translate(-7,133)" font-family="sans-serif" font-size="10px" fill="#000" opacity="1">nan 2020-06-01-10/31/2020</text><text text-anchor="end" transform="translate(-7,153)" font-family="sans-serif" font-size="10px" fill="#000" opacity="1">nan 2020-06-01-10/31/2021</text><text text-anchor="end" transform="translate(-7,173)" font-family="sans-serif" font-size="10px" fill="#000" opacity="1">nan 2020-06-15-07/12/2020</text><text text-anchor="end" transform="translate(-7,193)" font-family="sans-serif" font-size="10px" fill="#000" opacity="1">nan 2020-08-01-08/31/2020</text><text text-anchor="end" transform="translate(-7,213)" font-family="sans-serif" font-size="10px" fill="#000" opacity="1">nan 2020-08-17-12/31/2020</text><text text-anchor="end" transform="translate(-7,233)" font-family="sans-serif" font-size="10px" fill="#000" opacity="1">nan 2020-10-01-10/31/2020</text><text text-anchor="end" transform="translate(-7,253)" font-family="sans-serif" font-size="10px" fill="#000" opacity="1">nan 2020-11-01-12/01/2020</text><text text-anchor="end" transform="translate(-7,273)" font-family="sans-serif" font-size="10px" fill="#000" opacity="1">nan 2020-11-25-01/19/2021</text><text text-anchor="end" transform="translate(-7,293)" font-family="sans-serif" font-size="10px" fill="#000" opacity="1">nan 2020-12-01-01/01/2021</text><text text-anchor="end" transform="translate(-7,313)" font-family="sans-serif" font-size="10px" fill="#000" opacity="1">nan 2020-12-27-04/24/2021</text><text text-anchor="end" transform="translate(-7,333)" font-family="sans-serif" font-size="10px" fill="#000" opacity="1">nan 2021-01-01-02/01/2021</text><text text-anchor="end" transform="translate(-7,353)" font-family="sans-serif" font-size="10px" fill="#000" opacity="1">nan 2021-02-01-03/01/2021</text><text text-anchor="end" transform="translate(-7,373)" font-family="sans-serif" font-size="10px" fill="#000" opacity="1">nan 2021-03-01-04/01/2021</text><text text-anchor="end" transform="translate(-7,393)" font-family="sans-serif" font-size="10px" fill="#000" opacity="1">nan 2021-03-23-05/31/2021</text><text text-anchor="end" transform="translate(-7,413)" font-family="sans-serif" font-size="10px" fill="#000" opacity="1">nan 2021-04-01-05/01/2021</text><text text-anchor="end" transform="translate(-7,433)" font-family="sans-serif" font-size="10px" fill="#000" opacity="1">nan 2021-05-01-06/01/2021</text><text text-anchor="end" transform="translate(-7,453)" font-family="sans-serif" font-size="10px" fill="#000" opacity="1">nan 2021-06-01-07/01/2021</text><text text-anchor="end" transform="translate(-7,473)" font-family="sans-serif" font-size="10px" fill="#000" opacity="1">nan 2021-06-23-08/17/2021</text><text text-anchor="end" transform="translate(-7,493)" font-family="sans-serif" font-size="10px" fill="#000" opacity="1">nan 2021-07-01-08/01/2021</text><text text-anchor="end" transform="translate(-7,513)" font-family="sans-serif" font-size="10px" fill="#000" opacity="1">nan 2021-08-01-09/01/2021</text><text text-anchor="end" transform="translate(-7,533)" font-family="sans-serif" font-size="10px" fill="#000" opacity="1">nan 2021-08-01-09/25/2021</text><text text-anchor="end" transform="translate(-7,553)" font-family="sans-serif" font-size="10px" fill="#000" opacity="1">nan 2021-09-01-10/01/2021</text><text text-anchor="end" transform="translate(-7,573)" font-family="sans-serif" font-size="10px" fill="#000" opacity="1">nan 2021-09-01-10/26/2021</text><text text-anchor="end" transform="translate(-7,593)" font-family="sans-serif" font-size="10px" fill="#000" opacity="1">nan 2021-09-26-11/20/2021</text><text text-anchor="end" transform="translate(-7,613)" font-family="sans-serif" font-size="10px" fill="#000" opacity="1">nan 2021-10-01-11/01/2021</text><text text-anchor="end" transform="translate(-7,633)" font-family="sans-serif" font-size="10px" fill="#000" opacity="1">nan 2021-11-01-12/01/2021</text><text text-anchor="end" transform="translate(-7,653)" font-family="sans-serif" font-size="10px" fill="#000" opacity="1">nan 2021-12-01-01/01/2022</text></g><g class="mark-rule role-axis-domain" pointer-events="none"><line transform="translate(0,0)" x2="0" y2="660" stroke="#888" stroke-width="1" opacity="1"/></g><g class="mark-text role-axis-title" pointer-events="none"><text text-anchor="middle" transform="translate(-134.994140625,330) rotate(-90) translate(0,-2)" font-family="sans-serif" font-size="11px" font-weight="bold" fill="#000" opacity="1">Study Summary</text></g></g><path class="foreground" aria-hidden="true" d="" pointer-events="none" display="none"/></g></g><g class="mark-symbol role-mark marks" role="graphics-object" aria-roledescription="symbol mark container"><path aria-label="perc: 45.94; Study Summary: nan 2021-06-23-08/17/2021; Reached: Percent of Contacts Interviewed" role="graphics-symbol" aria-roledescription="point" transform="translate(137.82,470)" d="M2.739,0A2.739,2.739,0,1,1,-2.739,0A2.739,2.739,0,1,1,2.739,0" stroke="#4c78a8" stroke-width="2" opacity="0.7"/><path aria-label="perc: 51.96; Study Summary: nan 2021-09-01-10/26/2021; Reached: Percent of Contacts Interviewed" role="graphics-symbol" aria-roledescription="point" transform="translate(155.88000000000002,570)" d="M2.739,0A2.739,2.739,0,1,1,-2.739,0A2.739,2.739,0,1,1,2.739,0" stroke="#4c78a8" stroke-width="2" opacity="0.7"/><path aria-label="perc: 85; Study Summary: nan 2020-06-15-07/12/2020; Reached: Percent of Contacts Interviewed" role="graphics-symbol" aria-roledescription="point" transform="translate(255,170)" d="M2.739,0A2.739,2.739,0,1,1,-2.739,0A2.739,2.739,0,1,1,2.739,0" stroke="#4c78a8" stroke-width="2" opacity="0.7"/><path aria-label="perc: 48.44; Study Summary: nan 2020-06-01-10/31/2021; Reached: Percent of Contacts Interviewed" role="graphics-symbol" aria-roledescription="point" transform="translate(145.32,150)" d="M2.739,0A2.739,2.739,0,1,1,-2.739,0A2.739,2.739,0,1,1,2.739,0" stroke="#4c78a8" stroke-width="2" opacity="0.7"/><path aria-label="perc: 86; Study Summary: nan 2020-08-01-08/31/2020; Reached: Percent of Contacts Interviewed" role="graphics-symbol" aria-roledescription="point" transform="translate(258,190)" d="M2.739,0A2.739,2.739,0,1,1,-2.739,0A2.739,2.739,0,1,1,2.739,0" stroke="#4c78a8" stroke-width="2" opacity="0.7"/><path aria-label="perc: 78; Study Summary: nan 2020-10-01-10/31/2020; Reached: Percent of Contacts Interviewed" role="graphics-symbol" aria-roledescription="point" transform="translate(234,230)" d="M2.739,0A2.739,2.739,0,1,1,-2.739,0A2.739,2.739,0,1,1,2.739,0" stroke="#4c78a8" stroke-width="2" opacity="0.7"/><path aria-label="perc: 73.24; Study Summary: nan 2020-06-01-06/30/2020; Reached: Percent of Contacts Interviewed" role="graphics-symbol" aria-roledescription="point" transform="translate(219.71999999999997,110)" d="M2.739,0A2.739,2.739,0,1,1,-2.739,0A2.739,2.739,0,1,1,2.739,0" stroke="#4c78a8" stroke-width="2" opacity="0.7"/><path aria-label="perc: 48.17; Study Summary: nan 2020-06-15-07/12/2020; Reached: Percent of Contacts Interviewed" role="graphics-symbol" aria-roledescription="point" transform="translate(144.51,170)" d="M2.739,0A2.739,2.739,0,1,1,-2.739,0A2.739,2.739,0,1,1,2.739,0" stroke="#4c78a8" stroke-width="2" opacity="0.7"/><path aria-label="perc: 31.12; Study Summary: nan 2020-03-11-05/25/2020; Reached: Percent of Contacts Interviewed" role="graphics-symbol" aria-roledescription="point" transform="translate(93.36000000000001,30)" d="M2.739,0A2.739,2.739,0,1,1,-2.739,0A2.739,2.739,0,1,1,2.739,0" stroke="#4c78a8" stroke-width="2" opacity="0.7"/><path aria-label="perc: 44.42; Study Summary: nan 2020-08-17-12/31/2020; Reached: Percent of Contacts Interviewed" role="graphics-symbol" aria-roledescription="point" transform="translate(133.26000000000002,210)" d="M2.739,0A2.739,2.739,0,1,1,-2.739,0A2.739,2.739,0,1,1,2.739,0" stroke="#4c78a8" stroke-width="2" opacity="0.7"/><path aria-label="perc: 28.19; Study Summary: nan 2020-04-04-05/19/2020; Reached: Percent of Contacts Interviewed" role="graphics-symbol" aria-roledescription="point" transform="translate(84.57000000000001,50)" d="M2.739,0A2.739,2.739,0,1,1,-2.739,0A2.739,2.739,0,1,1,2.739,0" stroke="#4c78a8" stroke-width="2" opacity="0.7"/><path aria-label="perc: 38.5; Study Summary: nan 2020-12-27-04/24/2021; Reached: Percent of Contacts Interviewed" role="graphics-symbol" aria-roledescription="point" transform="translate(115.5,310)" d="M2.739,0A2.739,2.739,0,1,1,-2.739,0A2.739,2.739,0,1,1,2.739,0" stroke="#4c78a8" stroke-width="2" opacity="0.7"/><path aria-label="perc: 100; Study Summary: nan 2020-05-18-08/17/2020; Reached: Percent of Contacts Reached" role="graphics-symbol" aria-roledescription="point" transform="translate(300,90)" d="M2.739,0A2.739,2.739,0,1,1,-2.739,0A2.739,2.739,0,1,1,2.739,0" stroke="#f58518" stroke-width="2" opacity="0.7"/><path aria-label="perc: 71.38; Study Summary: nan 2021-06-23-08/17/2021; Reached: Percent of Contacts Reached" role="graphics-symbol" aria-roledescription="point" transform="translate(214.14,470)" d="M2.739,0A2.739,2.739,0,1,1,-2.739,0A2.739,2.739,0,1,1,2.739,0" stroke="#f58518" stroke-width="2" opacity="0.7"/><path aria-label="perc: 78.02; Study Summary: nan 2021-09-01-10/26/2021; Reached: Percent of Contacts Reached" role="graphics-symbol" aria-roledescription="point" transform="translate(234.06,570)" d="M2.739,0A2.739,2.739,0,1,1,-2.739,0A2.739,2.739,0,1,1,2.739,0" stroke="#f58518" stroke-width="2" opacity="0.7"/><path aria-label="perc: 87.31; Study Summary: nan 2020-06-15-07/12/2020; Reached: Percent of Contacts Reached" role="graphics-symbol" aria-roledescription="point" transform="translate(261.93,170)" d="M2.739,0A2.739,2.739,0,1,1,-2.739,0A2.739,2.739,0,1,1,2.739,0" stroke="#f58518" stroke-width="2" opacity="0.7"/><path aria-label="perc: 74.26; Study Summary: nan 2020-06-01-10/31/2021; Reached: Percent of Contacts Reached" role="graphics-symbol" aria-roledescription="point" transform="translate(222.78,150)" d="M2.739,0A2.739,2.739,0,1,1,-2.739,0A2.739,2.739,0,1,1,2.739,0" stroke="#f58518" stroke-width="2" opacity="0.7"/><path aria-label="perc: 71.24; Study Summary: nan 2020-06-01-10/31/2020; Reached: Percent of Contacts Reached" role="graphics-symbol" aria-roledescription="point" transform="translate(213.71999999999997,130)" d="M2.739,0A2.739,2.739,0,1,1,-2.739,0A2.739,2.739,0,1,1,2.739,0" stroke="#f58518" stroke-width="2" opacity="0.7"/><path aria-label="perc: 52.99; Study Summary: nan 2020-06-01-10/31/2020; Reached: Percent of Contacts Reached" role="graphics-symbol" aria-roledescription="point" transform="translate(158.97,130)" d="M2.739,0A2.739,2.739,0,1,1,-2.739,0A2.739,2.739,0,1,1,2.739,0" stroke="#f58518" stroke-width="2" opacity="0.7"/><path aria-label="perc: 41.63; Study Summary: nan 2020-06-01-10/31/2020; Reached: Percent of Contacts Reached" role="graphics-symbol" aria-roledescription="point" transform="translate(124.89,130)" d="M2.739,0A2.739,2.739,0,1,1,-2.739,0A2.739,2.739,0,1,1,2.739,0" stroke="#f58518" stroke-width="2" opacity="0.7"/><path aria-label="perc: 94.55; Study Summary: nan 2020-06-01-10/31/2020; Reached: Percent of Contacts Reached" role="graphics-symbol" aria-roledescription="point" transform="translate(283.65,130)" d="M2.739,0A2.739,2.739,0,1,1,-2.739,0A2.739,2.739,0,1,1,2.739,0" stroke="#f58518" stroke-width="2" opacity="0.7"/><path aria-label="perc: 94.99; Study Summary: nan 2020-06-01-10/31/2020; Reached: Percent of Contacts Reached" role="graphics-symbol" aria-roledescription="point" transform="translate(284.96999999999997,130)" d="M2.739,0A2.739,2.739,0,1,1,-2.739,0A2.739,2.739,0,1,1,2.739,0" stroke="#f58518" stroke-width="2" opacity="0.7"/><path aria-label="perc: 84.83; Study Summary: nan 2020-06-01-10/31/2020; Reached: Percent of Contacts Reached" role="graphics-symbol" aria-roledescription="point" transform="translate(254.48999999999998,130)" d="M2.739,0A2.739,2.739,0,1,1,-2.739,0A2.739,2.739,0,1,1,2.739,0" stroke="#f58518" stroke-width="2" opacity="0.7"/><path aria-label="perc: 69.25; Study Summary: nan 2020-06-01-10/31/2020; Reached: Percent of Contacts Reached" role="graphics-symbol" aria-roledescription="point" transform="translate(207.75,130)" d="M2.739,0A2.739,2.739,0,1,1,-2.739,0A2.739,2.739,0,1,1,2.739,0" stroke="#f58518" stroke-width="2" opacity="0.7"/><path aria-label="perc: 60.81; Study Summary: nan 2020-06-01-10/31/2020; Reached: Percent of Contacts Reached" role="graphics-symbol" aria-roledescription="point" transform="translate(182.42999999999998,130)" d="M2.739,0A2.739,2.739,0,1,1,-2.739,0A2.739,2.739,0,1,1,2.739,0" stroke="#f58518" stroke-width="2" opacity="0.7"/><path aria-label="perc: 90.62; Study Summary: nan 2020-06-01-10/31/2020; Reached: Percent of Contacts Reached" role="graphics-symbol" aria-roledescription="point" transform="translate(271.86,130)" d="M2.739,0A2.739,2.739,0,1,1,-2.739,0A2.739,2.739,0,1,1,2.739,0" stroke="#f58518" stroke-width="2" opacity="0.7"/><path aria-label="perc: 75.14; Study Summary: nan 2020-06-01-10/31/2020; Reached: Percent of Contacts Reached" role="graphics-symbol" aria-roledescription="point" transform="translate(225.42,130)" d="M2.739,0A2.739,2.739,0,1,1,-2.739,0A2.739,2.739,0,1,1,2.739,0" stroke="#f58518" stroke-width="2" opacity="0.7"/><path aria-label="perc: 89.6; Study Summary: nan 2020-06-01-10/31/2020; Reached: Percent of Contacts Reached" role="graphics-symbol" aria-roledescription="point" transform="translate(268.79999999999995,130)" d="M2.739,0A2.739,2.739,0,1,1,-2.739,0A2.739,2.739,0,1,1,2.739,0" stroke="#f58518" stroke-width="2" opacity="0.7"/><path aria-label="perc: 58.54; Study Summary: nan 2020-06-01-10/31/2020; Reached: Percent of Contacts Reached" role="graphics-symbol" aria-roledescription="point" transform="translate(175.62,130)" d="M2.739,0A2.739,2.739,0,1,1,-2.739,0A2.739,2.739,0,1,1,2.739,0" stroke="#f58518" stroke-width="2" opacity="0.7"/><path aria-label="perc: 86.87; Study Summary: nan 2020-06-01-10/31/2020; Reached: Percent of Contacts Reached" role="graphics-symbol" aria-roledescription="point" transform="translate(260.61,130)" d="M2.739,0A2.739,2.739,0,1,1,-2.739,0A2.739,2.739,0,1,1,2.739,0" stroke="#f58518" stroke-width="2" opacity="0.7"/><path aria-label="perc: 74.03; Study Summary: nan 2020-06-01-10/31/2020; Reached: Percent of Contacts Reached" role="graphics-symbol" aria-roledescription="point" transform="translate(222.08999999999997,130)" d="M2.739,0A2.739,2.739,0,1,1,-2.739,0A2.739,2.739,0,1,1,2.739,0" stroke="#f58518" stroke-width="2" opacity="0.7"/><path aria-label="perc: 54.15; Study Summary: nan 2020-06-01-10/31/2020; Reached: Percent of Contacts Reached" role="graphics-symbol" aria-roledescription="point" transform="translate(162.45,130)" d="M2.739,0A2.739,2.739,0,1,1,-2.739,0A2.739,2.739,0,1,1,2.739,0" stroke="#f58518" stroke-width="2" opacity="0.7"/><path aria-label="perc: 88.41; Study Summary: nan 2020-08-01-08/31/2020; Reached: Percent of Contacts Reached" role="graphics-symbol" aria-roledescription="point" transform="translate(265.23,190)" d="M2.739,0A2.739,2.739,0,1,1,-2.739,0A2.739,2.739,0,1,1,2.739,0" stroke="#f58518" stroke-width="2" opacity="0.7"/><path aria-label="perc: 81.51; Study Summary: nan 2020-10-01-10/31/2020; Reached: Percent of Contacts Reached" role="graphics-symbol" aria-roledescription="point" transform="translate(244.53,230)" d="M2.739,0A2.739,2.739,0,1,1,-2.739,0A2.739,2.739,0,1,1,2.739,0" stroke="#f58518" stroke-width="2" opacity="0.7"/><path aria-label="perc: 75.14; Study Summary: nan 2020-06-01-06/30/2020; Reached: Percent of Contacts Reached" role="graphics-symbol" aria-roledescription="point" transform="translate(225.42,110)" d="M2.739,0A2.739,2.739,0,1,1,-2.739,0A2.739,2.739,0,1,1,2.739,0" stroke="#f58518" stroke-width="2" opacity="0.7"/><path aria-label="perc: 52.53; Study Summary: nan 2020-06-15-07/12/2020; Reached: Percent of Contacts Reached" role="graphics-symbol" aria-roledescription="point" transform="translate(157.59,170)" d="M2.739,0A2.739,2.739,0,1,1,-2.739,0A2.739,2.739,0,1,1,2.739,0" stroke="#f58518" stroke-width="2" opacity="0.7"/><path aria-label="perc: 62.43; Study Summary: nan 2021-01-01-02/01/2021; Reached: Percent of Contacts Reached" role="graphics-symbol" aria-roledescription="point" transform="translate(187.29,330)" d="M2.739,0A2.739,2.739,0,1,1,-2.739,0A2.739,2.739,0,1,1,2.739,0" stroke="#f58518" stroke-width="2" opacity="0.7"/><path aria-label="perc: 66.39; Study Summary: nan 2021-02-01-03/01/2021; Reached: Percent of Contacts Reached" role="graphics-symbol" aria-roledescription="point" transform="translate(199.17000000000002,350)" d="M2.739,0A2.739,2.739,0,1,1,-2.739,0A2.739,2.739,0,1,1,2.739,0" stroke="#f58518" stroke-width="2" opacity="0.7"/><path aria-label="perc: 67.03; Study Summary: nan 2021-03-01-04/01/2021; Reached: Percent of Contacts Reached" role="graphics-symbol" aria-roledescription="point" transform="translate(201.09,370)" d="M2.739,0A2.739,2.739,0,1,1,-2.739,0A2.739,2.739,0,1,1,2.739,0" stroke="#f58518" stroke-width="2" opacity="0.7"/><path aria-label="perc: 65.36; Study Summary: nan 2021-04-01-05/01/2021; Reached: Percent of Contacts Reached" role="graphics-symbol" aria-roledescription="point" transform="translate(196.07999999999998,410)" d="M2.739,0A2.739,2.739,0,1,1,-2.739,0A2.739,2.739,0,1,1,2.739,0" stroke="#f58518" stroke-width="2" opacity="0.7"/><path aria-label="perc: 64.11; Study Summary: nan 2021-05-01-06/01/2021; Reached: Percent of Contacts Reached" role="graphics-symbol" aria-roledescription="point" transform="translate(192.33,430)" d="M2.739,0A2.739,2.739,0,1,1,-2.739,0A2.739,2.739,0,1,1,2.739,0" stroke="#f58518" stroke-width="2" opacity="0.7"/><path aria-label="perc: 75.9; Study Summary: nan 2021-06-01-07/01/2021; Reached: Percent of Contacts Reached" role="graphics-symbol" aria-roledescription="point" transform="translate(227.7,450)" d="M2.739,0A2.739,2.739,0,1,1,-2.739,0A2.739,2.739,0,1,1,2.739,0" stroke="#f58518" stroke-width="2" opacity="0.7"/><path aria-label="perc: 67.31; Study Summary: nan 2021-07-01-08/01/2021; Reached: Percent of Contacts Reached" role="graphics-symbol" aria-roledescription="point" transform="translate(201.93,490)" d="M2.739,0A2.739,2.739,0,1,1,-2.739,0A2.739,2.739,0,1,1,2.739,0" stroke="#f58518" stroke-width="2" opacity="0.7"/><path aria-label="perc: 61.25; Study Summary: nan 2021-08-01-09/01/2021; Reached: Percent of Contacts Reached" role="graphics-symbol" aria-roledescription="point" transform="translate(183.75,510)" d="M2.739,0A2.739,2.739,0,1,1,-2.739,0A2.739,2.739,0,1,1,2.739,0" stroke="#f58518" stroke-width="2" opacity="0.7"/><path aria-label="perc: 58.3; Study Summary: nan 2021-09-01-10/01/2021; Reached: Percent of Contacts Reached" role="graphics-symbol" aria-roledescription="point" transform="translate(174.89999999999998,550)" d="M2.739,0A2.739,2.739,0,1,1,-2.739,0A2.739,2.739,0,1,1,2.739,0" stroke="#f58518" stroke-width="2" opacity="0.7"/><path aria-label="perc: 60.41; Study Summary: nan 2021-10-01-11/01/2021; Reached: Percent of Contacts Reached" role="graphics-symbol" aria-roledescription="point" transform="translate(181.23,610)" d="M2.739,0A2.739,2.739,0,1,1,-2.739,0A2.739,2.739,0,1,1,2.739,0" stroke="#f58518" stroke-width="2" opacity="0.7"/><path aria-label="perc: 48.84; Study Summary: nan 2020-11-01-12/01/2020; Reached: Percent of Contacts Reached" role="graphics-symbol" aria-roledescription="point" transform="translate(146.52,250)" d="M2.739,0A2.739,2.739,0,1,1,-2.739,0A2.739,2.739,0,1,1,2.739,0" stroke="#f58518" stroke-width="2" opacity="0.7"/><path aria-label="perc: 52.72; Study Summary: nan 2021-11-01-12/01/2021; Reached: Percent of Contacts Reached" role="graphics-symbol" aria-roledescription="point" transform="translate(158.16,630)" d="M2.739,0A2.739,2.739,0,1,1,-2.739,0A2.739,2.739,0,1,1,2.739,0" stroke="#f58518" stroke-width="2" opacity="0.7"/><path aria-label="perc: 50.3; Study Summary: nan 2020-12-01-01/01/2021; Reached: Percent of Contacts Reached" role="graphics-symbol" aria-roledescription="point" transform="translate(150.9,290)" d="M2.739,0A2.739,2.739,0,1,1,-2.739,0A2.739,2.739,0,1,1,2.739,0" stroke="#f58518" stroke-width="2" opacity="0.7"/><path aria-label="perc: 53.62; Study Summary: nan 2021-12-01-01/01/2022; Reached: Percent of Contacts Reached" role="graphics-symbol" aria-roledescription="point" transform="translate(160.86,650)" d="M2.739,0A2.739,2.739,0,1,1,-2.739,0A2.739,2.739,0,1,1,2.739,0" stroke="#f58518" stroke-width="2" opacity="0.7"/><path aria-label="perc: 65.17; Study Summary: nan 2021-03-23-05/31/2021; Reached: Percent of Contacts Reached" role="graphics-symbol" aria-roledescription="point" transform="translate(195.51000000000002,390)" d="M2.739,0A2.739,2.739,0,1,1,-2.739,0A2.739,2.739,0,1,1,2.739,0" stroke="#f58518" stroke-width="2" opacity="0.7"/><path aria-label="perc: 87.19; Study Summary: nan 2020-03-01-05/31/2020; Reached: Percent of Contacts Reached" role="graphics-symbol" aria-roledescription="point" transform="translate(261.57,10)" d="M2.739,0A2.739,2.739,0,1,1,-2.739,0A2.739,2.739,0,1,1,2.739,0" stroke="#f58518" stroke-width="2" opacity="0.7"/><path aria-label="perc: 29.46; Study Summary: nan 2020-04-04-05/19/2020; Reached: Percent of Contacts Reached" role="graphics-symbol" aria-roledescription="point" transform="translate(88.38000000000001,50)" d="M2.739,0A2.739,2.739,0,1,1,-2.739,0A2.739,2.739,0,1,1,2.739,0" stroke="#f58518" stroke-width="2" opacity="0.7"/><path aria-label="perc: 83.77; Study Summary: nan 2020-04-13-06/08/2020; Reached: Percent of Contacts Reached" role="graphics-symbol" aria-roledescription="point" transform="translate(251.31,70)" d="M2.739,0A2.739,2.739,0,1,1,-2.739,0A2.739,2.739,0,1,1,2.739,0" stroke="#f58518" stroke-width="2" opacity="0.7"/><path aria-label="perc: 53; Study Summary: nan 2021-08-01-09/25/2021; Reached: Percent of Contacts Reached" role="graphics-symbol" aria-roledescription="point" transform="translate(159,530)" d="M2.739,0A2.739,2.739,0,1,1,-2.739,0A2.739,2.739,0,1,1,2.739,0" stroke="#f58518" stroke-width="2" opacity="0.7"/><path aria-label="perc: 52; Study Summary: nan 2021-09-26-11/20/2021; Reached: Percent of Contacts Reached" role="graphics-symbol" aria-roledescription="point" transform="translate(156,590)" d="M2.739,0A2.739,2.739,0,1,1,-2.739,0A2.739,2.739,0,1,1,2.739,0" stroke="#f58518" stroke-width="2" opacity="0.7"/><path aria-label="perc: 91; Study Summary: nan 2020-11-25-01/19/2021; Reached: Percent of Contacts Reached" role="graphics-symbol" aria-roledescription="point" transform="translate(273,270)" d="M2.739,0A2.739,2.739,0,1,1,-2.739,0A2.739,2.739,0,1,1,2.739,0" stroke="#f58518" stroke-width="2" opacity="0.7"/><path aria-label="perc: 65.25; Study Summary: nan 2020-12-27-04/24/2021; Reached: Percent of Contacts Reached" role="graphics-symbol" aria-roledescription="point" transform="translate(195.75,310)" d="M2.739,0A2.739,2.739,0,1,1,-2.739,0A2.739,2.739,0,1,1,2.739,0" stroke="#f58518" stroke-width="2" opacity="0.7"/></g><g class="mark-group role-legend" role="graphics-symbol" aria-roledescription="legend" aria-label="Symbol legend titled 'Reached' for stroke color with 2 values: Percent of Contacts Interviewed, Percent of Contacts Reached"><g transform="translate(318,0)"><path class="background" aria-hidden="true" d="M0,0h158v45h-158Z" pointer-events="none"/><g><g class="mark-group role-legend-entry"><g transform="translate(0,16)"><path class="background" aria-hidden="true" d="M0,0h0v0h0Z" pointer-events="none"/><g><g class="mark-group role-scope" role="graphics-object" aria-roledescription="group mark container"><g transform="translate(0,0)"><path class="background" aria-hidden="true" d="M0,0h157.73828125v12.5h-157.73828125Z" pointer-events="none" opacity="1"/><g><g class="mark-symbol role-legend-symbol" pointer-events="none"><path transform="translate(6,6)" d="M5,0A5,5,0,1,1,-5,0A5,5,0,1,1,5,0" stroke="#4c78a8" stroke-width="1.5" opacity="0.7"/></g><g class="mark-text role-legend-label" pointer-events="none"><text text-anchor="start" transform="translate(16,9)" font-family="sans-serif" font-size="10px" fill="#000" opacity="1">Percent of Contacts Interviewed</text></g></g><path class="foreground" aria-hidden="true" d="" pointer-events="none" display="none"/></g><g transform="translate(0,16)"><path class="background" aria-hidden="true" d="M0,0h157.73828125v12.5h-157.73828125Z" pointer-events="none" opacity="1"/><g><g class="mark-symbol role-legend-symbol" pointer-events="none"><path transform="translate(6,6)" d="M5,0A5,5,0,1,1,-5,0A5,5,0,1,1,5,0" stroke="#f58518" stroke-width="1.5" opacity="0.7"/></g><g class="mark-text role-legend-label" pointer-events="none"><text text-anchor="start" transform="translate(16,9)" font-family="sans-serif" font-size="10px" fill="#000" opacity="1">Percent of Contacts Reached</text></g></g><path class="foreground" aria-hidden="true" d="" pointer-events="none" display="none"/></g></g></g><path class="foreground" aria-hidden="true" d="" pointer-events="none" display="none"/></g></g><g class="mark-text role-legend-title" pointer-events="none"><text text-anchor="start" transform="translate(0,9)" font-family="sans-serif" font-size="11px" font-weight="bold" fill="#000" opacity="1">Reached</text></g></g><path class="foreground" aria-hidden="true" d="" pointer-events="none" display="none"/></g></g></g><path class="foreground" aria-hidden="true" d="" display="none"/></g></g></g></svg>