<svg xmlns="http://www.w3.org/2000/svg" xmlns:xlink="http://www.w3.org/1999/xlink" version="1.1" class="marks" width="688" height="362" viewBox="0 0 688 362"><rect width="688" height="362" fill="white"/><g fill="none" stroke-miterlimit="10" transform="translate(207,5)"><g class="mark-group role-frame root" role="graphics-object" aria-roledescription="group mark container"><g transform="translate(0,0)"><path class="background" aria-hidden="true" d="M0.5,0.5h300v320h-300Z" stroke="#ddd"/><g><g class="mark-group role-axis" aria-hidden="true"><g transform="translate(0.5,320.5)"><path class="background" aria-hidden="true" d="M0,0h0v0h0Z" pointer-events="none"/><g><g class="mark-rule role-axis-grid" pointer-events="none"><line transform="translate(0,0)" x2="0" y2="-320" stroke="#ddd" stroke-width="1" opacity="1"/><line transform="translate(30,0)" x2="0" y2="-320" stroke="#ddd" stroke-width="1" opacity="1"/><line transform="translate(60,0)" x2="0" y2="-320" stroke="#ddd" stroke-width="1" opacity="1"/><line transform="translate(90,0)" x2="0" y2="-320" stroke="#ddd" stroke-width="1" opacity="1"/><line transform="translate(120,0)" x2="0" y2="-320" stroke="#ddd" stroke-width="1" opacity="1"/><line transform="translate(150,0)" x2="0" y2="-320" stroke="#ddd" stroke-width="1" opacity="1"/><line transform="translate(180,0)" x2="0" y2="-320" stroke="#ddd" stroke-width="1" opacity="1"/><line transform="translate(210,0)" x2="0" y2="-320" stroke="#ddd" stroke-width="1" opacity="1"/><line transform="translate(240,0)" x2="0" y2="-320" stroke="#ddd" stroke-width="1" opacity="1"/><line transform="translate(270,0)" x2="0" y2="-320" stroke="#ddd" stroke-width="1" opacity="1"/><line transform="translate(300,0)" x2="0" y2="-320" stroke="#ddd" stroke-width="1" opacity="1"/></g></g><path class="foreground" aria-hidden="true" d="" pointer-events="none" display="none"/></g></g><g class="mark-group role-axis" role="graphics-symbol" aria-roledescription="axis" aria-label="X-axis titled 'Percent' for a linear scale with values from 0 to 100"><g transform="translate(0.5,320.5)"><path class="background" aria-hidden="true" d="M0,0h0v0h0Z" pointer-events="none"/><g><g class="mark-rule role-axis-tick" pointer-events="none"><line transform="translate(0,0)" x2="0" y2="5" stroke="#888" stroke-width="1" opacity="1"/><line transform="translate(30,0)" x2="0" y2="5" stroke="#888" stroke-width="1" opacity="1"/><line transform="translate(60,0)" x2="0" y2="5" stroke="#888" stroke-width="1" opacity="1"/><line transform="translate(90,0)" x2="0" y2="5" stroke="#888" stroke-width="1" opacity="1"/><line transform="translate(120,0)" x2="0" y2="5" stroke="#888" stroke-width="1" opacity="1"/><line transform="translate(150,0)" x2="0" y2="5" stroke="#888" stroke-width="1" opacity="1"/><line transform="translate(180,0)" x2="0" y2="5" stroke="#888" stroke-width="1" opacity="1"/><line transform="translate(210,0)" x2="0" y2="5" stroke="#888" stroke-width="1" opacity="1"/><line transform="translate(240,0)" x2="0" y2="5" stroke="#888" stroke-width="1" opacity="1"/><line transform="translate(270,0)" x2="0" y2="5" stroke="#888" stroke-width="1" opacity="1"/><line transform="translate(300,0)" x2="0" y2="5" stroke="#888" stroke-width="1" opacity="1"/></g><g class="mark-text role-axis-label" pointer-events="none"><text text-anchor="start" transform="translate(0,15)" font-family="sans-serif" font-size="10px" fill="#000" opacity="1">0</text><text text-anchor="middle" transform="translate(30,15)" font-family="sans-serif" font-size="10px" fill="#000" opacity="1">10</text><text text-anchor="middle" transform="translate(60,15)" font-family="sans-serif" font-size="10px" fill="#000" opacity="1">20</text><text text-anchor="middle" transform="translate(90,15)" font-family="sans-serif" font-size="10px" fill="#000" opacity="1">30</text><text text-anchor="middle" transform="translate(120,15)" font-family="sans-serif" font-size="10px" fill="#000" opacity="1">40</text><text text-anchor="middle" transform="translate(150,15)" font-family="sans-serif" font-size="10px" fill="#000" opacity="1">50</text><text text-anchor="middle" transform="translate(180,15)" font-family="sans-serif" font-size="10px" fill="#000" opacity="1">60</text><text text-anchor="middle" transform="translate(210,15)" font-family="sans-serif" font-size="10px" fill="#000" opacity="1">70</text><text text-anchor="middle" transform="translate(240,15)" font-family="sans-serif" font-size="10px" fill="#000" opacity="1">80</text><text text-anchor="middle" transform="translate(270,15)" font-family="sans-serif" font-size="10px" fill="#000" opacity="1">90</text><text text-anchor="end" transform="translate(300,15)" font-family="sans-serif" font-size="10px" fill="#000" opacity="1">100</text></g><g class="mark-rule role-axis-domain" pointer-events="none"><line transform="translate(0,0)" x2="300" y2="0" stroke="#888" stroke-width="1" opacity="1"/></g><g class="mark-text role-axis-title" pointer-events="none"><text text-anchor="middle" transform="translate(150,30)" font-family="sans-serif" font-size="11px" font-weight="bold" fill="#000" opacity="1">Percent</text></g></g><path class="foreground" aria-hidden="true" d="" pointer-events="none" display="none"/></g></g><g class="mark-group role-axis" role="graphics-symbol" aria-roledescription="axis" aria-label="Y-axis titled 'Data Source' for a discrete scale with 16 values: A Patient-Initiated Digital COVID-19 Contact Notification Tool (TellYourContacts): Evaluation Study., Adapting COVID-19 Contact Tracing Protocols to Accommodate Resource Constraints, Philadelphia, Pennsylvania, USA, 2021., COVID-19 Case Investigation and Contact Tracing in Central Washington State, June-July 2020., COVID-19 Case Investigation and Contact Tracing in New York City, June 1, 2020, to October 31, 2021., COVID-19 Case Investigation and Contact Tracing in the US, 2020., ending with Unified Response to COVID-19 Case Investigation and Contact Tracing, Chicago, December 2020-April 2021."><g transform="translate(0.5,0.5)"><path class="background" aria-hidden="true" d="M0,0h0v0h0Z" pointer-events="none"/><g><g class="mark-rule role-axis-tick" pointer-events="none"><line transform="translate(0,10)" x2="-5" y2="0" stroke="#888" stroke-width="1" opacity="1"/><line transform="translate(0,30)" x2="-5" y2="0" stroke="#888" stroke-width="1" opacity="1"/><line transform="translate(0,50)" x2="-5" y2="0" stroke="#888" stroke-width="1" opacity="1"/><line transform="translate(0,70)" x2="-5" y2="0" stroke="#888" stroke-width="1" opacity="1"/><line transform="translate(0,90)" x2="-5" y2="0" stroke="#888" stroke-width="1" opacity="1"/><line transform="translate(0,110)" x2="-5" y2="0" stroke="#888" stroke-width="1" opacity="1"/><line transform="translate(0,130)" x2="-5" y2="0" stroke="#888" stroke-width="1" opacity="1"/><line transform="translate(0,150)" x2="-5" y2="0" stroke="#888" stroke-width="1" opacity="1"/><line transform="translate(0,170)" x2="-5" y2="0" stroke="#888" stroke-width="1" opacity="1"/><line transform="translate(0,190)" x2="-5" y2="0" stroke="#888" stroke-width="1" opacity="1"/><line transform="translate(0,210)" x2="-5" y2="0" stroke="#888" stroke-width="1" opacity="1"/><line transform="translate(0,230)" x2="-5" y2="0" stroke="#888" stroke-width="1" opacity="1"/><line transform="translate(0,250)" x2="-5" y2="0" stroke="#888" stroke-width="1" opacity="1"/><line transform="translate(0,270)" x2="-5" y2="0" stroke="#888" stroke-width="1" opacity="1"/><line transform="translate(0,290)" x2="-5" y2="0" stroke="#888" stroke-width="1" opacity="1"/><line transform="translate(0,310)" x2="-5" y2="0" stroke="#888" stroke-width="1" opacity="1"/></g><g class="mark-text role-axis-label" pointer-events="none"><text text-anchor="end" transform="translate(-7,13)" font-family="sans-serif" font-size="10px" fill="#000" opacity="1">A Patient-Initiated Digital COVID-19 C…</text><text text-anchor="end" transform="translate(-7,33)" font-family="sans-serif" font-size="10px" fill="#000" opacity="1">Adapting COVID-19 Contact Tracing …</text><text text-anchor="end" transform="translate(-7,53)" font-family="sans-serif" font-size="10px" fill="#000" opacity="1">COVID-19 Case Investigation and Co…</text><text text-anchor="end" transform="translate(-7,73)" font-family="sans-serif" font-size="10px" fill="#000" opacity="1">COVID-19 Case Investigation and Co…</text><text text-anchor="end" transform="translate(-7,93)" font-family="sans-serif" font-size="10px" fill="#000" opacity="1">COVID-19 Case Investigation and Co…</text><text text-anchor="end" transform="translate(-7,113)" font-family="sans-serif" font-size="10px" fill="#000" opacity="1">COVID-19 Contact Tracing Outcomes…</text><text text-anchor="end" transform="translate(-7,133)" font-family="sans-serif" font-size="10px" fill="#000" opacity="1">COVID-19 Contact Tracing in Two Co…</text><text text-anchor="end" transform="translate(-7,153)" font-family="sans-serif" font-size="10px" fill="#000" opacity="1">Case Investigation and Contact Tracin…</text><text text-anchor="end" transform="translate(-7,173)" font-family="sans-serif" font-size="10px" fill="#000" opacity="1">Centering Health Equity Within COVI…</text><text text-anchor="end" transform="translate(-7,193)" font-family="sans-serif" font-size="10px" fill="#000" opacity="1">Coronavirus Disease Contact Tracing …</text><text text-anchor="end" transform="translate(-7,213)" font-family="sans-serif" font-size="10px" fill="#000" opacity="1">Declines in SARS-CoV-2 Transmissio…</text><text text-anchor="end" transform="translate(-7,233)" font-family="sans-serif" font-size="10px" fill="#000" opacity="1">Integrating Contact Tracers Into Point-…</text><text text-anchor="end" transform="translate(-7,253)" font-family="sans-serif" font-size="10px" fill="#000" opacity="1">Lessons Learned From COVID-19 Co…</text><text text-anchor="end" transform="translate(-7,273)" font-family="sans-serif" font-size="10px" fill="#000" opacity="1">Outcomes of Contact Tracing in San F…</text><text text-anchor="end" transform="translate(-7,293)" font-family="sans-serif" font-size="10px" fill="#000" opacity="1">The public health impact of COVID-19…</text><text text-anchor="end" transform="translate(-7,313)" font-family="sans-serif" font-size="10px" fill="#000" opacity="1">Unified Response to COVID-19 Case …</text></g><g class="mark-rule role-axis-domain" pointer-events="none"><line transform="translate(0,0)" x2="0" y2="320" stroke="#888" stroke-width="1" opacity="1"/></g><g class="mark-text role-axis-title" pointer-events="none"><text text-anchor="middle" transform="translate(-190.70703125,160) rotate(-90) translate(0,-2)" font-family="sans-serif" font-size="11px" font-weight="bold" fill="#000" opacity="1">Data Source</text></g></g><path class="foreground" aria-hidden="true" d="" pointer-events="none" display="none"/></g></g><g class="mark-symbol role-mark marks" role="graphics-object" aria-roledescription="symbol mark container"><path aria-label="Percent: 45.94; Data Source: Adapting COVID-19 Contact Tracing Protocols to Accommodate Resource Constraints, Philadelphia, Pennsylvania, USA, 2021.; Reached: Percent of Contacts Interviewed" role="graphics-symbol" aria-roledescription="point" transform="translate(137.82,30)" d="M2.739,0A2.739,2.739,0,1,1,-2.739,0A2.739,2.739,0,1,1,2.739,0" stroke="#4c78a8" stroke-width="2" opacity="0.7"/><path aria-label="Percent: 51.96; Data Source: Adapting COVID-19 Contact Tracing Protocols to Accommodate Resource Constraints, Philadelphia, Pennsylvania, USA, 2021.; Reached: Percent of Contacts Interviewed" role="graphics-symbol" aria-roledescription="point" transform="translate(155.88000000000002,30)" d="M2.739,0A2.739,2.739,0,1,1,-2.739,0A2.739,2.739,0,1,1,2.739,0" stroke="#4c78a8" stroke-width="2" opacity="0.7"/><path aria-label="Percent: 85; Data Source: COVID-19 Case Investigation and Contact Tracing in Central Washington State, June-July 2020.; Reached: Percent of Contacts Interviewed" role="graphics-symbol" aria-roledescription="point" transform="translate(255,50)" d="M2.739,0A2.739,2.739,0,1,1,-2.739,0A2.739,2.739,0,1,1,2.739,0" stroke="#4c78a8" stroke-width="2" opacity="0.7"/><path aria-label="Percent: 48.44; Data Source: COVID-19 Case Investigation and Contact Tracing in New York City, June 1, 2020, to October 31, 2021.; Reached: Percent of Contacts Interviewed" role="graphics-symbol" aria-roledescription="point" transform="translate(145.32,70)" d="M2.739,0A2.739,2.739,0,1,1,-2.739,0A2.739,2.739,0,1,1,2.739,0" stroke="#4c78a8" stroke-width="2" opacity="0.7"/><path aria-label="Percent: 86; Data Source: COVID-19 Contact Tracing Outcomes in Washington State, August and October 2020.; Reached: Percent of Contacts Interviewed" role="graphics-symbol" aria-roledescription="point" transform="translate(258,110)" d="M2.739,0A2.739,2.739,0,1,1,-2.739,0A2.739,2.739,0,1,1,2.739,0" stroke="#4c78a8" stroke-width="2" opacity="0.7"/><path aria-label="Percent: 78; Data Source: COVID-19 Contact Tracing Outcomes in Washington State, August and October 2020.; Reached: Percent of Contacts Interviewed" role="graphics-symbol" aria-roledescription="point" transform="translate(234,110)" d="M2.739,0A2.739,2.739,0,1,1,-2.739,0A2.739,2.739,0,1,1,2.739,0" stroke="#4c78a8" stroke-width="2" opacity="0.7"/><path aria-label="Percent: 73.24; Data Source: COVID-19 Contact Tracing in Two Counties - North Carolina, June-July 2020.; Reached: Percent of Contacts Interviewed" role="graphics-symbol" aria-roledescription="point" transform="translate(219.71999999999997,130)" d="M2.739,0A2.739,2.739,0,1,1,-2.739,0A2.739,2.739,0,1,1,2.739,0" stroke="#4c78a8" stroke-width="2" opacity="0.7"/><path aria-label="Percent: 48.17; Data Source: COVID-19 Contact Tracing in Two Counties - North Carolina, June-July 2020.; Reached: Percent of Contacts Interviewed" role="graphics-symbol" aria-roledescription="point" transform="translate(144.51,130)" d="M2.739,0A2.739,2.739,0,1,1,-2.739,0A2.739,2.739,0,1,1,2.739,0" stroke="#4c78a8" stroke-width="2" opacity="0.7"/><path aria-label="Percent: 31.12; Data Source: Declines in SARS-CoV-2 Transmission, Hospitalizations, and Mortality After Implementation of Mitigation Measures- Delaware, March-June 2020.; Reached: Percent of Contacts Interviewed" role="graphics-symbol" aria-roledescription="point" transform="translate(93.36000000000001,210)" d="M2.739,0A2.739,2.739,0,1,1,-2.739,0A2.739,2.739,0,1,1,2.739,0" stroke="#4c78a8" stroke-width="2" opacity="0.7"/><path aria-label="Percent: 44.42; Data Source: Integrating Contact Tracers Into Point-of-Care Testing Workflow to Accelerate the Tracing of People With Exposure to COVID-19, August-December 2020, New York City.; Reached: Percent of Contacts Interviewed" role="graphics-symbol" aria-roledescription="point" transform="translate(133.26000000000002,230)" d="M2.739,0A2.739,2.739,0,1,1,-2.739,0A2.739,2.739,0,1,1,2.739,0" stroke="#4c78a8" stroke-width="2" opacity="0.7"/><path aria-label="Percent: 28.19; Data Source: Lessons Learned From COVID-19 Contact Tracing During a Public Health Emergency: A Prospective Implementation Study.; Reached: Percent of Contacts Interviewed" role="graphics-symbol" aria-roledescription="point" transform="translate(84.57000000000001,250)" d="M2.739,0A2.739,2.739,0,1,1,-2.739,0A2.739,2.739,0,1,1,2.739,0" stroke="#4c78a8" stroke-width="2" opacity="0.7"/><path aria-label="Percent: 38.5; Data Source: Unified Response to COVID-19 Case Investigation and Contact Tracing, Chicago, December 2020-April 2021.; Reached: Percent of Contacts Interviewed" role="graphics-symbol" aria-roledescription="point" transform="translate(115.5,310)" d="M2.739,0A2.739,2.739,0,1,1,-2.739,0A2.739,2.739,0,1,1,2.739,0" stroke="#4c78a8" stroke-width="2" opacity="0.7"/><path aria-label="Percent: 100; Data Source: A Patient-Initiated Digital COVID-19 Contact Notification Tool (TellYourContacts): Evaluation Study.; Reached: Percent of Contacts Reached" role="graphics-symbol" aria-roledescription="point" transform="translate(300,10)" d="M2.739,0A2.739,2.739,0,1,1,-2.739,0A2.739,2.739,0,1,1,2.739,0" stroke="#f58518" stroke-width="2" opacity="0.7"/><path aria-label="Percent: 71.38; Data Source: Adapting COVID-19 Contact Tracing Protocols to Accommodate Resource Constraints, Philadelphia, Pennsylvania, USA, 2021.; Reached: Percent of Contacts Reached" role="graphics-symbol" aria-roledescription="point" transform="translate(214.14,30)" d="M2.739,0A2.739,2.739,0,1,1,-2.739,0A2.739,2.739,0,1,1,2.739,0" stroke="#f58518" stroke-width="2" opacity="0.7"/><path aria-label="Percent: 78.02; Data Source: Adapting COVID-19 Contact Tracing Protocols to Accommodate Resource Constraints, Philadelphia, Pennsylvania, USA, 2021.; Reached: Percent of Contacts Reached" role="graphics-symbol" aria-roledescription="point" transform="translate(234.06,30)" d="M2.739,0A2.739,2.739,0,1,1,-2.739,0A2.739,2.739,0,1,1,2.739,0" stroke="#f58518" stroke-width="2" opacity="0.7"/><path aria-label="Percent: 87.31; Data Source: COVID-19 Case Investigation and Contact Tracing in Central Washington State, June-July 2020.; Reached: Percent of Contacts Reached" role="graphics-symbol" aria-roledescription="point" transform="translate(261.93,50)" d="M2.739,0A2.739,2.739,0,1,1,-2.739,0A2.739,2.739,0,1,1,2.739,0" stroke="#f58518" stroke-width="2" opacity="0.7"/><path aria-label="Percent: 74.26; Data Source: COVID-19 Case Investigation and Contact Tracing in New York City, June 1, 2020, to October 31, 2021.; Reached: Percent of Contacts Reached" role="graphics-symbol" aria-roledescription="point" transform="translate(222.78,70)" d="M2.739,0A2.739,2.739,0,1,1,-2.739,0A2.739,2.739,0,1,1,2.739,0" stroke="#f58518" stroke-width="2" opacity="0.7"/><path aria-label="Percent: 71.24; Data Source: COVID-19 Case Investigation and Contact Tracing in the US, 2020.; Reached: Percent of Contacts Reached" role="graphics-symbol" aria-roledescription="point" transform="translate(213.71999999999997,90)" d="M2.739,0A2.739,2.739,0,1,1,-2.739,0A2.739,2.739,0,1,1,2.739,0" stroke="#f58518" stroke-width="2" opacity="0.7"/><path aria-label="Percent: 52.99; Data Source: COVID-19 Case Investigation and Contact Tracing in the US, 2020.; Reached: Percent of Contacts Reached" role="graphics-symbol" aria-roledescription="point" transform="translate(158.97,90)" d="M2.739,0A2.739,2.739,0,1,1,-2.739,0A2.739,2.739,0,1,1,2.739,0" stroke="#f58518" stroke-width="2" opacity="0.7"/><path aria-label="Percent: 41.63; Data Source: COVID-19 Case Investigation and Contact Tracing in the US, 2020.; Reached: Percent of Contacts Reached" role="graphics-symbol" aria-roledescription="point" transform="translate(124.89,90)" d="M2.739,0A2.739,2.739,0,1,1,-2.739,0A2.739,2.739,0,1,1,2.739,0" stroke="#f58518" stroke-width="2" opacity="0.7"/><path aria-label="Percent: 94.55; Data Source: COVID-19 Case Investigation and Contact Tracing in the US, 2020.; Reached: Percent of Contacts Reached" role="graphics-symbol" aria-roledescription="point" transform="translate(283.65,90)" d="M2.739,0A2.739,2.739,0,1,1,-2.739,0A2.739,2.739,0,1,1,2.739,0" stroke="#f58518" stroke-width="2" opacity="0.7"/><path aria-label="Percent: 94.99; Data Source: COVID-19 Case Investigation and Contact Tracing in the US, 2020.; Reached: Percent of Contacts Reached" role="graphics-symbol" aria-roledescription="point" transform="translate(284.96999999999997,90)" d="M2.739,0A2.739,2.739,0,1,1,-2.739,0A2.739,2.739,0,1,1,2.739,0" stroke="#f58518" stroke-width="2" opacity="0.7"/><path aria-label="Percent: 84.83; Data Source: COVID-19 Case Investigation and Contact Tracing in the US, 2020.; Reached: Percent of Contacts Reached" role="graphics-symbol" aria-roledescription="point" transform="translate(254.48999999999998,90)" d="M2.739,0A2.739,2.739,0,1,1,-2.739,0A2.739,2.739,0,1,1,2.739,0" stroke="#f58518" stroke-width="2" opacity="0.7"/><path aria-label="Percent: 69.25; Data Source: COVID-19 Case Investigation and Contact Tracing in the US, 2020.; Reached: Percent of Contacts Reached" role="graphics-symbol" aria-roledescription="point" transform="translate(207.75,90)" d="M2.739,0A2.739,2.739,0,1,1,-2.739,0A2.739,2.739,0,1,1,2.739,0" stroke="#f58518" stroke-width="2" opacity="0.7"/><path aria-label="Percent: 60.81; Data Source: COVID-19 Case Investigation and Contact Tracing in the US, 2020.; Reached: Percent of Contacts Reached" role="graphics-symbol" aria-roledescription="point" transform="translate(182.42999999999998,90)" d="M2.739,0A2.739,2.739,0,1,1,-2.739,0A2.739,2.739,0,1,1,2.739,0" stroke="#f58518" stroke-width="2" opacity="0.7"/><path aria-label="Percent: 90.62; Data Source: COVID-19 Case Investigation and Contact Tracing in the US, 2020.; Reached: Percent of Contacts Reached" role="graphics-symbol" aria-roledescription="point" transform="translate(271.86,90)" d="M2.739,0A2.739,2.739,0,1,1,-2.739,0A2.739,2.739,0,1,1,2.739,0" stroke="#f58518" stroke-width="2" opacity="0.7"/><path aria-label="Percent: 75.14; Data Source: COVID-19 Case Investigation and Contact Tracing in the US, 2020.; Reached: Percent of Contacts Reached" role="graphics-symbol" aria-roledescription="point" transform="translate(225.42,90)" d="M2.739,0A2.739,2.739,0,1,1,-2.739,0A2.739,2.739,0,1,1,2.739,0" stroke="#f58518" stroke-width="2" opacity="0.7"/><path aria-label="Percent: 89.6; Data Source: COVID-19 Case Investigation and Contact Tracing in the US, 2020.; Reached: Percent of Contacts Reached" role="graphics-symbol" aria-roledescription="point" transform="translate(268.79999999999995,90)" d="M2.739,0A2.739,2.739,0,1,1,-2.739,0A2.739,2.739,0,1,1,2.739,0" stroke="#f58518" stroke-width="2" opacity="0.7"/><path aria-label="Percent: 58.54; Data Source: COVID-19 Case Investigation and Contact Tracing in the US, 2020.; Reached: Percent of Contacts Reached" role="graphics-symbol" aria-roledescription="point" transform="translate(175.62,90)" d="M2.739,0A2.739,2.739,0,1,1,-2.739,0A2.739,2.739,0,1,1,2.739,0" stroke="#f58518" stroke-width="2" opacity="0.7"/><path aria-label="Percent: 86.87; Data Source: COVID-19 Case Investigation and Contact Tracing in the US, 2020.; Reached: Percent of Contacts Reached" role="graphics-symbol" aria-roledescription="point" transform="translate(260.61,90)" d="M2.739,0A2.739,2.739,0,1,1,-2.739,0A2.739,2.739,0,1,1,2.739,0" stroke="#f58518" stroke-width="2" opacity="0.7"/><path aria-label="Percent: 74.03; Data Source: COVID-19 Case Investigation and Contact Tracing in the US, 2020.; Reached: Percent of Contacts Reached" role="graphics-symbol" aria-roledescription="point" transform="translate(222.08999999999997,90)" d="M2.739,0A2.739,2.739,0,1,1,-2.739,0A2.739,2.739,0,1,1,2.739,0" stroke="#f58518" stroke-width="2" opacity="0.7"/><path aria-label="Percent: 54.15; Data Source: COVID-19 Case Investigation and Contact Tracing in the US, 2020.; Reached: Percent of Contacts Reached" role="graphics-symbol" aria-roledescription="point" transform="translate(162.45,90)" d="M2.739,0A2.739,2.739,0,1,1,-2.739,0A2.739,2.739,0,1,1,2.739,0" stroke="#f58518" stroke-width="2" opacity="0.7"/><path aria-label="Percent: 88.41; Data Source: COVID-19 Contact Tracing Outcomes in Washington State, August and October 2020.; Reached: Percent of Contacts Reached" role="graphics-symbol" aria-roledescription="point" transform="translate(265.23,110)" d="M2.739,0A2.739,2.739,0,1,1,-2.739,0A2.739,2.739,0,1,1,2.739,0" stroke="#f58518" stroke-width="2" opacity="0.7"/><path aria-label="Percent: 81.51; Data Source: COVID-19 Contact Tracing Outcomes in Washington State, August and October 2020.; Reached: Percent of Contacts Reached" role="graphics-symbol" aria-roledescription="point" transform="translate(244.53,110)" d="M2.739,0A2.739,2.739,0,1,1,-2.739,0A2.739,2.739,0,1,1,2.739,0" stroke="#f58518" stroke-width="2" opacity="0.7"/><path aria-label="Percent: 75.14; Data Source: COVID-19 Contact Tracing in Two Counties - North Carolina, June-July 2020.; Reached: Percent of Contacts Reached" role="graphics-symbol" aria-roledescription="point" transform="translate(225.42,130)" d="M2.739,0A2.739,2.739,0,1,1,-2.739,0A2.739,2.739,0,1,1,2.739,0" stroke="#f58518" stroke-width="2" opacity="0.7"/><path aria-label="Percent: 52.53; Data Source: COVID-19 Contact Tracing in Two Counties - North Carolina, June-July 2020.; Reached: Percent of Contacts Reached" role="graphics-symbol" aria-roledescription="point" transform="translate(157.59,130)" d="M2.739,0A2.739,2.739,0,1,1,-2.739,0A2.739,2.739,0,1,1,2.739,0" stroke="#f58518" stroke-width="2" opacity="0.7"/><path aria-label="Percent: 62.43; Data Source: Case Investigation and Contact Tracing Efforts From Health Departments in the United States, November 2020 to December 2021.; Reached: Percent of Contacts Reached" role="graphics-symbol" aria-roledescription="point" transform="translate(187.29,150)" d="M2.739,0A2.739,2.739,0,1,1,-2.739,0A2.739,2.739,0,1,1,2.739,0" stroke="#f58518" stroke-width="2" opacity="0.7"/><path aria-label="Percent: 66.39; Data Source: Case Investigation and Contact Tracing Efforts From Health Departments in the United States, November 2020 to December 2021.; Reached: Percent of Contacts Reached" role="graphics-symbol" aria-roledescription="point" transform="translate(199.17000000000002,150)" d="M2.739,0A2.739,2.739,0,1,1,-2.739,0A2.739,2.739,0,1,1,2.739,0" stroke="#f58518" stroke-width="2" opacity="0.7"/><path aria-label="Percent: 67.03; Data Source: Case Investigation and Contact Tracing Efforts From Health Departments in the United States, November 2020 to December 2021.; Reached: Percent of Contacts Reached" role="graphics-symbol" aria-roledescription="point" transform="translate(201.09,150)" d="M2.739,0A2.739,2.739,0,1,1,-2.739,0A2.739,2.739,0,1,1,2.739,0" stroke="#f58518" stroke-width="2" opacity="0.7"/><path aria-label="Percent: 65.36; Data Source: Case Investigation and Contact Tracing Efforts From Health Departments in the United States, November 2020 to December 2021.; Reached: Percent of Contacts Reached" role="graphics-symbol" aria-roledescription="point" transform="translate(196.07999999999998,150)" d="M2.739,0A2.739,2.739,0,1,1,-2.739,0A2.739,2.739,0,1,1,2.739,0" stroke="#f58518" stroke-width="2" opacity="0.7"/><path aria-label="Percent: 64.11; Data Source: Case Investigation and Contact Tracing Efforts From Health Departments in the United States, November 2020 to December 2021.; Reached: Percent of Contacts Reached" role="graphics-symbol" aria-roledescription="point" transform="translate(192.33,150)" d="M2.739,0A2.739,2.739,0,1,1,-2.739,0A2.739,2.739,0,1,1,2.739,0" stroke="#f58518" stroke-width="2" opacity="0.7"/><path aria-label="Percent: 75.9; Data Source: Case Investigation and Contact Tracing Efforts From Health Departments in the United States, November 2020 to December 2021.; Reached: Percent of Contacts Reached" role="graphics-symbol" aria-roledescription="point" transform="translate(227.7,150)" d="M2.739,0A2.739,2.739,0,1,1,-2.739,0A2.739,2.739,0,1,1,2.739,0" stroke="#f58518" stroke-width="2" opacity="0.7"/><path aria-label="Percent: 67.31; Data Source: Case Investigation and Contact Tracing Efforts From Health Departments in the United States, November 2020 to December 2021.; Reached: Percent of Contacts Reached" role="graphics-symbol" aria-roledescription="point" transform="translate(201.93,150)" d="M2.739,0A2.739,2.739,0,1,1,-2.739,0A2.739,2.739,0,1,1,2.739,0" stroke="#f58518" stroke-width="2" opacity="0.7"/><path aria-label="Percent: 61.25; Data Source: Case Investigation and Contact Tracing Efforts From Health Departments in the United States, November 2020 to December 2021.; Reached: Percent of Contacts Reached" role="graphics-symbol" aria-roledescription="point" transform="translate(183.75,150)" d="M2.739,0A2.739,2.739,0,1,1,-2.739,0A2.739,2.739,0,1,1,2.739,0" stroke="#f58518" stroke-width="2" opacity="0.7"/><path aria-label="Percent: 58.3; Data Source: Case Investigation and Contact Tracing Efforts From Health Departments in the United States, November 2020 to December 2021.; Reached: Percent of Contacts Reached" role="graphics-symbol" aria-roledescription="point" transform="translate(174.89999999999998,150)" d="M2.739,0A2.739,2.739,0,1,1,-2.739,0A2.739,2.739,0,1,1,2.739,0" stroke="#f58518" stroke-width="2" opacity="0.7"/><path aria-label="Percent: 60.41; Data Source: Case Investigation and Contact Tracing Efforts From Health Departments in the United States, November 2020 to December 2021.; Reached: Percent of Contacts Reached" role="graphics-symbol" aria-roledescription="point" transform="translate(181.23,150)" d="M2.739,0A2.739,2.739,0,1,1,-2.739,0A2.739,2.739,0,1,1,2.739,0" stroke="#f58518" stroke-width="2" opacity="0.7"/><path aria-label="Percent: 48.84; Data Source: Case Investigation and Contact Tracing Efforts From Health Departments in the United States, November 2020 to December 2021.; Reached: Percent of Contacts Reached" role="graphics-symbol" aria-roledescription="point" transform="translate(146.52,150)" d="M2.739,0A2.739,2.739,0,1,1,-2.739,0A2.739,2.739,0,1,1,2.739,0" stroke="#f58518" stroke-width="2" opacity="0.7"/><path aria-label="Percent: 52.72; Data Source: Case Investigation and Contact Tracing Efforts From Health Departments in the United States, November 2020 to December 2021.; Reached: Percent of Contacts Reached" role="graphics-symbol" aria-roledescription="point" transform="translate(158.16,150)" d="M2.739,0A2.739,2.739,0,1,1,-2.739,0A2.739,2.739,0,1,1,2.739,0" stroke="#f58518" stroke-width="2" opacity="0.7"/><path aria-label="Percent: 50.3; Data Source: Case Investigation and Contact Tracing Efforts From Health Departments in the United States, November 2020 to December 2021.; Reached: Percent of Contacts Reached" role="graphics-symbol" aria-roledescription="point" transform="translate(150.9,150)" d="M2.739,0A2.739,2.739,0,1,1,-2.739,0A2.739,2.739,0,1,1,2.739,0" stroke="#f58518" stroke-width="2" opacity="0.7"/><path aria-label="Percent: 53.62; Data Source: Case Investigation and Contact Tracing Efforts From Health Departments in the United States, November 2020 to December 2021.; Reached: Percent of Contacts Reached" role="graphics-symbol" aria-roledescription="point" transform="translate(160.86,150)" d="M2.739,0A2.739,2.739,0,1,1,-2.739,0A2.739,2.739,0,1,1,2.739,0" stroke="#f58518" stroke-width="2" opacity="0.7"/><path aria-label="Percent: 65.17; Data Source: Centering Health Equity Within COVID-19 Contact Tracing: Connecticut's Community Outreach Specialist Program.; Reached: Percent of Contacts Reached" role="graphics-symbol" aria-roledescription="point" transform="translate(195.51000000000002,170)" d="M2.739,0A2.739,2.739,0,1,1,-2.739,0A2.739,2.739,0,1,1,2.739,0" stroke="#f58518" stroke-width="2" opacity="0.7"/><path aria-label="Percent: 87.19; Data Source: Coronavirus Disease Contact Tracing Outcomes and Cost, Salt Lake County, Utah, USA, March-May 2020.; Reached: Percent of Contacts Reached" role="graphics-symbol" aria-roledescription="point" transform="translate(261.57,190)" d="M2.739,0A2.739,2.739,0,1,1,-2.739,0A2.739,2.739,0,1,1,2.739,0" stroke="#f58518" stroke-width="2" opacity="0.7"/><path aria-label="Percent: 29.46; Data Source: Lessons Learned From COVID-19 Contact Tracing During a Public Health Emergency: A Prospective Implementation Study.; Reached: Percent of Contacts Reached" role="graphics-symbol" aria-roledescription="point" transform="translate(88.38000000000001,250)" d="M2.739,0A2.739,2.739,0,1,1,-2.739,0A2.739,2.739,0,1,1,2.739,0" stroke="#f58518" stroke-width="2" opacity="0.7"/><path aria-label="Percent: 83.77; Data Source: Outcomes of Contact Tracing in San Francisco, California-Test and Trace During Shelter-in-Place.; Reached: Percent of Contacts Reached" role="graphics-symbol" aria-roledescription="point" transform="translate(251.31,270)" d="M2.739,0A2.739,2.739,0,1,1,-2.739,0A2.739,2.739,0,1,1,2.739,0" stroke="#f58518" stroke-width="2" opacity="0.7"/><path aria-label="Percent: 53; Data Source: The public health impact of COVID-19 variants of concern on the effectiveness of contact tracing in Vermont, United States.; Reached: Percent of Contacts Reached" role="graphics-symbol" aria-roledescription="point" transform="translate(159,290)" d="M2.739,0A2.739,2.739,0,1,1,-2.739,0A2.739,2.739,0,1,1,2.739,0" stroke="#f58518" stroke-width="2" opacity="0.7"/><path aria-label="Percent: 52; Data Source: The public health impact of COVID-19 variants of concern on the effectiveness of contact tracing in Vermont, United States.; Reached: Percent of Contacts Reached" role="graphics-symbol" aria-roledescription="point" transform="translate(156,290)" d="M2.739,0A2.739,2.739,0,1,1,-2.739,0A2.739,2.739,0,1,1,2.739,0" stroke="#f58518" stroke-width="2" opacity="0.7"/><path aria-label="Percent: 91; Data Source: The public health impact of COVID-19 variants of concern on the effectiveness of contact tracing in Vermont, United States.; Reached: Percent of Contacts Reached" role="graphics-symbol" aria-roledescription="point" transform="translate(273,290)" d="M2.739,0A2.739,2.739,0,1,1,-2.739,0A2.739,2.739,0,1,1,2.739,0" stroke="#f58518" stroke-width="2" opacity="0.7"/><path aria-label="Percent: 65.25; Data Source: Unified Response to COVID-19 Case Investigation and Contact Tracing, Chicago, December 2020-April 2021.; Reached: Percent of Contacts Reached" role="graphics-symbol" aria-roledescription="point" transform="translate(195.75,310)" d="M2.739,0A2.739,2.739,0,1,1,-2.739,0A2.739,2.739,0,1,1,2.739,0" stroke="#f58518" stroke-width="2" opacity="0.7"/></g><g class="mark-group role-legend" role="graphics-symbol" aria-roledescription="legend" aria-label="Symbol legend titled 'Reached' for stroke color with 2 values: Percent of Contacts Interviewed, Percent of Contacts Reached"><g transform="translate(318,0)"><path class="background" aria-hidden="true" d="M0,0h158v45h-158Z" pointer-events="none"/><g><g class="mark-group role-legend-entry"><g transform="translate(0,16)"><path class="background" aria-hidden="true" d="M0,0h0v0h0Z" pointer-events="none"/><g><g class="mark-group role-scope" role="graphics-object" aria-roledescription="group mark container"><g transform="translate(0,0)"><path class="background" aria-hidden="true" d="M0,0h157.73828125v12.5h-157.73828125Z" pointer-events="none" opacity="1"/><g><g class="mark-symbol role-legend-symbol" pointer-events="none"><path transform="translate(6,6)" d="M5,0A5,5,0,1,1,-5,0A5,5,0,1,1,5,0" stroke="#4c78a8" stroke-width="1.5" opacity="0.7"/></g><g class="mark-text role-legend-label" pointer-events="none"><text text-anchor="start" transform="translate(16,9)" font-family="sans-serif" font-size="10px" fill="#000" opacity="1">Percent of Contacts Interviewed</text></g></g><path class="foreground" aria-hidden="true" d="" pointer-events="none" display="none"/></g><g transform="translate(0,16)"><path class="background" aria-hidden="true" d="M0,0h157.73828125v12.5h-157.73828125Z" pointer-events="none" opacity="1"/><g><g class="mark-symbol role-legend-symbol" pointer-events="none"><path transform="translate(6,6)" d="M5,0A5,5,0,1,1,-5,0A5,5,0,1,1,5,0" stroke="#f58518" stroke-width="1.5" opacity="0.7"/></g><g class="mark-text role-legend-label" pointer-events="none"><text text-anchor="start" transform="translate(16,9)" font-family="sans-serif" font-size="10px" fill="#000" opacity="1">Percent of Contacts Reached</text></g></g><path class="foreground" aria-hidden="true" d="" pointer-events="none" display="none"/></g></g></g><path class="foreground" aria-hidden="true" d="" pointer-events="none" display="none"/></g></g><g class="mark-text role-legend-title" pointer-events="none"><text text-anchor="start" transform="translate(0,9)" font-family="sans-serif" font-size="11px" font-weight="bold" fill="#000" opacity="1">Reached</text></g></g><path class="foreground" aria-hidden="true" d="" pointer-events="none" display="none"/></g></g></g><path class="foreground" aria-hidden="true" d="" display="none"/></g></g></g></svg>